<svg width="16" height="16" viewBox="0 0 16 16" fill="none" xmlns="http://www.w3.org/2000/svg">
<path fill-rule="evenodd" clip-rule="evenodd" d="M2 12.4444C2 12.1376 2.22386 11.8889 2.5 11.8889H12.5C12.7761 11.8889 13 12.1376 13 12.4444C13 12.7513 12.7761 13 12.5 13H2.5C2.22386 13 2 12.7513 2 12.4444Z" fill="white"/>
<path fill-rule="evenodd" clip-rule="evenodd" d="M2 8C2 7.69318 2.22386 7.44444 2.5 7.44444H12.5C12.7761 7.44444 13 7.69318 13 8C13 8.30683 12.7761 8.55556 12.5 8.55556H2.5C2.22386 8.55556 2 8.30683 2 8Z" fill="white"/>
<path fill-rule="evenodd" clip-rule="evenodd" d="M2 3.55556C2 3.24873 2.22386 3 2.5 3H12.5C12.7761 3 13 3.24873 13 3.55556C13 3.86238 12.7761 4.11111 12.5 4.11111H2.5C2.22386 4.11111 2 3.86238 2 3.55556Z" fill="white"/>
</svg>
