<svg width="33" height="40" viewBox="0 0 33 40" fill="none" xmlns="http://www.w3.org/2000/svg">
<path d="M15.1993 0.948347C10.3826 1.44572 5.77538 4.07656 3.10527 7.8723C-0.389431 12.8199 -0.965337 19.0501 1.53462 24.495C2.58172 26.7594 4.47959 29.1284 6.48217 30.6337C8.27533 31.9949 11.2596 33.2776 13.4977 33.6833C14.7543 33.9058 17.8563 33.9058 19.1259 33.6833C26.9792 32.309 33 25.1756 33 17.2569C33 14.6261 32.4895 12.3487 31.3639 10.0189C28.4844 3.99803 21.8484 0.28082 15.1993 0.948347ZM18.5369 1.48499C22.1887 1.93 25.1467 3.34359 27.7907 5.8959C30.2383 8.27805 31.6911 11.0136 32.2801 14.3905C32.5026 15.6732 32.5419 18.5527 32.3456 19.7569C31.7042 23.7359 29.2566 27.7541 25.9975 30.1756C24.6232 31.2096 21.9007 32.5184 20.2385 32.9635C18.6285 33.3823 15.7228 33.5394 14.0082 33.2776C10.8276 32.8195 7.76487 31.3012 5.40889 29.0237C0.893267 24.6783 -0.651207 18.6705 1.19431 12.6628C1.56079 11.4717 2.47701 9.66546 3.32778 8.42203C6.70468 3.51374 12.6993 0.778193 18.5369 1.48499Z" fill="white"/>
<path d="M14.4794 1.87764C12.3721 2.15251 9.67581 3.22579 7.63396 4.57393C4.54502 6.62886 1.80947 10.8042 1.05032 14.6261C0.81472 15.7779 0.81472 19.3119 1.03723 20.3852C2.34611 26.5238 6.56069 31.0263 12.4506 32.5839C13.982 32.9896 16.9401 33.1336 18.6154 32.8849C24.152 32.0865 28.8639 28.3693 30.9712 23.1731C33.2618 17.4794 32.2801 11.4848 28.288 6.85137C26.2985 4.53466 23.0656 2.68915 19.8589 2.0478C18.6678 1.8122 15.6574 1.70749 14.4794 1.87764ZM20.6311 2.44046C25.042 3.59227 28.9032 6.90373 30.6964 11.079C32.1492 14.4821 32.3455 18.5527 31.2199 21.9558C30.199 25.0317 28.0393 27.9635 25.2907 29.9923C23.3667 31.419 21.1677 32.2828 18.4715 32.6886C14.6103 33.2776 10.7098 32.3221 7.43763 29.9923C4.29633 27.7541 2.09742 24.3772 1.32518 20.5815C0.945608 18.736 1.01105 15.3329 1.45607 13.723C2.85657 8.61835 6.77011 4.45613 11.7831 2.78077C13.681 2.13942 14.7412 1.99544 17.1626 2.0478C18.9688 2.08706 19.5316 2.15251 20.6311 2.44046Z" fill="white"/>
<path d="M16.2072 3.40899L15.8538 3.77548L16.2202 4.12887L16.5867 4.48227L16.9401 4.11578L17.2935 3.7493L16.927 3.3959L16.5606 3.04251L16.2072 3.40899Z" fill="white"/>
<path d="M13.1705 3.59225L13.2621 3.998L12.9087 3.72313C12.3982 3.31738 12.1757 3.36974 12.6338 3.77549C12.9872 4.07653 13.0003 4.14197 12.8694 4.56081C12.6993 5.12363 12.8956 5.14981 13.105 4.5739L13.2621 4.15506L13.393 4.50846C13.6417 5.20216 13.7202 4.87494 13.5239 4.02418C13.3145 3.18649 13.0003 2.78074 13.1705 3.59225Z" fill="white"/>
<path d="M20.8274 3.68386C20.8274 3.7493 20.8797 3.95872 20.9452 4.12888C21.0499 4.40374 21.0106 4.49536 20.6703 4.74405C20.2122 5.08435 20.2777 5.2676 20.7488 4.95347C21.1939 4.66551 21.2331 4.69169 21.1415 5.09744C20.9975 5.68644 21.2855 5.28069 21.5342 4.5608C21.7829 3.80166 21.7829 3.82783 21.6127 3.82783C21.5473 3.82783 21.4818 3.90637 21.4818 4.01108C21.4818 4.39065 21.22 4.36447 21.1415 3.97181C21.063 3.60532 20.8274 3.3959 20.8274 3.68386Z" fill="white"/>
<path d="M11.6653 3.73621C11.6653 3.76239 11.7569 4.07652 11.8747 4.42992C12.1103 5.11053 12.3197 5.45084 12.3197 5.12362C12.3197 4.83567 11.8878 3.69695 11.77 3.69695C11.7176 3.69695 11.6653 3.71004 11.6653 3.73621Z" fill="white"/>
<path d="M10.9716 3.90636C10.9323 3.95871 10.9716 4.19431 11.0894 4.45609C11.1941 4.70477 11.2464 4.94037 11.2203 4.97964C11.181 5.00582 10.9585 4.87493 10.7098 4.69168C10.3171 4.39064 9.96375 4.25976 9.96375 4.40373C9.96375 4.42991 10.1208 4.78331 10.3041 5.18906C10.6836 6.02674 10.893 6.09218 10.5658 5.26759C10.448 4.97964 10.3957 4.74404 10.4349 4.74404C10.4742 4.74404 10.7491 4.92728 11.037 5.14979C11.325 5.38539 11.5998 5.51628 11.6522 5.45083C11.7831 5.30686 11.1025 3.77547 10.9716 3.90636Z" fill="white"/>
<path d="M22.3326 4.37755C21.9661 4.58697 21.8745 4.74404 21.8745 5.22832C21.8745 5.97438 22.6991 6.26234 23.2488 5.71261C23.4844 5.46392 23.5106 4.69168 23.2881 4.50844C22.9871 4.28593 22.6075 4.22049 22.3326 4.37755ZM23.1179 4.79639C23.5368 5.42465 22.7122 6.11836 22.2541 5.54245C22.0054 5.22832 22.0447 4.91419 22.3719 4.63933C22.6729 4.40373 22.8954 4.443 23.1179 4.79639Z" fill="white"/>
<path d="M8.58942 5.20218C8.24911 5.5294 8.19675 5.73882 8.38 6.02678C8.45853 6.17075 8.56324 6.15766 8.90355 5.94824C9.33548 5.68647 9.32239 5.43778 8.89046 5.67338C8.51088 5.86971 8.43235 5.69956 8.74648 5.38543C9.06061 5.05821 9.49254 5.13674 9.71505 5.54249C9.91138 5.92207 9.5449 6.44562 9.0737 6.44562C8.77266 6.45871 8.74648 6.47179 8.9559 6.58959C9.11297 6.68121 9.28312 6.66813 9.5449 6.55033C9.81976 6.41944 9.91138 6.27546 9.93756 5.90898C9.97683 5.51631 9.91138 5.37234 9.62343 5.14983C9.17841 4.79643 8.98208 4.79643 8.58942 5.20218Z" fill="white"/>
<path d="M24.2437 5.55556C24.2306 5.9744 24.1782 6.05293 23.7855 6.19691C23.5369 6.28853 23.3536 6.40633 23.3929 6.45868C23.4321 6.52412 23.6023 6.49795 23.7725 6.41941C24.1651 6.24926 24.3353 6.35397 24.0997 6.64192C24.0081 6.75972 23.9688 6.87752 24.0211 6.92988C24.1128 7.0215 24.0735 7.07385 24.6101 6.27544C25.0421 5.63409 25.0813 5.20216 24.6494 5.80424L24.4269 6.11837L24.3484 5.59482L24.2698 5.07127L24.2437 5.55556Z" fill="white"/>
<path d="M25.2121 6.36705C24.9634 6.55029 24.9634 6.56338 25.2776 6.82516C25.6833 7.15237 25.9189 7.17855 25.631 6.86442C25.3561 6.56338 25.3561 6.44558 25.5917 6.44558C25.8666 6.44558 26.1938 6.81207 26.1938 7.10002C26.1938 7.41415 25.6441 7.79372 25.3561 7.67593C25.2383 7.63666 25.0551 7.44033 24.9504 7.244C24.7802 6.92987 24.7671 6.91678 24.754 7.19164C24.754 7.57122 25.0943 7.88535 25.5132 7.88535C25.9451 7.88535 26.1022 7.78064 26.3116 7.40106C26.521 6.99531 26.4948 6.86442 26.1283 6.51103C25.7619 6.13145 25.5655 6.10527 25.2121 6.36705Z" fill="white"/>
<path d="M16.7961 7.2702C16.783 7.64977 16.7175 7.87228 16.639 7.81993C16.5736 7.78066 16.5081 7.80684 16.5081 7.88537C16.5081 7.9639 16.4558 8.00317 16.3903 7.9639C16.3249 7.92464 16.1678 8.05553 16.0238 8.26495C15.893 8.47437 15.749 8.65761 15.6966 8.65761C15.5919 8.6707 15.5526 8.77541 15.6312 8.82776C15.6443 8.84085 15.8013 8.74923 15.9846 8.63143C16.3642 8.39583 16.9531 8.3173 17.3982 8.46128C17.6207 8.53981 17.6861 8.50054 17.6861 8.34348C17.6861 8.22568 17.6338 8.16024 17.5683 8.21259C17.5029 8.25186 17.4113 8.22568 17.3589 8.14715C17.3065 8.06861 17.228 8.04244 17.1626 8.0817C17.0317 8.16024 16.9401 7.84611 16.8615 7.10005C16.8223 6.73356 16.8092 6.77283 16.7961 7.2702Z" fill="white"/>
<path d="M6.69159 7.29634C7.18897 7.80681 7.16279 7.84607 6.49526 7.53194C6.24658 7.41414 6.01098 7.3487 5.95862 7.38797C5.91936 7.42723 6.01098 7.7021 6.16804 8.00314C6.48217 8.6314 6.39055 8.68375 5.88009 8.18638C5.68376 8.00314 5.48743 7.87225 5.44816 7.89843C5.33036 8.01623 6.53453 9.0895 6.6785 9.01097C6.77013 8.94553 6.70468 8.69684 6.49526 8.26491C6.31202 7.91152 6.19422 7.62356 6.23349 7.62356C6.27275 7.62356 6.54762 7.74136 6.83557 7.89843C7.13661 8.0424 7.46383 8.13403 7.58163 8.08167C7.73869 8.02932 7.66016 7.88534 7.21514 7.42723C6.90101 7.10001 6.54762 6.83824 6.44291 6.83824C6.31202 6.83824 6.40364 7.00839 6.69159 7.29634Z" fill="white"/>
<path d="M26.4556 8.00313C26.1284 8.278 25.9059 8.55286 25.9452 8.59213C25.9975 8.64448 26.2069 8.52668 26.4294 8.34344C26.6389 8.1602 26.8483 8.01622 26.8876 8.01622C26.9399 8.01622 26.8876 8.26491 26.7828 8.55286C26.5603 9.16803 26.5342 9.49525 26.7043 9.42981C26.7698 9.40363 27.0708 9.16803 27.3718 8.89317C28.0001 8.31726 27.987 8.06858 27.3587 8.59213C27.1362 8.78846 26.9268 8.91935 26.9006 8.89317C26.8614 8.86699 26.9399 8.63139 27.0446 8.36962C27.254 7.85916 27.2933 7.49267 27.1493 7.49267C27.0839 7.49267 26.7828 7.72827 26.4556 8.00313Z" fill="white"/>
<path d="M13.8511 8.57906C13.7857 9.05025 13.8249 9.18114 14.1129 9.48218C14.4401 9.82249 14.4532 10.2413 14.1391 10.2413C14.0605 10.2413 14.0343 10.1497 14.0736 10.0319C14.126 9.90102 14.0605 9.74395 13.9296 9.63924C13.5893 9.39056 13.5631 9.40365 13.5501 9.94029C13.5239 10.7387 13.4453 11.2884 13.3406 11.2884C13.2752 11.2884 13.2359 11.223 13.2359 11.1575C13.2359 11.079 13.1836 11.0267 13.1181 11.0267C13.0527 11.0267 13.0527 11.2884 13.1181 11.6418C13.2098 12.0738 13.1836 12.2963 13.0658 12.4402C12.9218 12.6104 12.948 12.6235 13.1967 12.4664C13.4192 12.3224 13.5501 12.3224 13.7857 12.4272C14.1391 12.6104 14.5841 12.5842 14.8458 12.3617C14.9375 12.2701 15.0684 12.257 15.1338 12.3094C15.1862 12.3617 15.2123 12.3094 15.1731 12.2046C15.1338 12.0868 14.9898 12.0214 14.8328 12.0476C14.6757 12.0738 14.5448 12.0214 14.5448 11.956C14.5448 11.8774 14.5841 11.812 14.6495 11.812C14.7019 11.812 14.8458 11.6287 14.9636 11.4193C15.0814 11.1968 15.1338 11.0267 15.0684 11.0267C14.9898 11.0267 14.9375 11.079 14.9375 11.1575C14.9375 11.223 14.7804 11.2884 14.5841 11.2884L14.2176 11.2753L14.5841 11.079C15.016 10.8434 15.0553 10.3853 14.6757 9.65233C14.5186 9.36438 14.427 9.03716 14.4532 8.91936C14.4794 8.80156 14.4008 8.6445 14.2569 8.55288C14.126 8.47434 14.0474 8.34346 14.0867 8.27801C14.126 8.21257 14.0998 8.13404 14.0343 8.09477C13.982 8.0555 13.8904 8.26492 13.8511 8.57906ZM14.283 8.85392C14.283 8.89319 14.2307 8.95863 14.1521 8.9979C14.0867 9.03716 14.0213 9.01098 14.0213 8.94554C14.0213 8.86701 14.0867 8.80156 14.1521 8.80156C14.2307 8.80156 14.283 8.82774 14.283 8.85392ZM14.6757 10.3068C14.5841 10.4115 14.5448 10.5816 14.5841 10.6994C14.6364 10.8041 14.6102 10.9219 14.5317 10.9612C14.2961 11.1183 14.2569 10.6209 14.4794 10.3722C14.7542 10.0712 14.9113 10.0188 14.6757 10.3068ZM13.8904 11.4062C13.8904 11.7465 13.4715 12.1785 13.3799 11.9298C13.3537 11.8382 13.393 11.7334 13.4846 11.7073C13.5631 11.6811 13.6286 11.5502 13.6286 11.4062C13.6286 11.2753 13.694 11.1575 13.7595 11.1575C13.838 11.1575 13.8904 11.2753 13.8904 11.4062ZM14.2699 11.8774C14.1521 12.3617 14.1129 12.4664 14.0082 12.4664C13.7987 12.4664 13.7202 12.0738 13.8904 11.8774C14.0736 11.6549 14.3223 11.668 14.2699 11.8774Z" fill="white"/>
<path d="M19.5185 8.34348C19.4531 8.52672 19.4269 8.77541 19.4662 8.89321C19.5316 9.08954 19.5055 9.08954 19.3222 8.86703C19.1782 8.70997 19.1259 8.68379 19.1521 8.80159C19.2306 9.01101 18.9165 9.73089 18.694 9.87487C18.6154 9.92722 18.55 10.1759 18.5631 10.4246C18.5762 10.6864 18.5238 10.922 18.4584 10.9612C18.406 11.0005 18.4714 11.2361 18.6023 11.4979C18.9165 12.0607 18.9165 12.0607 18.6154 11.9822C18.4714 11.9429 18.3406 12.0083 18.2882 12.1392C18.2489 12.2701 18.262 12.3225 18.3536 12.2701C18.4191 12.2178 18.55 12.2439 18.6416 12.3094C18.7332 12.3748 18.9557 12.4664 19.1521 12.5188C19.4531 12.5842 19.5055 12.5712 19.4269 12.3748C19.3877 12.2439 19.296 12.0738 19.2306 11.9822C19.1652 11.8905 19.1652 11.7989 19.2568 11.7466C19.4269 11.6419 19.7934 12.0607 19.728 12.2701C19.7018 12.3356 19.8065 12.401 19.9636 12.401C20.173 12.401 20.2384 12.3094 20.2646 12.0083C20.2777 11.7858 20.3301 11.4717 20.3562 11.2885C20.3955 11.1052 20.3955 11.0398 20.3562 11.1183C20.317 11.2099 20.2384 11.2885 20.173 11.2885C20.0028 11.2885 19.9374 10.6602 20.0814 10.5162C20.1861 10.4115 20.173 10.3722 20.0552 10.3722C19.8589 10.3722 19.9897 9.57383 20.2253 9.42985C20.3301 9.35132 20.3301 9.32514 20.2253 9.32514C20.1468 9.32514 20.0028 9.41676 19.9112 9.52147C19.8196 9.62618 19.6625 9.7178 19.5578 9.7178C19.4269 9.7178 19.4007 9.79633 19.4531 9.97958C19.5447 10.2544 19.3353 10.3461 19.1782 10.0974C19.139 10.0188 19.283 9.75707 19.5185 9.52147C19.7934 9.23352 19.8981 9.0241 19.8327 8.91939C19.7803 8.81468 19.7411 8.57908 19.7541 8.38275C19.7934 7.92464 19.6887 7.91155 19.5185 8.34348ZM19.2044 10.8303C19.1652 10.9481 19.0735 11.0136 19.0081 10.9612C18.9296 10.922 18.9034 10.8042 18.9557 10.6995C18.995 10.5817 18.9426 10.3984 18.851 10.2675C18.7594 10.1497 18.8248 10.1759 18.9819 10.333C19.1782 10.5031 19.2568 10.6864 19.2044 10.8303ZM19.6494 10.634C19.6494 10.6995 19.584 10.7649 19.5055 10.7649C19.44 10.7649 19.4138 10.6995 19.4531 10.634C19.4924 10.5555 19.5578 10.5031 19.5971 10.5031C19.6233 10.5031 19.6494 10.5555 19.6494 10.634ZM19.0604 11.1576C19.0997 11.223 19.0212 11.2885 18.8772 11.2885C18.7201 11.2885 18.6023 11.223 18.6023 11.1576C18.6023 11.079 18.6809 11.0267 18.7856 11.0267C18.8903 11.0267 19.0212 11.079 19.0604 11.1576ZM19.9112 11.4193C19.9112 11.5633 19.9767 11.6811 20.0421 11.6811C20.1206 11.6811 20.173 11.7727 20.173 11.8774C20.173 12.113 20.0159 12.1261 19.8065 11.9167C19.6102 11.7204 19.5971 11.1576 19.7803 11.1576C19.8589 11.1576 19.9112 11.2754 19.9112 11.4193Z" fill="white"/>
<path d="M17.8825 8.55287C17.8301 8.63141 17.8171 8.70994 17.8563 8.7492C17.8825 8.78847 17.9479 8.72303 17.9872 8.60523C18.0788 8.38272 18.0003 8.34345 17.8825 8.55287Z" fill="white"/>
<path d="M4.67587 8.94554C4.27012 9.27276 4.24394 9.56071 4.61042 10.0319C5.1078 10.6602 6.0371 10.346 6.0371 9.54762C6.0371 9.20731 5.51355 8.67067 5.18633 8.67067C5.09471 8.67067 4.8722 8.78847 4.67587 8.94554ZM5.70988 9.24658C6.02401 9.71777 5.77532 10.1366 5.21251 10.0843C4.89838 10.0581 4.76749 9.95337 4.67587 9.6916C4.42718 8.9848 5.30413 8.61832 5.70988 9.24658Z" fill="white"/>
<path d="M11.927 9.28589C11.8354 9.63928 11.7176 9.9665 11.6522 10.0319C11.5213 10.189 11.6391 10.4639 12.0187 10.8434C12.3459 11.1707 12.3721 11.4194 12.0841 11.5241C11.9794 11.5502 11.9532 11.4979 12.0056 11.3539C12.0841 11.1576 11.7569 10.778 11.5082 10.7649C11.2857 10.7649 11.4166 11.5241 11.6653 11.7466C11.8747 11.9298 11.9139 12.1 11.8616 12.4534L11.7961 12.9246L11.9925 12.4272C12.0972 12.1523 12.2935 11.7858 12.4375 11.6026C12.6469 11.3408 12.6731 11.1968 12.5684 10.8565C12.5029 10.634 12.4899 10.333 12.5291 10.2152C12.5684 10.0581 12.5291 9.97959 12.4113 9.97959C12.2543 9.97959 12.215 9.83561 12.2412 9.32515C12.2935 8.50056 12.1365 8.48747 11.927 9.28589Z" fill="white"/>
<path d="M21.4296 8.94557C21.4689 9.1419 21.4427 9.33823 21.3511 9.39059C21.2725 9.44294 21.2464 9.58692 21.2856 9.73089C21.338 9.90105 21.3118 9.97958 21.1678 9.97958C21.05 9.97958 20.9977 10.0581 21.0369 10.1628C21.0762 10.2675 21.05 10.5555 20.9846 10.8173C20.8668 11.1968 20.893 11.3408 21.1024 11.6026C21.4296 12.0214 21.6259 12.545 21.5343 12.7937C21.4296 13.0554 21.2725 13.0424 20.7882 12.702L20.3694 12.4141L20.6181 12.702L20.8668 12.99H20.2516C19.8328 12.99 19.5186 13.0685 19.3092 13.2387C19.0213 13.4743 19.0082 13.4874 19.2569 13.5528C19.3877 13.5921 19.5317 13.5528 19.5579 13.4612C19.5972 13.3565 19.6626 13.3565 19.7804 13.4743C19.9767 13.6575 20.304 13.5528 20.304 13.3041C20.304 13.0816 20.6181 13.0685 20.9715 13.2518C21.2856 13.435 21.2856 13.5005 20.906 13.9324C20.605 14.2989 20.1338 14.4167 19.9767 14.168C19.9375 14.0895 19.8197 14.0371 19.7411 14.0371C19.6495 14.0371 19.7019 14.1287 19.8328 14.2334C20.0553 14.4036 20.0684 14.469 19.9244 14.9271C19.8328 15.202 19.7673 15.503 19.7804 15.6077C19.8328 15.9611 19.7804 16.1444 19.6495 16.0659C19.571 16.0266 19.5579 16.0789 19.5972 16.1837C19.7019 16.4585 19.4663 16.4454 19.2438 16.1837C19.1129 16.0266 19.1129 15.9219 19.2307 15.7255C19.3616 15.5161 19.3485 15.4769 19.1652 15.4638C19.0213 15.4638 18.9951 15.4245 19.0998 15.3852C19.2961 15.3067 19.3092 14.8224 19.1129 14.8224C19.0213 14.8224 18.982 14.6654 19.0213 14.4298C19.0998 13.9062 18.9558 13.9324 18.6155 14.5083C18.3537 14.9533 18.3406 15.0449 18.4977 15.7125C18.5762 16.1051 18.681 16.3669 18.7071 16.2884C18.7464 16.1706 18.8642 16.1967 19.1391 16.3538C19.4925 16.5632 19.5186 16.6418 19.5186 17.3747C19.5186 18.3564 19.7935 18.9323 20.5396 19.4951C20.8668 19.7438 21.0369 19.9532 20.9453 20.0056C20.8668 20.0448 20.8275 20.2019 20.8668 20.3328C20.9191 20.5029 20.8144 20.6731 20.5526 20.8563C20.3432 21.0003 20.1993 21.1705 20.2254 21.2228C20.2647 21.2752 20.1731 21.3144 20.0291 21.3144C19.715 21.3144 19.715 21.2228 20.0684 20.6338L20.3563 20.1495L19.9113 19.7831C19.6495 19.5606 19.4532 19.2595 19.4139 19.0501C19.3485 18.5658 19.2569 18.4873 19.2569 18.9192C19.2569 19.3511 19.126 19.3642 18.7464 18.9585C18.4977 18.6967 18.4715 18.592 18.6024 18.3564C18.7333 18.1208 18.7071 18.0423 18.5108 17.8852C18.3799 17.7936 18.2359 17.7019 18.1836 17.7019C18.1181 17.7019 18.0789 17.5972 18.0789 17.4664C18.0789 17.2962 18.0527 17.2831 17.9611 17.4271C17.8956 17.5187 17.7778 17.558 17.6993 17.5187C17.4899 17.3747 17.5291 17.1784 17.7647 17.1784C17.948 17.1784 17.948 17.1391 17.8171 16.9821C17.7255 16.8643 17.5422 16.8119 17.4113 16.8512C17.2412 16.9166 17.1627 16.8643 17.1627 16.7203C17.1627 16.5763 17.2281 16.524 17.359 16.5763C17.5946 16.6548 17.6077 16.5894 17.4244 16.2491C17.3459 16.1051 17.3328 15.9219 17.3852 15.8303C17.4375 15.7517 17.4637 15.5554 17.4375 15.4114C17.3983 15.1889 17.4244 15.1758 17.6469 15.346C17.8695 15.5292 17.8695 15.5292 17.6731 15.2805C17.3459 14.8748 17.1103 14.0633 17.2805 13.8669C17.4244 13.6837 17.3328 13.0816 17.1757 13.1732C17.0056 13.291 17.1888 12.2701 17.3721 12.1261C17.5422 11.9952 17.5291 11.9691 17.359 11.8905C17.2543 11.8513 17.1627 11.668 17.1627 11.4586C17.1627 11.1445 17.1103 11.0921 16.7831 11.0921C16.469 11.0921 16.3904 11.1576 16.3512 11.4455C16.3119 11.6549 16.3381 11.812 16.4035 11.812C16.4559 11.812 16.5082 11.8775 16.5082 11.956C16.5082 12.0345 16.3904 12.0607 16.2203 12.0083C15.9323 11.9167 15.9323 11.9298 16.1679 12.1C16.3642 12.257 16.4035 12.3879 16.3381 12.702C16.2726 12.99 16.2988 13.1209 16.4166 13.1209C16.5213 13.1209 16.5082 13.1601 16.3904 13.2387C16.1548 13.3957 16.0894 14.5476 16.2988 14.8093C16.4166 14.9664 16.4035 14.9926 16.2464 14.9271C16.1286 14.8879 15.9454 14.9926 15.7883 15.202C15.5658 15.503 15.5658 15.5161 15.7753 15.346C15.9847 15.1758 16.0108 15.1889 15.9716 15.4114C15.9454 15.5554 15.9716 15.7517 16.037 15.8433C16.1025 15.9481 16.0894 16.0789 15.9978 16.1706C15.8145 16.3538 15.8014 16.5632 15.9847 16.4585C16.1286 16.3669 16.325 16.7465 16.1941 16.8774C16.1548 16.9297 16.0501 16.9035 15.9585 16.8119C15.7883 16.6418 15.5266 16.8643 15.3302 17.3616C15.2648 17.558 15.0554 17.7674 14.8721 17.859C14.5318 18.0161 14.4664 18.1601 14.6758 18.2909C14.9114 18.4349 14.8067 18.8407 14.4795 19.0632C14.0868 19.325 14.0606 19.325 13.9821 19.037C13.9428 18.893 13.9166 18.9192 13.9036 19.1417C13.8905 19.3642 13.7596 19.5475 13.4716 19.7045C13.1313 19.9009 13.0921 19.9663 13.2491 20.071C13.4062 20.1626 13.4062 20.2019 13.2622 20.3066C13.1051 20.3982 13.1182 20.4899 13.2884 20.8171C13.5502 21.3275 13.5502 21.3537 13.2491 21.3275C13.1051 21.3275 13.0135 21.2752 13.0528 21.2228C13.079 21.1705 12.935 21.0003 12.7125 20.8433C12.4638 20.6731 12.3198 20.4506 12.3198 20.2543C12.3198 20.071 12.2282 19.927 12.058 19.8878C11.9141 19.8485 11.7963 19.7307 11.7963 19.6129C11.7963 19.4951 11.7308 19.4035 11.6523 19.4035C11.5868 19.4035 11.5607 19.4689 11.5999 19.5344C11.757 19.7831 11.3905 20.0579 10.9193 20.0579C10.5267 20.0579 10.4743 20.0841 10.6183 20.2543C10.6968 20.359 10.7361 20.5029 10.6837 20.5946C10.579 20.7516 10.8277 20.9741 11.1157 20.9741C11.2335 20.9741 11.2204 20.8825 11.0633 20.6469C10.9455 20.4637 10.867 20.2935 10.8931 20.2673C10.9193 20.2412 11.2204 20.1757 11.5476 20.1234L12.1497 20.0317L12.2413 20.5684C12.2936 20.9349 12.3722 21.0789 12.5031 21.0265C12.5947 20.9872 12.7125 21.0527 12.7517 21.1574C12.8041 21.2883 12.7648 21.3668 12.647 21.3668C12.5554 21.3668 12.4376 21.537 12.3853 21.7595C12.2675 22.2699 11.901 22.3746 11.3512 22.0343C10.7884 21.6809 10.0816 21.6809 9.76751 22.0212C9.545 22.2699 9.545 22.2699 9.95075 22.1129C10.2387 22.0082 10.4219 21.9951 10.579 22.0998C10.8801 22.2961 10.9848 22.6102 10.6968 22.5055C10.579 22.4532 10.4874 22.4793 10.4874 22.5448C10.4874 22.7542 10.7623 22.8327 10.9455 22.6757C11.0633 22.571 11.2073 22.571 11.3512 22.6495C11.6261 22.7935 12.2806 22.4663 12.3983 22.1129C12.49 21.8249 12.7125 21.9558 12.7125 22.2961C12.7125 22.4663 12.8041 22.5448 13.0135 22.5579C13.2753 22.5579 13.2753 22.571 13.0528 22.6626C12.8695 22.728 12.8434 22.7935 12.9612 22.8589C13.0397 22.9113 13.1968 22.8982 13.3015 22.8066C13.4193 22.7149 13.4978 22.7019 13.5632 22.8066C13.668 22.9636 13.524 23.2254 13.3669 23.1338C13.3146 23.0945 13.236 23.16 13.1837 23.2647C13.1051 23.4872 13.3015 23.5395 13.4324 23.3301C13.4847 23.2516 13.6287 23.2254 13.7596 23.2647C13.8905 23.3039 14.0214 23.2647 14.0606 23.1469C14.0999 23.0422 14.2962 22.9375 14.5056 22.9113C14.7543 22.8851 14.8852 22.7935 14.8983 22.6102C14.9637 21.8904 15.147 21.5762 15.592 21.4584C16.4428 21.2359 17.071 21.7333 16.2988 22.0212C16.0501 22.1129 15.9716 22.2307 16.0108 22.4532C16.037 22.6888 16.1417 22.7542 16.5737 22.7804C17.1627 22.8327 17.3328 23.0029 17.1496 23.3563C17.0449 23.5395 16.8616 23.5919 16.3119 23.5919C15.5135 23.5919 15.003 23.9191 14.859 24.5343C14.7412 25.0709 15.3171 25.6076 15.893 25.5029C17.1627 25.2673 17.2935 25.2673 17.6077 25.4767C18.0134 25.7254 18.1574 25.7515 17.9218 25.5159C17.66 25.2411 17.215 25.0317 16.9271 25.0317C16.6129 25.0317 16.325 24.7044 16.4428 24.495C16.5213 24.3903 16.5737 24.3903 16.6391 24.5081C16.7831 24.7437 17.1757 24.5605 17.0841 24.3118C17.0187 24.1678 16.8747 24.1154 16.5868 24.1416C16.2726 24.1678 16.1679 24.2463 16.1417 24.4819C16.1156 24.6521 16.1679 24.8615 16.2464 24.9662C16.3642 25.0971 16.3381 25.1625 16.1417 25.2149C15.5658 25.3981 15.0946 24.8746 15.3433 24.3249C15.5135 23.9584 16.0632 23.7228 16.7569 23.7228C17.3066 23.7228 17.5553 23.5395 17.5553 23.1076C17.5553 22.8066 17.3983 22.728 16.6522 22.6495C16.2072 22.5971 16.1548 22.3092 16.5737 22.1521C16.8354 22.0474 16.9009 21.9558 16.8354 21.7595C16.7569 21.5239 16.8093 21.4977 17.4113 21.4977C18.0658 21.4977 18.0658 21.4977 18.2098 22.0212C18.2883 22.3092 18.3145 22.6233 18.2752 22.7149C18.2228 22.7935 18.3145 22.728 18.4715 22.5448C18.6286 22.3615 18.7857 22.2307 18.8118 22.2437C18.9427 22.3354 19.1391 22.2699 19.0605 22.1652C19.0213 22.0998 19.0474 22.0082 19.126 21.9558C19.1914 21.9165 19.2569 21.9427 19.2569 22.0082C19.2569 22.0867 19.3616 22.1521 19.4925 22.1521C19.6626 22.1521 19.6757 22.1783 19.5317 22.2699C19.3877 22.3615 19.3877 22.3877 19.5317 22.4401C19.7804 22.5317 19.6626 22.6364 19.1914 22.7411C18.8118 22.8197 18.8118 22.8197 19.0474 22.6233C19.3354 22.3877 19.2307 22.3485 18.8511 22.5448C18.5632 22.7019 18.5239 22.9375 18.7857 22.9375C18.8773 22.9375 19.0344 23.016 19.126 23.1207C19.2045 23.2254 19.3485 23.2909 19.427 23.2647C19.5186 23.2254 19.6757 23.2647 19.7804 23.3301C19.9506 23.4479 19.9506 23.4741 19.7804 23.5919C19.6757 23.6573 19.5055 23.6966 19.427 23.6573C19.3354 23.6312 19.2569 23.6573 19.2569 23.7228C19.2569 23.8013 19.3485 23.8537 19.4532 23.8537C19.5579 23.8537 19.6495 23.9453 19.6495 24.0631C19.6495 24.2071 19.571 24.2594 19.3877 24.2071C19.2438 24.1678 19.0998 24.1809 19.0605 24.2463C19.0213 24.2987 19.126 24.3772 19.2699 24.4165C19.427 24.4558 19.5055 24.5474 19.4532 24.639C19.4008 24.7175 19.2569 24.7437 19.1129 24.7044C18.982 24.6521 18.8642 24.6783 18.8642 24.7437C18.8642 24.8091 18.982 24.9008 19.1391 24.94C19.2961 24.9793 19.3747 25.0709 19.3223 25.1625C19.2699 25.2411 19.1129 25.2673 18.9689 25.2149C18.7202 25.1364 18.7071 25.1756 18.7726 25.5683C18.8118 25.817 18.8904 26.1573 18.9427 26.3405C19.0213 26.6154 19.0082 26.6416 18.8511 26.4976C18.7464 26.406 18.6286 25.961 18.5893 25.5159L18.5108 24.7044L18.4977 25.3981C18.4846 25.8039 18.5501 26.2489 18.6679 26.4714C18.9035 26.9164 18.7202 26.995 18.2883 26.6678C17.9087 26.3798 17.359 26.4322 16.9402 26.7856L16.5737 27.0997L16.2072 26.7856C15.7753 26.4191 15.1339 26.3798 14.702 26.6808C14.2962 26.9557 14.2177 26.851 14.4664 26.3536C14.7281 25.8562 14.7281 25.0055 14.4795 24.1678C14.3617 23.762 14.3355 23.4872 14.414 23.4086C14.5056 23.317 14.5449 23.3563 14.5449 23.5003C14.5449 23.8013 14.7674 23.7882 14.9376 23.4741C15.1339 23.1076 15.1208 22.8327 14.9114 23.0422C14.8198 23.1338 14.6496 23.1992 14.5318 23.1992C14.2046 23.1992 14.1522 23.5003 14.3617 24.194C14.5842 24.9531 14.5973 25.961 14.3878 26.2358C14.2308 26.4322 14.1915 26.4191 13.9559 26.1835L13.6941 25.9086L13.9821 25.974C14.1915 26.0264 14.2831 25.974 14.3355 25.7646C14.4664 25.2673 14.4271 25.1364 14.1653 25.228C14.0214 25.2673 13.8774 25.2411 13.825 25.1625C13.7727 25.0709 13.8512 24.9793 14.0083 24.94C14.1653 24.9008 14.2831 24.783 14.2831 24.6783C14.2831 24.5212 14.2439 24.5081 14.113 24.6128C14.0083 24.7044 13.8774 24.7044 13.7596 24.6259C13.6025 24.5343 13.6156 24.495 13.8643 24.4296C14.0214 24.3772 14.1522 24.2856 14.1522 24.2202C14.1522 24.1547 14.0344 24.1285 13.9036 24.1809C13.7596 24.2202 13.6156 24.194 13.5632 24.1154C13.5109 24.0238 13.5894 23.9322 13.7465 23.8929C14.113 23.8013 14.0999 23.6181 13.7203 23.6442C13.4455 23.6573 13.4062 23.7228 13.4193 24.1154C13.4324 24.3641 13.5109 24.639 13.6156 24.7175C13.7465 24.8222 13.7596 24.8877 13.6549 24.9531C13.5763 25.0055 13.5502 25.1364 13.5894 25.2673C13.668 25.4767 13.6549 25.4767 13.4193 25.2673C13.2099 25.084 13.1182 25.0709 13.0004 25.1887C12.8826 25.3065 12.8434 25.3065 12.8434 25.1887C12.8434 25.0971 12.9088 25.0317 12.9873 25.0317C13.2099 25.0317 13.079 24.8615 12.4769 24.3118C11.9272 23.8275 11.901 23.8144 11.9533 24.1154C11.9795 24.3641 11.9402 24.4427 11.7701 24.4296C11.5214 24.4034 11.4429 24.8222 11.6654 24.9662C11.7439 25.0055 11.7963 25.3065 11.7963 25.6337C11.7963 25.961 11.8617 26.3405 11.9272 26.4845C12.2675 27.1128 13.4455 27.296 14.6496 26.9164C15.291 26.707 15.7098 26.7332 16.1156 26.995C16.2726 27.0997 16.2857 27.1651 16.1548 27.3876C15.9192 27.741 15.9454 27.8457 16.1941 27.5971C16.4559 27.3222 16.6915 27.3353 16.914 27.6101C17.0841 27.8065 17.0579 27.8196 16.7438 27.741C16.4559 27.6625 16.3512 27.7149 16.1025 28.0682C15.893 28.3562 15.88 28.4347 16.0239 28.3169C16.1548 28.2122 16.2464 28.1991 16.2464 28.2777C16.2464 28.4871 15.8014 28.6965 15.3433 28.6965C15.0423 28.6965 14.8721 28.5787 14.5842 28.2122C13.969 27.3876 13.8381 27.3484 13.236 27.8719C12.8957 28.1468 12.7648 28.1991 12.49 28.0944C12.1104 27.9635 11.9926 27.7934 11.8355 27.0866C11.7701 26.7463 11.613 26.5107 11.3774 26.3667C11.0371 26.1704 11.0109 26.1704 10.7361 26.5238C10.3958 26.9426 9.97693 26.9426 9.75442 26.4976C9.50573 26.0002 9.38793 25.9217 9.03454 26.0788C8.78585 26.1835 8.77276 26.1966 8.98218 26.1835C9.33558 26.1442 9.57118 26.3013 9.57118 26.6023C9.57118 26.995 9.97693 27.152 10.4089 26.9164C11.1549 26.5369 11.6654 26.7463 11.6654 27.4531C11.6654 27.9635 11.9926 28.4347 12.3591 28.4347C12.5161 28.4347 12.8303 28.3169 13.0397 28.173C13.6418 27.7803 13.969 27.8457 14.5973 28.5002C14.9245 28.8274 15.2124 29.0892 15.2517 29.0892C15.5135 29.0892 16.2464 28.6834 16.3512 28.474C16.482 28.2515 16.5213 28.2646 16.8878 28.6572C17.4637 29.2855 17.804 29.2201 18.7202 28.3038C19.1783 27.8327 19.3877 27.8196 20.0553 28.1991C20.8013 28.618 21.2333 28.4347 21.4165 27.6494C21.482 27.3222 21.5997 26.9819 21.6521 26.8903C21.7961 26.6808 22.2411 26.6939 22.6469 26.9164C23.0788 27.152 23.406 27.0342 23.5631 26.5892C23.6547 26.3013 23.7725 26.2096 24.0212 26.2096C24.5185 26.2096 24.5185 26.0133 24.0212 25.9871C23.6285 25.974 23.55 26.0133 23.3798 26.4191C23.262 26.6939 23.105 26.8641 22.961 26.8641C22.6469 26.8641 22.1102 26.4845 22.2018 26.3274C22.2542 26.262 22.2018 26.2096 22.0971 26.2096C21.7175 26.2096 21.338 26.6808 21.1678 27.3222C20.9453 28.2122 20.5396 28.3693 19.7935 27.8588C19.2045 27.4531 18.9689 27.5054 18.5501 28.1468C18.1574 28.7358 17.8825 28.8667 17.3459 28.6965C17.0972 28.618 16.9009 28.4871 16.9009 28.4216C16.9009 28.3431 16.9663 28.33 17.0579 28.3824C17.1496 28.4347 17.1627 28.4216 17.1103 28.3169C17.0579 28.2384 16.9402 28.2122 16.8616 28.2646C16.77 28.3169 16.7962 28.2122 16.9271 28.029C17.071 27.8065 17.0972 27.6232 17.0187 27.5054C16.8093 27.1782 16.8878 27.0211 17.359 26.8641C17.7255 26.7463 17.9218 26.7463 18.3799 26.9164C19.3092 27.2437 19.8459 27.2829 20.4218 27.0473C21.05 26.7986 21.3511 26.3274 21.3511 25.5945C21.3511 24.8877 21.1809 24.6652 20.9322 25.0186L20.7359 25.3065L20.6443 25.0055C20.5396 24.5735 20.5396 24.5474 20.7752 24.4558C20.8799 24.4165 20.9322 24.4296 20.893 24.5081C20.8406 24.5866 20.9846 24.639 21.2464 24.6259C21.482 24.6128 21.5736 24.5866 21.4558 24.5474C21.2987 24.5081 21.2202 24.3641 21.2202 24.1416C21.2202 23.8144 21.1678 23.8537 20.3825 24.6259C19.6103 25.3981 19.5579 25.4243 19.5579 25.1102C19.5579 24.9139 19.6103 24.7306 19.6626 24.6913C19.7281 24.6521 19.7542 24.5605 19.715 24.495C19.6626 24.4296 19.6757 24.2987 19.7411 24.2071C19.7935 24.1285 19.8459 23.9846 19.8459 23.9191C19.872 23.5788 20.4218 22.4793 20.7882 22.0212C20.8799 21.9034 20.9191 21.6809 20.8668 21.5108C20.8144 21.3014 20.7621 21.2621 20.6835 21.3799C20.5396 21.6155 20.4087 21.4584 20.5134 21.1836C20.5526 21.0658 20.6835 20.9741 20.7752 20.9741C20.8799 20.9741 20.9977 20.7909 21.05 20.5815C21.1416 20.0841 21.2594 20.0056 21.8223 20.1103C22.3196 20.215 22.372 20.3721 22.0448 20.7385C21.8484 20.9611 21.8484 20.9741 22.084 20.9741C22.4505 20.9741 22.673 20.7909 22.5945 20.5553C22.5029 20.3197 23.3144 19.8485 23.6285 19.9663C23.9295 20.0841 23.8903 20.3721 23.4976 20.8302C23.2882 21.0919 23.1835 21.3406 23.2228 21.4977C23.2751 21.7202 23.2228 21.7595 22.8301 21.7595C22.5814 21.7595 22.1364 21.8904 21.8484 22.0474C21.4165 22.2961 21.2987 22.3092 21.0631 22.1652C20.8537 22.0343 20.8144 22.0343 20.8537 22.1652C20.8799 22.2568 21.0238 22.3877 21.1678 22.4663C21.2987 22.5448 21.4558 22.6626 21.495 22.728C21.5474 22.7804 21.6914 22.7673 21.8223 22.7019C21.9924 22.6102 22.1495 22.6102 22.3196 22.7019C22.4767 22.7935 22.5945 22.7935 22.6992 22.6888C22.8039 22.5841 22.7777 22.5448 22.6207 22.5448C22.3589 22.5448 22.3327 22.4008 22.5552 22.1783C22.961 21.7726 23.9688 22.3092 23.9688 22.9375C23.9688 23.2123 23.7856 23.2909 23.6416 23.0683C23.6023 22.9898 23.3667 22.9375 23.1311 22.9375C22.7123 22.9375 22.6992 22.9505 22.7777 23.3563C22.8432 23.6442 22.9479 23.8013 23.118 23.8275C23.3275 23.8537 23.3406 23.8406 23.1966 23.749C22.9479 23.5788 23.105 23.1992 23.4191 23.1992C23.5631 23.1992 23.7594 23.2909 23.851 23.4086C23.995 23.5919 23.9819 23.6442 23.7725 23.8013C23.6416 23.906 23.6023 23.9846 23.6809 23.9846C23.9295 23.9846 23.8641 24.4034 23.55 24.7568C23.3798 24.94 23.3536 25.0055 23.4845 24.9139C23.6285 24.7961 23.9165 24.7568 24.2699 24.7961C24.7018 24.8484 24.8458 24.8222 24.8458 24.6913C24.8458 24.5081 24.7803 24.4819 24.296 24.4558C24.1521 24.4427 24.0343 24.351 24.0343 24.2463C24.0343 24.1154 24.139 24.0631 24.4007 24.0893C24.7541 24.1285 24.8981 23.9322 24.5971 23.8144C24.3222 23.7228 24.6625 23.2647 25.0421 23.2254C25.4217 23.1861 25.6573 23.5526 25.3824 23.749C25.2515 23.8406 25.2646 23.8668 25.4086 23.8144C25.5264 23.7882 25.6049 23.6181 25.6049 23.3825C25.6049 23.0814 25.5395 22.9898 25.2908 22.9636C25.1206 22.9375 24.9243 22.9767 24.8458 23.0553C24.4269 23.4741 24.3746 22.9375 24.7672 22.283L25.0421 21.8249L24.7672 22.0736L24.4924 22.3223V21.5239C24.4924 20.7124 24.7018 20.2804 24.7803 20.9349C24.8065 21.2097 24.885 21.2883 25.0683 21.2621C25.2646 21.2228 25.2908 21.2752 25.2253 21.55C25.1599 21.8118 25.1861 21.8642 25.3431 21.8118C25.6049 21.7071 26.1939 22.0998 26.1939 22.3615C26.1939 22.4924 26.1154 22.5448 25.9976 22.4924C25.8929 22.4532 25.8012 22.4663 25.8012 22.5317C25.8012 22.7411 26.2986 22.7804 26.3771 22.5841C26.4426 22.427 26.4819 22.427 26.7305 22.5841C27.1101 22.8589 28.0132 22.5317 28.0263 22.1129C28.0263 22.0474 27.9347 22.0998 27.8169 22.2045C27.542 22.4924 27.4504 22.4663 26.8222 22.0212C26.4819 21.7726 26.1285 21.6286 25.8405 21.6286C25.474 21.6286 25.4086 21.5762 25.4086 21.3275C25.4086 21.1574 25.2646 20.8825 25.0814 20.7124C24.7411 20.3982 24.6625 20.1234 24.8719 19.9925C24.9374 19.9532 25.2777 20.0972 25.6311 20.2935C26.063 20.5553 26.2463 20.7385 26.2201 20.9087C26.1939 21.0396 26.2463 21.1966 26.351 21.249C26.6651 21.4584 26.7305 21.3668 26.5342 20.9872C26.4164 20.7778 26.3771 20.5815 26.4164 20.5291C26.5604 20.3851 27.097 20.4506 27.1887 20.6077C27.2672 20.7255 27.3195 20.6731 27.3719 20.4637C27.4112 20.2804 27.6206 20.0448 27.83 19.927C28.131 19.77 28.2358 19.5998 28.2619 19.2595C28.2881 19.0108 28.3666 18.736 28.4452 18.6574C28.5499 18.5265 28.5237 18.4873 28.3928 18.4873C28.2488 18.4873 28.1703 18.304 28.118 17.859C28.0787 17.5187 28.0656 17.2308 28.0918 17.2046C28.118 17.1784 28.2488 17.2177 28.3928 17.2962C28.6415 17.4271 28.6546 17.4009 28.563 17.0737C28.4844 16.7726 28.3928 16.7203 27.9216 16.6941C27.5159 16.681 27.4112 16.7203 27.4635 16.8643C27.5028 16.9821 27.4373 17.0475 27.2672 17.0475C26.9269 17.0475 26.7698 17.2831 26.9661 17.4794C27.0709 17.5842 27.1101 17.5842 27.1101 17.4664C27.1101 17.2438 27.4504 17.27 27.686 17.5187C27.8693 17.7019 27.9871 18.6182 27.83 18.6182C27.7907 18.6182 27.6468 18.5527 27.5028 18.4611C27.3719 18.3695 27.2017 18.3433 27.1494 18.3957C27.097 18.4611 27.1232 18.5396 27.2017 18.592C27.4112 18.7229 27.1101 19.6653 26.8614 19.6653C26.7698 19.6653 26.7175 19.7438 26.7567 19.8485C26.8876 20.1888 26.5211 20.3459 25.9452 20.1888C25.3039 20.0187 25.2253 19.914 25.4217 19.482C25.5395 19.2333 25.6965 19.1417 26.0499 19.1155C26.4295 19.0894 26.5342 19.0108 26.5604 18.7752C26.5866 18.6182 26.6651 18.4873 26.7436 18.4873C26.8353 18.4873 26.8353 18.4349 26.7436 18.3171C26.6651 18.2255 26.5866 17.9245 26.5604 17.6365C26.5342 17.2046 26.4688 17.0999 26.2332 17.0737C25.9845 17.0344 25.9321 16.9428 25.9321 16.5501C25.9321 15.7648 26.063 15.7125 26.7567 16.1444C27.2934 16.4847 27.3719 16.4978 27.3719 16.2884C27.3719 16.1575 27.5159 15.9088 27.6991 15.7386C27.8954 15.5554 28.0132 15.3067 28.0002 15.1496C27.974 14.9533 28.0263 14.8879 28.2227 14.914C28.4844 14.9271 28.4844 14.9271 28.2358 14.7439C28.0918 14.6392 27.9085 14.5606 27.8169 14.5606C27.7253 14.5606 27.5682 14.4428 27.4635 14.2858C27.3457 14.1156 27.241 14.0764 27.1756 14.1549C27.1363 14.2334 27.0447 14.2989 26.9661 14.2989C26.7829 14.2989 26.8222 13.9586 27.0316 13.7753C27.2803 13.579 27.1756 13.3303 26.7698 13.1471C26.4426 12.99 26.3379 12.5319 26.6258 12.4272C26.7175 12.3748 26.7044 12.3486 26.5735 12.3486C26.2463 12.3356 26.1808 12.9376 26.4688 13.2649C26.652 13.4743 26.6782 13.6052 26.5735 13.7884C26.4688 13.9847 26.5211 14.1025 26.796 14.3643C26.9923 14.5476 27.2017 14.6915 27.2541 14.6915C27.4373 14.6915 27.6337 15.1758 27.5551 15.3983C27.5159 15.5161 27.3588 15.6077 27.2279 15.6077C26.9531 15.6077 26.9138 15.4638 27.1232 15.2544C27.2279 15.1496 27.1756 15.058 26.9531 14.901C26.6651 14.6915 26.652 14.6915 26.6127 15.0318C26.5866 15.2544 26.6782 15.4899 26.8614 15.6863C27.2934 16.1575 27.0578 16.2229 26.4426 15.8041C25.9976 15.5161 25.8798 15.4899 25.7751 15.6339C25.6704 15.7648 25.6573 15.7517 25.7227 15.5685C25.762 15.4507 25.7358 15.346 25.6704 15.346C25.5918 15.346 25.5395 15.1627 25.5395 14.9533C25.5395 14.7308 25.4871 14.5606 25.4086 14.5606C25.3431 14.5606 25.2777 14.325 25.2777 14.0371C25.2777 13.4481 25.2777 13.435 25.8143 13.723C26.0368 13.8277 26.2463 13.9062 26.2724 13.8669C26.2986 13.8408 26.0238 13.6837 25.6704 13.5135C24.9766 13.1863 24.7803 12.8722 24.9243 12.3094C24.9766 12.1523 24.9374 11.9298 24.8458 11.8251C24.7541 11.7204 24.6887 11.367 24.6887 11.0398C24.6887 10.49 24.6625 10.4508 24.3615 10.4508C24.1521 10.4508 24.0473 10.5162 24.0735 10.634C24.1521 10.9743 23.9688 11.4193 23.7332 11.4193C23.5631 11.4193 23.55 11.4455 23.6809 11.5371C23.8772 11.6549 23.7594 12.3356 23.5238 12.4926C23.4191 12.5581 23.4322 12.5973 23.55 12.5973C23.7725 12.5973 23.7463 13.1078 23.5107 13.1994C23.406 13.2518 23.3144 13.3696 23.3144 13.4743C23.3144 13.579 23.2489 13.6183 23.1573 13.5659C23.0264 13.4874 23.0264 13.5135 23.1573 13.6575C23.55 14.0895 23.1835 14.8355 22.6861 14.5737C22.3589 14.4036 22.0186 13.2779 22.2542 13.1209C22.3458 13.0685 22.4243 12.9769 22.4374 12.9115C22.4505 12.846 22.5683 12.7937 22.6861 12.8068C22.8039 12.8068 22.8824 12.7675 22.8432 12.702C22.7123 12.5057 22.3851 12.5973 22.0579 12.9246C21.8746 13.1078 21.7175 13.2518 21.6914 13.2518C21.6783 13.2518 21.6521 12.9638 21.6521 12.5973C21.6521 12.1261 21.7045 11.9036 21.8877 11.7335C22.0317 11.6157 22.1364 11.3408 22.1364 11.1314C22.1364 10.8042 22.0971 10.7649 21.8615 10.8303C21.5997 10.922 21.5997 10.9089 21.8092 10.5948C21.9662 10.3461 21.9924 10.189 21.8877 10.0058C21.8223 9.87487 21.7306 9.60001 21.6914 9.41676C21.6652 9.23352 21.5736 8.97175 21.495 8.84086C21.3642 8.64453 21.3642 8.65762 21.4296 8.94557ZM21.5343 11.5371C21.4165 11.668 21.194 11.3015 21.2987 11.1445C21.3642 11.0267 21.4165 11.0398 21.482 11.2361C21.5343 11.367 21.5605 11.511 21.5343 11.5371ZM24.6233 11.2885C24.6233 11.3539 24.5055 11.4193 24.3615 11.4193C24.2175 11.4193 24.0997 11.3539 24.0997 11.2885C24.0997 11.2099 24.2175 11.1576 24.3615 11.1576C24.5055 11.1576 24.6233 11.2099 24.6233 11.2885ZM16.8354 12.5973C16.8747 12.6628 16.8485 12.7282 16.7831 12.7282C16.7046 12.7282 16.6391 12.6628 16.6391 12.5973C16.6391 12.5188 16.6653 12.4664 16.6915 12.4664C16.7307 12.4664 16.7962 12.5188 16.8354 12.5973ZM24.2699 12.7937C24.3615 13.0031 24.1651 13.1732 23.9688 13.0554C23.8379 12.9769 23.9426 12.5973 24.0997 12.5973C24.1521 12.5973 24.2306 12.689 24.2699 12.7937ZM24.7541 12.9376C24.7541 13.0424 24.7018 13.1209 24.6233 13.1209C24.5578 13.1209 24.4924 13.0031 24.4924 12.846C24.4924 12.702 24.5578 12.6235 24.6233 12.6628C24.7018 12.702 24.7541 12.8329 24.7541 12.9376ZM21.7437 13.8408C21.8746 13.9978 21.8746 14.0371 21.6914 14.0371C21.5081 14.0371 21.5081 14.0764 21.639 14.325C21.7306 14.4952 21.8877 14.6784 21.9793 14.7308C22.1626 14.8486 22.1887 15.4638 22.0055 15.7386C21.9139 15.8826 21.8746 15.8041 21.8746 15.4114V14.8879L21.6783 15.2674C21.5605 15.4769 21.495 15.7255 21.5343 15.8172C21.5736 15.9088 21.5081 16.0528 21.3903 16.1444C21.2333 16.2884 21.1547 16.2622 20.9453 16.0004C20.6312 15.5816 20.6312 15.4507 20.9584 15.0711C21.1809 14.7962 21.2333 14.7832 21.3511 14.9533C21.4558 15.1235 21.482 15.1235 21.482 14.9402C21.482 14.7046 21.1416 14.5083 20.9584 14.6261C20.6966 14.7832 20.7097 14.4036 20.9715 14.0371C21.2987 13.6052 21.495 13.5528 21.7437 13.8408ZM24.2306 14.168C24.2306 14.312 24.1782 14.4298 24.0997 14.4298C24.0343 14.4298 23.9688 14.312 23.9688 14.168C23.9688 14.024 24.0343 13.9062 24.0997 13.9062C24.1782 13.9062 24.2306 14.024 24.2306 14.168ZM24.5709 14.3905C24.4269 14.5345 24.3222 14.312 24.4269 14.0764C24.5316 13.8539 24.5316 13.8539 24.584 14.0764C24.6233 14.2073 24.6102 14.3512 24.5709 14.3905ZM25.0814 14.2858C24.9636 14.4952 24.7541 14.325 24.8458 14.0895C24.8981 13.9586 24.9636 13.9324 25.0421 14.0109C25.1206 14.0895 25.1337 14.2073 25.0814 14.2858ZM17.1627 14.4298C17.1627 14.469 17.0187 14.5214 16.8354 14.5345C16.5344 14.5606 16.3904 14.325 16.5868 14.1287C16.6653 14.0502 17.1627 14.312 17.1627 14.4298ZM23.8379 14.2203C23.8379 14.2596 23.7856 14.325 23.707 14.3643C23.6416 14.4036 23.5762 14.3774 23.5762 14.312C23.5762 14.2334 23.6416 14.168 23.707 14.168C23.7856 14.168 23.8379 14.1942 23.8379 14.2203ZM16.9009 14.8224C16.9009 14.8879 16.8093 14.9533 16.7046 14.9533C16.5998 14.9533 16.5082 14.8879 16.5082 14.8224C16.5082 14.7439 16.5998 14.6915 16.7046 14.6915C16.8093 14.6915 16.9009 14.7439 16.9009 14.8224ZM22.8955 14.8486C23.1311 15.0842 23.0919 15.7386 22.8563 15.7386C22.7516 15.7386 22.6599 15.8303 22.6599 15.9481C22.6599 16.0528 22.6076 16.1051 22.5291 16.0659C22.3589 15.9611 22.3589 16.0789 22.5552 16.38C22.7516 16.6941 22.6076 17.0475 22.2673 17.0475C22.1233 17.0475 22.0055 17.1391 22.0055 17.2438C22.0055 17.3486 21.9531 17.4402 21.9008 17.4402C21.6914 17.4402 21.6259 17.27 21.7437 17.0475C21.8353 16.8643 21.8223 16.825 21.639 16.8381C21.5212 16.8381 21.3642 16.9166 21.2856 17.0082C21.1286 17.1915 20.304 17.27 20.0553 17.126C19.9244 17.0344 19.8982 17.0606 19.9637 17.1653C20.0291 17.2569 20.0291 17.5972 19.9767 17.9245C19.9113 18.3564 19.8589 18.4742 19.7673 18.3433C19.5841 18.0553 19.6233 17.0475 19.8459 16.8381C19.9506 16.7334 20.0029 16.5632 19.9637 16.4585C19.9113 16.3407 19.9637 16.2622 20.0815 16.2622C20.1862 16.2622 20.304 16.3538 20.3563 16.4585C20.461 16.7465 21.2594 16.7072 21.6652 16.38C22.084 16.0528 22.3982 15.4769 22.3982 15.0188C22.3982 14.6654 22.6338 14.5868 22.8955 14.8486ZM20.4348 15.2544C20.4348 15.5685 20.1862 15.8041 20.0291 15.647C19.9244 15.5423 19.9244 15.4376 20.0422 15.2282C20.1862 14.9402 20.4348 14.9664 20.4348 15.2544ZM24.6233 15.4245C24.6233 15.5292 24.5316 15.6077 24.4269 15.6077C24.2306 15.6077 24.1521 15.3329 24.3091 15.1758C24.44 15.058 24.6233 15.202 24.6233 15.4245ZM25.1468 15.4245C25.1468 15.5292 25.0552 15.6077 24.9505 15.6077C24.7541 15.6077 24.6756 15.3329 24.8327 15.1758C24.9636 15.058 25.1468 15.202 25.1468 15.4245ZM16.3773 15.346C16.3773 15.4114 16.3119 15.4769 16.2334 15.4769C16.1679 15.4769 16.1417 15.4114 16.181 15.346C16.2203 15.2674 16.2857 15.2151 16.325 15.2151C16.3512 15.2151 16.3773 15.2674 16.3773 15.346ZM16.8354 15.4899C16.7831 15.5554 16.8224 15.6077 16.8878 15.6077C16.9663 15.6077 17.0318 15.5161 17.0318 15.3983C17.0318 15.2936 17.0972 15.2413 17.1627 15.2805C17.3983 15.4245 17.0449 15.7386 16.6522 15.7386C16.3904 15.7386 16.3512 15.7125 16.5082 15.6077C16.6129 15.5423 16.6522 15.4769 16.5998 15.4769C16.5344 15.4769 16.5344 15.4114 16.5737 15.346C16.626 15.2674 16.7176 15.2413 16.7831 15.2936C16.8485 15.3329 16.8747 15.4245 16.8354 15.4899ZM23.4453 15.4245C23.4453 15.5292 23.3929 15.5816 23.3144 15.5423C23.2489 15.503 23.1835 15.4114 23.1835 15.3329C23.1835 15.2674 23.2489 15.2151 23.3144 15.2151C23.3929 15.2151 23.4453 15.3067 23.4453 15.4245ZM24.0997 15.4114C24.0997 15.5161 23.9819 15.6077 23.8379 15.6077C23.694 15.6077 23.5762 15.5161 23.5762 15.4114C23.5762 15.3067 23.694 15.2151 23.8379 15.2151C23.9819 15.2151 24.0997 15.3067 24.0997 15.4114ZM20.8275 16.0004C20.9715 16.2753 20.906 16.524 20.6704 16.524C20.605 16.524 20.5788 16.4323 20.6181 16.3276C20.6574 16.2098 20.605 16.092 20.5003 16.0528C20.3956 16.0004 20.3432 15.9219 20.3825 15.8564C20.5003 15.6601 20.6835 15.7255 20.8275 16.0004ZM16.325 16.3538C16.1941 16.4847 16.0763 16.2884 16.1941 16.1182C16.2726 15.9742 16.2988 15.9742 16.3512 16.1182C16.3773 16.2098 16.3642 16.3145 16.325 16.3538ZM17.2674 16.2491C17.3197 16.4062 17.2281 16.4193 16.8093 16.3145C16.6391 16.2622 16.5082 16.1837 16.5082 16.1313C16.5082 15.9611 17.2019 16.0659 17.2674 16.2491ZM16.8747 16.681C16.7962 16.9166 16.5082 16.9559 16.5082 16.7334C16.5082 16.6156 16.5998 16.524 16.7176 16.524C16.8354 16.524 16.9009 16.5894 16.8747 16.681ZM23.4453 16.7203C23.4453 16.825 23.3929 16.9166 23.3144 16.9166C23.2489 16.9166 23.1835 16.825 23.1835 16.7203C23.1835 16.6156 23.2489 16.524 23.3144 16.524C23.3929 16.524 23.4453 16.6156 23.4453 16.7203ZM23.9688 16.7072C23.9688 16.8119 23.9165 16.9428 23.8379 16.9821C23.7725 17.0213 23.707 16.9428 23.707 16.7988C23.707 16.6418 23.7725 16.524 23.8379 16.524C23.9165 16.524 23.9688 16.6025 23.9688 16.7072ZM24.4924 16.7203C24.4924 16.825 24.44 16.9166 24.3615 16.9166C24.296 16.9166 24.2306 16.825 24.2306 16.7203C24.2306 16.6156 24.296 16.524 24.3615 16.524C24.44 16.524 24.4924 16.6156 24.4924 16.7203ZM25.0159 16.7988C25.0159 16.8643 24.9636 16.9166 24.885 16.9166C24.8196 16.9166 24.7541 16.825 24.7541 16.7072C24.7541 16.6025 24.8196 16.5501 24.885 16.5894C24.9636 16.6287 25.0159 16.7203 25.0159 16.7988ZM25.5395 16.7988C25.5395 16.8643 25.4478 16.9166 25.3431 16.9166C25.1468 16.9166 25.0814 16.7596 25.2253 16.6156C25.33 16.5109 25.5395 16.6287 25.5395 16.7988ZM15.7229 17.3093C15.7229 17.3747 15.6705 17.4402 15.592 17.4402C15.5266 17.4402 15.4611 17.3747 15.4611 17.3093C15.4611 17.2308 15.5266 17.1784 15.592 17.1784C15.6705 17.1784 15.7229 17.2308 15.7229 17.3093ZM16.2464 17.2831C16.2464 17.4533 16.0894 17.5711 15.9585 17.4925C15.8276 17.414 15.9454 17.1784 16.1286 17.1784C16.1941 17.1784 16.2464 17.2308 16.2464 17.2831ZM16.8747 17.3224C16.8485 17.4009 16.77 17.4533 16.7046 17.4533C16.6391 17.4533 16.5606 17.4009 16.5344 17.3224C16.5082 17.2438 16.5868 17.1784 16.7046 17.1784C16.8224 17.1784 16.9009 17.2438 16.8747 17.3224ZM17.4244 17.3747C17.4244 17.4794 17.3721 17.5711 17.2935 17.5711C17.2281 17.5711 17.1627 17.4794 17.1627 17.3747C17.1627 17.27 17.2281 17.1784 17.2935 17.1784C17.3721 17.1784 17.4244 17.27 17.4244 17.3747ZM21.7568 17.5187C21.8615 17.6365 21.9662 18.0423 22.0055 18.4087C22.0709 19.0501 22.084 19.0763 22.4898 19.1155C23.0526 19.1679 23.3406 19.626 22.9741 19.8878C22.6599 20.1103 22.1233 20.1103 21.7961 19.8616C21.5867 19.6914 21.5736 19.6522 21.7437 19.5344C21.9139 19.4297 21.9139 19.4035 21.7306 19.4035C21.6128 19.4035 21.482 19.5344 21.4427 19.6914C21.338 20.0579 21.2202 19.9401 20.9453 19.1941C20.749 18.6967 20.749 18.6051 20.906 18.6705C21.0108 18.7098 21.0893 18.6836 21.0893 18.6051C21.0893 18.5265 20.9846 18.4349 20.8406 18.3957C20.7097 18.3695 20.5265 18.1862 20.4479 18.0161C20.2516 17.5842 20.2647 17.5711 20.5657 17.5711C20.7097 17.5711 20.8275 17.6627 20.8275 17.7674C20.8275 17.9375 20.8799 17.9506 21.0893 17.8328C21.2333 17.7543 21.3511 17.6103 21.3511 17.5056C21.3511 17.2438 21.5343 17.2569 21.7568 17.5187ZM22.7254 17.8328C22.7777 17.9114 22.8563 17.9375 22.9217 17.8983C23.1311 17.7674 23.694 17.9768 23.7463 18.1993C23.7987 18.3826 23.8248 18.3564 23.9034 18.1208C24.0212 17.7805 23.9295 17.8067 25.1206 17.7674C25.9452 17.7543 26.063 17.7805 26.063 17.9899C26.063 18.1208 26.1546 18.2255 26.2593 18.2255C26.3771 18.2255 26.4557 18.3433 26.4557 18.5527V18.8799H24.3615H22.2673L22.1887 18.5658C22.0579 18.0553 22.4898 17.4664 22.7254 17.8328ZM15.1993 18.0684C15.1993 18.1339 15.1077 18.1862 15.003 18.1862C14.8983 18.1862 14.8067 18.1339 14.8067 18.0684C14.8067 18.0161 14.8983 17.9637 15.003 17.9637C15.1077 17.9637 15.1993 18.0161 15.1993 18.0684ZM18.537 18.0815C18.5762 18.1601 18.4846 18.1993 18.3406 18.1862C18.1967 18.1731 18.0789 18.1208 18.0789 18.0684C18.0789 17.9245 18.4454 17.9375 18.537 18.0815ZM20.3694 18.0946C20.4741 18.2517 20.304 18.8799 20.16 18.8799C20.0945 18.8799 20.0422 18.6705 20.0422 18.4218C20.0422 17.9899 20.1993 17.8197 20.3694 18.0946ZM16.8747 18.2386C16.8485 18.3171 16.77 18.3695 16.7046 18.3695C16.6391 18.3695 16.5606 18.3171 16.5344 18.2386C16.5082 18.1601 16.5868 18.0946 16.7046 18.0946C16.8224 18.0946 16.9009 18.1601 16.8747 18.2386ZM20.8275 19.3904C20.8144 19.5606 20.7752 19.5475 20.6312 19.3511C20.5265 19.2072 20.4348 18.9977 20.4348 18.893C20.4479 18.7229 20.4872 18.736 20.6312 18.9323C20.7359 19.0763 20.8275 19.2857 20.8275 19.3904ZM15.1601 19.2072C15.2517 19.4166 15.2648 19.5606 15.1732 19.6129C15.1077 19.6522 15.0423 19.6653 15.0292 19.6522C15.0161 19.626 14.9376 19.4689 14.8459 19.325C14.702 19.0632 14.7412 18.8799 14.9245 18.8799C14.9637 18.8799 15.0685 19.0239 15.1601 19.2072ZM15.592 19.0632C15.592 19.1679 15.6836 19.2857 15.8014 19.325C15.9061 19.3642 15.9585 19.4558 15.9192 19.5344C15.8014 19.7307 15.592 19.6914 15.592 19.482C15.592 19.3773 15.5004 19.2595 15.3826 19.2202C15.2779 19.181 15.2255 19.0894 15.2648 19.0108C15.3826 18.8145 15.592 18.8538 15.592 19.0632ZM16.2464 18.9846C16.2464 19.1548 16.0894 19.2726 15.9585 19.1941C15.8276 19.1155 15.9454 18.8799 16.1286 18.8799C16.1941 18.8799 16.2464 18.9323 16.2464 18.9846ZM16.77 19.0108C16.77 19.0763 16.7176 19.1417 16.6391 19.1417C16.5737 19.1417 16.5082 19.0763 16.5082 19.0108C16.5082 18.9323 16.5737 18.8799 16.6391 18.8799C16.7176 18.8799 16.77 18.9323 16.77 19.0108ZM17.3983 19.0239C17.3721 19.1024 17.2935 19.1548 17.2281 19.1548C17.1627 19.1548 17.0841 19.1024 17.0579 19.0239C17.0318 18.9454 17.1103 18.8799 17.2281 18.8799C17.3459 18.8799 17.4244 18.9454 17.3983 19.0239ZM18.0527 19.1155C18.0789 19.2072 18.0134 19.2726 17.8956 19.2726C17.7778 19.2726 17.6862 19.181 17.6862 19.0632C17.6862 18.8407 17.9742 18.8799 18.0527 19.1155ZM18.6024 19.0894C18.6024 19.3119 18.3145 19.2726 18.2359 19.037C18.2098 18.9454 18.2752 18.8799 18.393 18.8799C18.5108 18.8799 18.6024 18.9716 18.6024 19.0894ZM23.6809 19.2988C23.5892 19.5475 23.1835 19.5867 23.1835 19.3511C23.1835 19.2202 23.3013 19.1417 23.4584 19.1417C23.6154 19.1417 23.707 19.2072 23.6809 19.2988ZM25.3824 19.2988C25.3431 19.3904 25.2384 19.4689 25.1468 19.4689C25.0552 19.4689 24.9505 19.3904 24.9243 19.2988C24.885 19.2072 24.9766 19.1417 25.1468 19.1417C25.317 19.1417 25.4086 19.2072 25.3824 19.2988ZM14.5449 19.3773C14.5449 19.5475 14.3878 19.6653 14.257 19.5867C14.1261 19.5082 14.2439 19.2726 14.4271 19.2726C14.4926 19.2726 14.5449 19.325 14.5449 19.3773ZM17.071 19.4689C17.0841 19.5475 16.9271 19.5998 16.7046 19.6129C16.2464 19.626 16.0894 19.5606 16.181 19.3904C16.2857 19.2333 17.0318 19.2988 17.071 19.4689ZM17.7517 19.3904C17.8433 19.5475 17.5946 19.7045 17.4244 19.5998C17.2805 19.5082 17.3721 19.2726 17.5553 19.2726C17.6208 19.2726 17.6993 19.325 17.7517 19.3904ZM18.3406 19.4689C18.3406 19.5736 18.2883 19.6653 18.2228 19.6653C18.0527 19.6653 17.9349 19.4558 18.0396 19.3511C18.1836 19.2072 18.3406 19.2726 18.3406 19.4689ZM19.0082 19.4428C18.9951 19.5998 18.8118 19.5606 18.7595 19.3904C18.7202 19.3119 18.7726 19.2595 18.8642 19.2857C18.9427 19.325 19.0082 19.3904 19.0082 19.4428ZM24.0997 19.5998C24.0997 19.7962 24.0212 19.927 23.9165 19.927C23.6285 19.927 23.5238 19.6784 23.707 19.4689C23.9426 19.181 24.0997 19.2333 24.0997 19.5998ZM24.3877 21.8511C24.3615 22.9113 24.296 23.7228 24.2175 23.7228C24.1521 23.7228 24.0997 23.461 24.0997 23.1338C24.0997 22.6626 24.0343 22.4663 23.7725 22.2437C23.6023 22.0867 23.4191 21.7856 23.3667 21.5893C23.2882 21.249 23.3013 21.2228 23.6547 21.2752C23.9165 21.3014 24.0604 21.4192 24.1128 21.6417C24.1651 21.8118 24.2175 21.3406 24.2306 20.5815C24.2437 19.7831 24.296 19.3773 24.3484 19.5998C24.3877 19.8092 24.4138 20.8302 24.3877 21.8511ZM24.8196 19.5736C24.8196 19.914 24.5578 19.9009 24.5185 19.5475C24.4793 19.338 24.5316 19.2595 24.6494 19.2988C24.7411 19.338 24.8196 19.4558 24.8196 19.5736ZM27.8693 19.5736C27.8954 19.7307 27.83 19.7962 27.6468 19.7962C27.4504 19.7962 27.3719 19.7176 27.3719 19.5213C27.3719 19.1941 27.8038 19.2333 27.8693 19.5736ZM19.0474 20.1757C18.982 20.215 18.8904 20.3066 18.8511 20.359C18.7988 20.4113 18.7333 20.3721 18.681 20.2543C18.6417 20.1365 18.6548 20.0841 18.7333 20.1234C18.8118 20.1626 18.8642 20.1365 18.8642 20.0579C18.8642 19.9794 18.9296 19.9532 19.0082 20.0056C19.0867 20.0448 19.0998 20.1234 19.0474 20.1757ZM20.1731 20.1888C20.1731 20.2543 20.1207 20.3197 20.0422 20.3197C19.9767 20.3197 19.9113 20.2543 19.9113 20.1888C19.9113 20.1103 19.9767 20.0579 20.0422 20.0579C20.1207 20.0579 20.1731 20.1103 20.1731 20.1888ZM16.3773 20.3197C16.3773 20.3851 16.3512 20.4506 16.325 20.4506C16.2857 20.4506 16.2203 20.3851 16.181 20.3197C16.1417 20.2412 16.1679 20.1888 16.2334 20.1888C16.3119 20.1888 16.3773 20.2412 16.3773 20.3197ZM17.0972 20.3197C17.1365 20.3851 17.1103 20.4506 17.0449 20.4506C16.9663 20.4506 16.9009 20.3851 16.9009 20.3197C16.9009 20.2412 16.9271 20.1888 16.9532 20.1888C16.9925 20.1888 17.0579 20.2412 17.0972 20.3197ZM15.3695 20.804C15.2779 20.8302 15.0946 20.8302 14.9768 20.804C14.8459 20.7647 14.9245 20.7385 15.1339 20.7385C15.3564 20.7385 15.448 20.7647 15.3695 20.804ZM18.1705 20.7909C18.1312 20.8302 18.0134 20.8433 17.9218 20.804C17.8171 20.7647 17.8564 20.7255 18.0003 20.7255C18.1443 20.7124 18.2228 20.7516 18.1705 20.7909ZM16.181 21.105C16.2203 21.1705 16.1941 21.2359 16.1286 21.2359C16.0501 21.2359 15.9847 21.1705 15.9847 21.105C15.9847 21.0265 16.0108 20.9741 16.037 20.9741C16.0763 20.9741 16.1417 21.0265 16.181 21.105ZM17.5161 21.1836C17.4768 21.2228 17.359 21.2359 17.2674 21.1966C17.1627 21.1574 17.2019 21.1181 17.3459 21.1181C17.4899 21.105 17.5684 21.1443 17.5161 21.1836ZM13.1837 21.7856C13.236 21.8642 13.2099 21.9689 13.1313 21.9951C13.0397 22.0212 13.0004 22.0998 13.0528 22.1652C13.0921 22.2307 13.0659 22.283 13.0135 22.283C12.8565 22.283 12.5816 21.7987 12.6732 21.7071C12.8041 21.5762 13.079 21.6155 13.1837 21.7856ZM13.6549 21.8249C13.6549 21.8904 13.5894 21.9689 13.5109 21.9951C13.4324 22.0212 13.3669 21.9427 13.3669 21.8249C13.3669 21.7071 13.4324 21.6286 13.5109 21.6548C13.5894 21.6809 13.6549 21.7595 13.6549 21.8249ZM19.872 21.9689C19.7542 22.0867 19.5055 21.8904 19.5972 21.7333C19.6495 21.6548 19.7281 21.6548 19.8197 21.7464C19.8982 21.8249 19.9244 21.9165 19.872 21.9689ZM20.5657 21.7856C20.5657 21.9951 20.3432 22.3615 20.2647 22.283C20.2254 22.2437 20.16 22.0867 20.1207 21.9165C20.0422 21.6809 20.0815 21.6286 20.2909 21.6286C20.4479 21.6286 20.5657 21.7071 20.5657 21.7856ZM14.8983 22.0474C14.859 22.1521 14.8198 22.1129 14.8198 21.9689C14.8067 21.8249 14.8459 21.7464 14.8852 21.7987C14.9245 21.838 14.9376 21.9558 14.8983 22.0474ZM14.2177 22.1652C14.2177 22.2699 14.2962 22.3485 14.4009 22.3485C14.5056 22.3485 14.6104 22.427 14.6496 22.5186C14.6889 22.6364 14.6104 22.6495 14.3355 22.5448C14.0214 22.427 14.0083 22.427 14.1522 22.6102C14.2831 22.7673 14.2831 22.8066 14.1392 22.8066C14.0344 22.8066 13.8643 22.7411 13.7596 22.6757C13.6025 22.571 13.5894 22.5317 13.7465 22.427C13.8905 22.3354 13.8905 22.3092 13.7465 22.2437C13.6156 22.1914 13.6418 22.1652 13.7988 22.1652C13.9428 22.1521 13.9952 22.0867 13.9428 22.0082C13.8905 21.9165 13.9297 21.8773 14.0344 21.9165C14.1392 21.9558 14.2177 22.0605 14.2177 22.1652ZM20.0945 22.872C19.872 23.2123 19.7542 23.2647 19.6103 23.1076C19.4925 22.9898 19.7804 22.6626 19.9244 22.7542C19.9898 22.7935 20.0422 22.7542 20.0422 22.6888C20.0422 22.6102 20.1076 22.5448 20.1731 22.5448C20.2516 22.5448 20.2123 22.6888 20.0945 22.872ZM12.5161 24.5081C12.5554 24.5866 12.5554 24.7699 12.5161 24.9139C12.4376 25.1495 12.3983 25.1625 12.2413 25.0055C12.1366 24.9008 12.0842 24.7175 12.1366 24.5997C12.2282 24.351 12.3983 24.3118 12.5161 24.5081ZM11.9272 24.7699C11.9272 24.8353 11.8748 24.9008 11.7963 24.9008C11.7308 24.9008 11.6654 24.8353 11.6654 24.7699C11.6654 24.6913 11.7308 24.639 11.7963 24.639C11.8748 24.639 11.9272 24.6913 11.9272 24.7699ZM20.3694 25.1625C20.4087 25.228 20.3956 25.2934 20.3171 25.2934C20.2516 25.2934 20.1469 25.228 20.1076 25.1625C20.0684 25.084 20.0815 25.0317 20.16 25.0317C20.2254 25.0317 20.3301 25.084 20.3694 25.1625ZM12.2413 25.4112C12.2806 25.4767 12.2282 25.5552 12.1235 25.6076C12.0057 25.6468 11.9272 25.6076 11.9272 25.4898C11.9272 25.2803 12.1366 25.228 12.2413 25.4112ZM21.2202 25.4112C21.2202 25.4767 21.1286 25.5552 21.0238 25.6076C20.8275 25.673 20.7621 25.5421 20.9191 25.3851C21.0369 25.2542 21.2202 25.2673 21.2202 25.4112ZM13.3669 25.6076C13.3669 25.7123 13.3146 25.8432 13.236 25.8824C13.1706 25.9217 13.1051 25.8432 13.1051 25.6992C13.1051 25.5421 13.1706 25.4243 13.236 25.4243C13.3146 25.4243 13.3669 25.5029 13.3669 25.6076ZM14.2831 25.5552C14.2831 25.6207 14.1915 25.6861 14.0868 25.6861C13.9821 25.6861 13.8905 25.6207 13.8905 25.5552C13.8905 25.4767 13.9821 25.4243 14.0868 25.4243C14.1915 25.4243 14.2831 25.4767 14.2831 25.5552ZM19.2569 25.5552C19.2569 25.6207 19.1652 25.6861 19.0605 25.6861C18.9558 25.6861 18.8642 25.6207 18.8642 25.5552C18.8642 25.4767 18.9558 25.4243 19.0605 25.4243C19.1652 25.4243 19.2569 25.4767 19.2569 25.5552ZM13.7334 25.9479C13.7203 26.262 13.668 26.3405 13.4193 26.3405C13.1182 26.3405 13.1182 26.3405 13.3407 25.9479C13.6287 25.4505 13.7465 25.4505 13.7334 25.9479ZM19.6495 25.7515C19.6495 25.8562 19.5972 25.9479 19.5186 25.9479C19.4532 25.9479 19.3877 25.8562 19.3877 25.7515C19.3877 25.6468 19.4532 25.5552 19.5186 25.5552C19.5972 25.5552 19.6495 25.6468 19.6495 25.7515ZM20.0422 25.673C20.0422 25.7515 19.9898 25.8432 19.9113 25.8824C19.8459 25.9217 19.7804 25.8693 19.7804 25.7646C19.7804 25.6468 19.8459 25.5552 19.9113 25.5552C19.9898 25.5552 20.0422 25.6076 20.0422 25.673ZM12.7125 26.0657C12.7125 26.2882 12.7779 26.4976 12.8434 26.5369C12.9219 26.5761 12.9743 26.6808 12.9743 26.7594C12.9743 26.8379 12.8565 26.7986 12.7125 26.6678C12.4376 26.4191 12.346 25.6861 12.5816 25.6861C12.6601 25.6861 12.7125 25.8562 12.7125 26.0657ZM20.6966 26.1311C20.6966 26.3013 20.5788 26.5369 20.4348 26.6678C20.2909 26.7986 20.1731 26.8379 20.1731 26.7594C20.1731 26.6808 20.2385 26.5761 20.304 26.5369C20.3825 26.4976 20.4348 26.2751 20.4348 26.0657C20.4348 25.8301 20.4872 25.6992 20.5657 25.7515C20.6443 25.7908 20.6966 25.961 20.6966 26.1311ZM19.2569 26.0788C19.2569 26.1442 19.2045 26.2096 19.126 26.2096C19.0605 26.2096 18.9951 26.1442 18.9951 26.0788C18.9951 26.0002 19.0605 25.9479 19.126 25.9479C19.2045 25.9479 19.2569 26.0002 19.2569 26.0788ZM19.9767 26.2096C20.016 26.2751 19.9767 26.3405 19.8851 26.3405C19.7673 26.3405 19.7673 26.3798 19.9113 26.4714C20.0684 26.563 20.0684 26.6285 19.9375 26.7594C19.8066 26.8903 19.7542 26.8641 19.7019 26.6285C19.6495 26.4714 19.5579 26.3405 19.4925 26.3405C19.427 26.3405 19.4139 26.2751 19.4532 26.2096C19.4925 26.1311 19.6103 26.0788 19.715 26.0788C19.8197 26.0788 19.9375 26.1311 19.9767 26.2096ZM13.4716 26.6154C13.4455 26.6939 13.3669 26.7463 13.3015 26.7463C13.236 26.7463 13.1575 26.6939 13.1313 26.6154C13.1051 26.5369 13.1837 26.4714 13.3015 26.4714C13.4193 26.4714 13.4978 26.5369 13.4716 26.6154ZM13.9952 26.7725C14.0214 26.9164 13.9821 26.9688 13.8512 26.9295C13.6418 26.8379 13.6025 26.4452 13.8119 26.5107C13.8905 26.5369 13.969 26.6547 13.9952 26.7725ZM19.2176 26.8903C19.1783 26.995 19.1391 26.9557 19.1391 26.8117C19.126 26.6678 19.1652 26.5892 19.2045 26.6416C19.2438 26.6808 19.2569 26.7986 19.2176 26.8903Z" fill="white"/>
<path d="M22.4112 18.3826C22.4112 18.749 22.4374 18.7752 22.529 18.5527C22.6861 18.1862 22.6861 17.9637 22.529 17.9637C22.4636 17.9637 22.3981 18.1601 22.4112 18.3826Z" fill="white"/>
<path d="M23.0525 18.3433C23.0525 18.6705 23.131 18.6967 23.2226 18.4218C23.275 18.3171 23.2488 18.1993 23.1834 18.16C23.1048 18.1077 23.0525 18.1993 23.0525 18.3433Z" fill="white"/>
<path d="M24.3876 18.3564C24.3876 18.5396 24.4138 18.6051 24.453 18.5134C24.4792 18.4349 24.4792 18.2779 24.453 18.1862C24.4138 18.1077 24.3876 18.1731 24.3876 18.3564Z" fill="white"/>
<path d="M25.4086 18.2255C25.4086 18.2909 25.474 18.3564 25.5395 18.3564C25.618 18.3564 25.6703 18.2909 25.6703 18.2255C25.6703 18.147 25.618 18.0946 25.5395 18.0946C25.474 18.0946 25.4086 18.147 25.4086 18.2255Z" fill="white"/>
<path d="M24.885 18.3694C24.885 18.4349 24.9505 18.4611 25.0159 18.4218C25.0944 18.3825 25.1468 18.3171 25.1468 18.2778C25.1468 18.2516 25.0944 18.2255 25.0159 18.2255C24.9505 18.2255 24.885 18.2909 24.885 18.3694Z" fill="white"/>
<path d="M27.7121 9.53457C27.4372 9.94032 27.2409 10.2937 27.2801 10.333C27.3718 10.4115 28.8377 10.0974 29.0079 9.95341C29.0733 9.90106 28.9817 9.8487 28.7723 9.8487C28.3534 9.8487 28.0524 9.40368 28.288 9.12882C28.3665 9.0372 28.3796 8.9194 28.3273 8.89322C28.2618 8.85395 27.9869 9.14191 27.7121 9.53457ZM28.1571 9.8487C28.1571 9.91414 28.1309 9.97959 28.1047 9.97959C28.0786 9.97959 27.9477 10.0189 27.843 10.0581C27.6859 10.1236 27.6466 10.0843 27.7121 9.92723C27.8037 9.70472 28.1571 9.63928 28.1571 9.8487Z" fill="white"/>
<path d="M9.17847 9.50839C9.17847 9.6131 9.1392 9.78325 9.09993 9.90105C9.06067 10.0189 9.07376 10.1105 9.15229 10.1105C9.32244 10.1105 9.44024 9.46912 9.29626 9.3775C9.23082 9.33824 9.17847 9.39059 9.17847 9.50839Z" fill="white"/>
<path d="M18.105 9.71777C18.105 9.90102 18.1312 9.96646 18.1704 9.87484C18.1966 9.79631 18.1966 9.63924 18.1704 9.54762C18.1312 9.46909 18.105 9.53453 18.105 9.71777Z" fill="white"/>
<path d="M8.36692 9.67855C8.44545 9.70473 8.60252 9.70473 8.69414 9.67855C8.77267 9.63928 8.70723 9.6131 8.52399 9.6131C8.34074 9.6131 8.2753 9.63928 8.36692 9.67855Z" fill="white"/>
<path d="M16.639 9.8487C16.639 9.99267 16.6652 10.1105 16.7045 10.1105C16.7307 10.1105 16.8223 9.99267 16.9008 9.8487C17.0186 9.63928 17.0055 9.58692 16.8354 9.58692C16.7307 9.58692 16.639 9.70472 16.639 9.8487Z" fill="white"/>
<path d="M24.3222 9.77016C24.2698 9.90104 24.2568 10.045 24.296 10.0843C24.4138 10.2021 24.5185 10.0058 24.4662 9.75707C24.4269 9.53456 24.4138 9.53456 24.3222 9.77016Z" fill="white"/>
<path d="M15.3302 9.86175C15.3302 9.9272 15.3956 9.95337 15.4611 9.91411C15.5396 9.87484 15.592 9.8094 15.592 9.77013C15.592 9.74395 15.5396 9.71778 15.4611 9.71778C15.3956 9.71778 15.3302 9.78322 15.3302 9.86175Z" fill="white"/>
<path d="M3.68111 10.3461C3.68111 10.4115 3.91671 10.5686 4.21775 10.6995C4.66277 10.9089 4.71513 10.9612 4.5188 11.0398C4.37482 11.0921 4.0476 11.1445 3.78583 11.1445C3.51096 11.1576 3.28845 11.2099 3.28845 11.2885C3.28845 11.3932 4.46644 12.0738 4.66277 12.0738C4.88528 12.0738 4.66277 11.8251 4.24393 11.6157L3.74656 11.3539L4.45335 11.2885C4.84601 11.2492 5.18632 11.1576 5.2125 11.0921C5.23868 11.0136 4.92455 10.7911 4.53188 10.5948C3.73347 10.2021 3.68111 10.189 3.68111 10.3461Z" fill="white"/>
<path d="M15.8407 10.5162C15.9977 10.6733 16.1679 10.7518 16.2071 10.7125C16.2595 10.6733 16.181 10.5424 16.037 10.4377C15.6574 10.1497 15.5003 10.2021 15.8407 10.5162Z" fill="white"/>
<path d="M17.503 10.4377C17.359 10.5424 17.2804 10.6733 17.3328 10.7125C17.3721 10.7518 17.5422 10.6733 17.6993 10.5162C18.0396 10.2021 17.8825 10.1497 17.503 10.4377Z" fill="white"/>
<path d="M8.90356 10.4246C8.89047 10.4377 8.86429 10.7256 8.83811 11.0921C8.79885 11.4455 8.72031 11.7989 8.65487 11.8644C8.57634 11.9429 8.52398 12.257 8.52398 12.5712C8.52398 12.9246 8.44545 13.2125 8.34074 13.3041C8.20985 13.3958 8.17059 13.579 8.22294 13.8146C8.28838 14.1418 8.31456 14.1549 8.45854 13.9586C8.66796 13.6706 9.04753 13.8146 9.04753 14.168C9.04753 14.312 8.99518 14.4298 8.91665 14.4298C8.8512 14.4298 8.78576 14.3643 8.78576 14.2858C8.78576 14.1811 8.7334 14.168 8.6156 14.2858C8.51089 14.3643 8.39309 14.3905 8.35383 14.3512C8.19676 14.1811 7.88263 14.6785 7.84337 15.1496C7.81719 15.6732 7.64704 15.8695 7.46379 15.5947C7.3329 15.3852 7.31982 15.4507 7.34599 16.3538C7.35908 16.969 7.3329 17.0344 7.05804 17.0737C6.78318 17.113 6.757 17.1784 6.71773 18.0554L6.67847 19.0108H7.13657C7.38526 19.0108 7.62086 19.0632 7.66012 19.1286C7.69939 19.181 7.88263 19.2072 8.06588 19.1679C8.28838 19.1286 8.39309 19.1679 8.39309 19.2857C8.39309 19.4297 8.41927 19.4297 8.52398 19.2726C8.62869 19.1155 8.66796 19.1286 8.74649 19.4035L8.83811 19.7307L8.92973 19.4035C8.98209 19.2203 9.02136 20.1234 9.03444 21.393C9.04753 22.872 8.99518 23.7228 8.91665 23.7228C8.8512 23.7228 8.78576 23.5788 8.78576 23.3956C8.78576 23.2123 8.74649 23.0814 8.69414 23.0945C8.62869 23.0945 8.48472 23.0683 8.36692 23.016C8.01352 22.8589 7.5685 22.9767 7.52924 23.2516C7.47688 23.605 7.60777 23.8537 7.85646 23.8537C8.02661 23.8537 8.02661 23.8275 7.88263 23.7359C7.5685 23.5395 7.81719 23.1731 8.22294 23.2254C8.48472 23.2516 8.60251 23.3432 8.62869 23.5526C8.65487 23.7228 8.60251 23.8537 8.51089 23.8537C8.40618 23.8537 8.40618 23.906 8.52398 24.05C8.64178 24.194 8.7334 24.2071 8.8512 24.1154C8.969 24.0107 9.04753 24.0107 9.11298 24.1154C9.23078 24.3118 9.0868 24.4427 8.74649 24.4427C8.60251 24.4427 8.45854 24.5081 8.43236 24.5866C8.40618 24.6783 8.60251 24.7437 8.98209 24.7437C9.30931 24.7568 9.57108 24.7044 9.57108 24.639C9.57108 24.5605 9.51873 24.5081 9.4402 24.5081C9.37475 24.5081 9.30931 24.3903 9.30931 24.2463C9.30931 24.1024 9.37475 23.9846 9.46637 23.9846C9.58417 23.9846 9.58417 23.9453 9.46637 23.8275C9.37475 23.7359 9.30931 23.5919 9.30931 23.5134C9.30931 23.2647 9.81977 23.16 10.0423 23.3432C10.2255 23.5003 10.2255 23.5265 10.0292 23.6704C9.84595 23.8144 9.8983 23.8275 10.3695 23.7751C11.6653 23.6443 11.7962 23.605 11.469 23.3301C11.3381 23.2254 11.2726 23.2123 11.2726 23.317C11.2726 23.3956 11.0632 23.461 10.8014 23.461C10.3957 23.461 10.3433 23.4217 10.4219 23.1992C10.5004 22.9767 10.448 22.9375 10.0423 22.9375C9.79359 22.9375 9.54491 22.9898 9.50564 23.0683C9.30931 23.3825 9.21769 23.1338 9.2046 22.2045C9.17842 21.3668 9.2046 21.2228 9.36166 21.2752C9.47946 21.3275 9.59726 21.2883 9.64962 21.2097C9.70197 21.1181 9.76741 21.1312 9.84595 21.249C9.93757 21.393 9.96375 21.393 9.96375 21.2228C9.96375 21.1181 9.81977 20.8825 9.62344 20.6993C9.38784 20.4768 9.3224 20.4506 9.38784 20.6207C9.42711 20.7516 9.40093 20.8433 9.30931 20.8433C9.23078 20.8433 9.17842 20.6993 9.2046 20.4768C9.23078 20.2019 9.33549 20.0972 9.6627 20.0056C10.0946 19.8747 10.3957 19.3904 9.96375 19.4951C9.84595 19.5344 9.70197 19.4689 9.6627 19.3642C9.61035 19.2072 9.76741 19.1548 10.4349 19.0763L11.2726 18.9847V18.0161C11.2726 17.1391 11.2464 17.0475 11.0108 17.0475C10.7229 17.0475 10.6967 16.969 10.736 16.2491C10.7752 15.7256 10.592 15.6078 9.74124 15.6078C9.45328 15.6078 9.30931 15.5423 9.30931 15.4245C9.30931 15.1496 9.58417 15.0188 9.71506 15.2282C9.80668 15.3722 9.83286 15.346 9.83286 15.1496C9.83286 14.9533 9.87212 14.9402 9.98992 15.058C10.2386 15.3067 10.3564 15.2413 10.3564 14.8879C10.3564 14.7046 10.3041 14.5607 10.2255 14.5607C10.1601 14.5607 10.0946 14.2727 10.0946 13.9193C10.0946 13.4481 10.0423 13.2518 9.88521 13.1994C9.75433 13.1471 9.70197 13.0162 9.74124 12.8591C9.7805 12.7282 9.71506 12.2178 9.62344 11.7335C9.51873 11.2492 9.45328 10.7649 9.46637 10.6602C9.49255 10.5424 9.38784 10.4508 9.21769 10.4377C9.04753 10.4246 8.91665 10.4246 8.90356 10.4246ZM9.30931 11.2885C9.30931 11.3539 9.21769 11.4193 9.11298 11.4193C9.00827 11.4193 8.91665 11.3539 8.91665 11.2885C8.91665 11.2099 9.00827 11.1576 9.11298 11.1576C9.21769 11.1576 9.30931 11.2099 9.30931 11.2885ZM9.57108 12.8722C9.57108 13.0031 9.47946 13.1209 9.37475 13.1209C9.17842 13.1209 9.09989 12.7151 9.25695 12.5581C9.40093 12.4272 9.57108 12.5973 9.57108 12.8722ZM9.04753 12.9376C9.04753 13.0424 8.95591 13.1209 8.8512 13.1209C8.65487 13.1209 8.57634 12.846 8.7334 12.689C8.86429 12.5712 9.04753 12.7151 9.04753 12.9376ZM9.4402 14.168C9.4402 14.312 9.38784 14.4298 9.30931 14.4298C9.24386 14.4298 9.17842 14.312 9.17842 14.168C9.17842 14.024 9.24386 13.9062 9.30931 13.9062C9.38784 13.9062 9.4402 14.024 9.4402 14.168ZM8.52398 15.2282C8.52398 15.3329 8.57634 15.3329 8.72031 15.2151C8.94282 15.0318 9.2046 15.1627 9.15224 15.4376C9.12607 15.5685 8.92973 15.6601 8.62869 15.6863C8.13132 15.7256 8.06588 15.6732 8.20985 15.2936C8.30147 15.058 8.52398 15.0057 8.52398 15.2282ZM9.12607 16.8643C9.07371 17.0213 8.99518 17.0475 8.90356 16.9559C8.83811 16.8905 8.81193 16.7334 8.86429 16.6025C8.91665 16.4454 8.99518 16.4193 9.0868 16.5109C9.15224 16.5763 9.17842 16.7334 9.12607 16.8643ZM8.18367 16.7334C8.26221 16.9428 8.05279 17.113 7.93499 16.9297C7.89572 16.8512 7.77792 16.825 7.67321 16.8774C7.55541 16.9166 7.47688 16.8643 7.47688 16.7727C7.47688 16.5371 8.09205 16.4978 8.18367 16.7334ZM8.65487 16.7857C8.65487 16.9297 8.60251 17.0475 8.52398 17.0475C8.45854 17.0475 8.39309 16.9297 8.39309 16.7857C8.39309 16.6418 8.45854 16.524 8.52398 16.524C8.60251 16.524 8.65487 16.6418 8.65487 16.7857ZM9.70197 16.8643C9.70197 17.0737 9.49255 17.113 9.37475 16.9166C9.27004 16.7465 9.42711 16.4978 9.58417 16.5894C9.64962 16.6418 9.70197 16.7596 9.70197 16.8643ZM10.2255 16.7988C10.2255 17.113 9.92448 17.0737 9.85904 16.7465C9.83286 16.6156 9.8983 16.524 10.0161 16.524C10.147 16.524 10.2255 16.6418 10.2255 16.7988ZM9.79359 17.8721C9.87212 17.9245 9.97683 17.9245 10.003 17.8721C10.0815 17.7412 10.7752 17.7543 10.9847 17.8852C11.181 18.003 11.1941 18.6182 11.0108 18.6182C10.893 18.6182 10.8145 18.3433 10.8669 18.0554C10.8669 18.003 10.8145 17.9637 10.7491 17.9637C10.5789 17.9637 10.736 18.6443 10.9323 18.7752C11.1941 18.9585 7.55541 18.893 7.17584 18.7098C6.80935 18.5396 6.65229 18.003 7.01877 18.147C7.14966 18.1862 7.21511 18.1339 7.21511 17.9768C7.21511 17.7543 7.3329 17.7412 8.43236 17.7543C9.0868 17.7674 9.70197 17.8198 9.79359 17.8721ZM9.57108 19.4689C9.68888 19.6129 9.70197 19.7176 9.59726 19.8223C9.41402 20.0056 9.17842 19.8354 9.17842 19.5213C9.17842 19.2203 9.34857 19.1941 9.57108 19.4689Z" fill="white"/>
<path d="M9.44031 18.1731C9.44031 18.2778 9.50575 18.3302 9.5712 18.2909C9.64973 18.2517 9.70208 18.16 9.70208 18.0815C9.70208 18.0161 9.64973 17.9637 9.5712 17.9637C9.50575 17.9637 9.44031 18.0553 9.44031 18.1731Z" fill="white"/>
<path d="M10.0946 18.2517C10.0946 18.5004 10.1208 18.5134 10.2255 18.3564C10.3956 18.1077 10.3956 17.9637 10.2255 17.9637C10.16 17.9637 10.0946 18.0946 10.0946 18.2517Z" fill="white"/>
<path d="M8.78577 18.304C8.78577 18.4087 8.85121 18.4611 8.91665 18.4218C8.99519 18.3695 9.02136 18.2779 8.9821 18.2124C8.8643 18.0292 8.78577 18.0684 8.78577 18.304Z" fill="white"/>
<path d="M16.9139 10.5817C16.9139 10.7256 16.9532 10.7649 16.9925 10.6602C17.0317 10.5686 17.0187 10.4508 16.9794 10.4115C16.9401 10.3592 16.9009 10.4377 16.9139 10.5817Z" fill="white"/>
<path d="M28.72 10.7387C28.5891 10.8827 28.3797 11.0267 28.2619 11.0659C28.0263 11.1445 27.9609 11.4848 28.1048 11.8643C28.1703 12.0345 28.3012 12.0083 28.9556 11.668C29.6886 11.3015 29.7279 11.2623 29.5839 10.9874C29.2959 10.4639 29.0603 10.3853 28.72 10.7387ZM29.2959 10.9743C29.3875 11.2099 29.0734 11.4717 28.8902 11.2884C28.7462 11.1445 28.8771 10.7649 29.0734 10.7649C29.1519 10.7649 29.2436 10.8565 29.2959 10.9743ZM28.6546 11.4455C28.576 11.6811 28.2881 11.7204 28.2881 11.4979C28.2881 11.3801 28.3797 11.2884 28.4975 11.2884C28.6153 11.2884 28.6808 11.3539 28.6546 11.4455Z" fill="white"/>
<path d="M7.58162 10.8565C7.67324 10.8957 7.79104 10.8827 7.83031 10.8434C7.88266 10.8041 7.80413 10.7649 7.66015 10.7779C7.51618 10.7779 7.47691 10.8172 7.58162 10.8565Z" fill="white"/>
<path d="M26.5604 10.9874C26.652 11.0267 26.7698 11.0136 26.8091 10.9743C26.8614 10.935 26.7829 10.8958 26.6389 10.9089C26.4949 10.9089 26.4557 10.9481 26.5604 10.9874Z" fill="white"/>
<path d="M2.89589 12.3355C2.47705 12.7544 2.60794 13.6444 3.09222 13.6444C3.18384 13.6444 3.30164 13.435 3.38017 13.1863C3.4587 12.9376 3.47179 12.7282 3.41944 12.7282C3.35399 12.7282 3.26237 12.846 3.22311 12.99C3.10531 13.3434 2.89589 13.3172 2.89589 12.9507C2.89589 12.5711 3.13149 12.3355 3.48488 12.3355C4.0477 12.3355 4.27021 12.9507 3.85137 13.4088C3.56342 13.7229 3.68121 13.8276 4.0477 13.5659C4.33565 13.3695 4.42727 12.8198 4.23094 12.5188C4.10005 12.3224 3.61577 12.0737 3.36708 12.0737C3.24928 12.0737 3.03986 12.1915 2.89589 12.3355Z" fill="white"/>
<path d="M6.95333 12.3224C6.69155 12.4009 6.66537 12.4271 6.84861 12.4926C6.96641 12.5449 7.13657 12.5057 7.2151 12.3879C7.30672 12.2831 7.35908 12.2046 7.3329 12.2177C7.30672 12.2308 7.13657 12.2701 6.95333 12.3224Z" fill="white"/>
<path d="M12.3852 12.8329C12.1758 12.9638 11.9402 13.134 11.8748 13.2387C11.7962 13.3696 11.6915 13.3303 11.4559 13.0423L11.1418 12.6628L11.2203 13.0293C11.3251 13.4612 11.0371 14.5606 10.8277 14.5606C10.723 14.5606 10.723 14.5868 10.8277 14.6653C10.9062 14.7177 11.0109 14.9926 11.0502 15.2805C11.2073 16.2884 12.4507 17.0213 13.0266 16.4454C13.3015 16.1836 13.4716 16.3014 13.3931 16.7203C13.3538 16.9559 13.38 17.0475 13.5109 17.0213C13.7726 16.969 13.7334 17.9506 13.4323 18.5658L13.1967 19.0632L13.0135 18.7098C12.8303 18.3433 12.5292 18.2517 12.3722 18.5134C12.3067 18.6051 12.3329 18.6182 12.4507 18.5527C12.6339 18.448 12.6339 18.4349 12.346 19.3642L12.202 19.7961L12.5816 19.5998C13.3931 19.181 13.9952 18.003 13.8512 17.0999C13.7988 16.7595 13.8381 16.6418 14.1522 16.4062C14.3616 16.2622 14.5842 16.1313 14.6496 16.1313C14.715 16.1313 14.8459 15.8695 14.9245 15.5554C15.0423 15.058 15.0292 14.914 14.8328 14.5737C14.5449 14.0502 14.3093 13.9586 14.3878 14.3905C14.4271 14.5868 14.3747 14.7701 14.27 14.8355C14.126 14.9271 14.113 14.9926 14.2569 15.2151C14.4664 15.5423 14.4533 15.6208 14.2308 15.5292C14.126 15.4899 14.0082 15.5161 13.9559 15.5947C13.9166 15.6732 13.969 15.7386 14.0737 15.7386C14.3355 15.7386 14.3355 15.8826 14.0999 16.2098C13.9035 16.4585 13.9035 16.4585 13.7072 16.1967C13.5894 16.0528 13.524 15.8172 13.5632 15.6601C13.5894 15.5161 13.5632 15.1889 13.4978 14.9533C13.4062 14.6523 13.4193 14.4559 13.5109 14.3381C13.6941 14.1287 13.5763 14.1156 13.236 14.325C13.0004 14.469 12.935 14.4428 12.647 14.1025C12.1366 13.4743 12.2544 13.1209 13.0004 13.1209C13.1706 13.1209 13.236 13.1863 13.1967 13.3041C13.1575 13.4088 13.2229 13.5135 13.3669 13.5528C13.5109 13.5921 13.6418 13.5528 13.6679 13.4743C13.7072 13.3565 13.8119 13.3565 14.0606 13.4743C14.2569 13.5659 14.414 13.579 14.414 13.5135C14.414 13.2649 13.8119 12.99 13.2622 12.99C12.8041 12.99 12.6994 12.9507 12.7648 12.7937C12.8041 12.6889 12.8172 12.5973 12.8041 12.6104C12.791 12.6104 12.6077 12.7151 12.3852 12.8329ZM12.346 13.9716C12.4245 14.1549 12.5423 14.2989 12.6077 14.2989C12.6601 14.2989 12.7125 14.3905 12.7125 14.4952C12.7125 14.6261 12.5816 14.6915 12.3198 14.6915C12.0318 14.6915 11.9271 14.757 11.9271 14.914C11.9271 15.1104 11.9533 15.1104 12.0449 14.9664C12.202 14.7177 12.4507 14.914 12.8303 15.5423C13.0397 15.9088 13.0528 15.9873 12.8957 16.0528C12.7779 16.092 12.7255 16.1836 12.7779 16.2491C12.9219 16.4978 12.6208 16.4978 12.2151 16.2622C11.9533 16.092 11.8224 15.935 11.8748 15.8172C11.914 15.7124 11.8617 15.4899 11.7439 15.3198L11.5345 15.0318V15.3852C11.5345 15.791 11.3381 15.7648 11.2334 15.3329C11.1811 15.1496 11.2596 14.9664 11.4559 14.7701C11.8093 14.4428 11.9795 14.0371 11.7701 14.0371C11.6784 14.0371 11.6915 13.9716 11.7962 13.8408C12.0318 13.5659 12.1758 13.5921 12.346 13.9716ZM13.38 15.2282C13.4847 15.4376 13.4847 15.5423 13.38 15.647C13.1967 15.8302 12.9742 15.5685 12.9742 15.1758C12.9742 14.8748 13.1967 14.8879 13.38 15.2282ZM12.6601 19.3773C12.3983 19.6391 12.3722 19.3904 12.6077 18.9716C12.7517 18.7098 12.7648 18.6967 12.8172 18.9323C12.8433 19.0632 12.7779 19.2726 12.6601 19.3773Z" fill="white"/>
<path d="M12.4507 16.0004C12.3721 16.1443 12.3459 16.2621 12.3721 16.2621C12.4114 16.2621 12.503 16.1443 12.5815 16.0004C12.6601 15.8564 12.6863 15.7386 12.6601 15.7386C12.6208 15.7386 12.5292 15.8564 12.4507 16.0004Z" fill="white"/>
<path d="M6.90103 13.0031C6.75706 13.147 6.57382 13.2517 6.46911 13.2517C6.25969 13.2517 6.23351 13.7229 6.44293 13.8538C6.52146 13.8931 6.54764 14.0502 6.52146 14.1941C6.45602 14.4036 6.48219 14.4166 6.65235 14.2858C6.77015 14.181 6.8225 13.9847 6.77015 13.7622C6.71779 13.5004 6.77015 13.3565 6.97957 13.2256C7.12354 13.1209 7.22825 12.9769 7.20208 12.8983C7.1759 12.8198 7.04501 12.8722 6.90103 13.0031Z" fill="white"/>
<path d="M14.8066 13.3172C14.715 13.4219 14.7019 13.5135 14.7804 13.5135C14.8459 13.5135 14.9768 13.4219 15.0684 13.3172C15.16 13.2125 15.1731 13.1209 15.0946 13.1209C15.0291 13.1209 14.8982 13.2125 14.8066 13.3172Z" fill="white"/>
<path d="M18.4714 13.3172C18.563 13.4219 18.6939 13.5135 18.7594 13.5135C18.8379 13.5135 18.8248 13.4219 18.7332 13.3172C18.6416 13.2125 18.5107 13.1209 18.4452 13.1209C18.3667 13.1209 18.3798 13.2125 18.4714 13.3172Z" fill="white"/>
<path d="M29.5708 13.3434C29.152 13.4481 28.8116 13.6051 28.8116 13.6706C28.8116 13.7491 28.9556 13.7622 29.165 13.7229C29.3876 13.6575 29.5446 13.6837 29.6101 13.8015C29.8064 14.1025 29.7409 14.2727 29.4006 14.3512C29.2174 14.4036 29.0734 14.4821 29.0734 14.5475C29.0734 14.613 29.4137 14.5737 29.8326 14.469C30.7226 14.2334 31.0629 13.9978 30.3823 14.0632C29.9896 14.1025 29.9242 14.0632 29.8849 13.8146C29.8457 13.5921 29.9242 13.5004 30.1729 13.435C30.3561 13.3957 30.5132 13.3041 30.5132 13.2387C30.5132 13.0947 30.5001 13.0947 29.5708 13.3434Z" fill="white"/>
<path d="M2.56858 14.2334L2.96124 14.4167L2.5424 14.5868C2.30681 14.6784 2.11047 14.7962 2.11047 14.8486C2.11047 14.9795 2.12356 14.9795 2.62094 14.8093C3.00051 14.6784 3.07904 14.6915 3.43244 15.0318C3.64186 15.2282 3.81201 15.3329 3.81201 15.2544C3.81201 15.1889 3.69421 15.0188 3.55024 14.8879C3.19684 14.5606 3.22302 14.3905 3.61568 14.4821C3.79892 14.5345 3.9429 14.5083 3.9429 14.4428C3.9429 14.3774 3.64186 14.2596 3.28846 14.1811C2.38534 13.9847 2.07121 14.0109 2.56858 14.2334Z" fill="white"/>
<path d="M5.95865 14.2596C5.88012 14.3774 5.61834 14.5475 5.36966 14.6392C5.04244 14.757 5.00317 14.8093 5.21259 14.8093C5.42201 14.8224 5.47437 14.8879 5.42201 15.0973C5.36966 15.2674 5.46128 15.4899 5.70996 15.7386C6.03718 16.0789 6.06336 16.1706 5.93247 16.4585C5.7885 16.7595 5.72305 16.7857 5.33039 16.7203C5.06861 16.6679 4.85919 16.6941 4.80684 16.7726C4.75448 16.8643 4.79375 16.8904 4.91155 16.8381C5.18641 16.7334 5.17332 16.8904 4.88537 17.1522C4.76757 17.2831 4.71522 17.3354 4.78066 17.27C5.12097 17.0213 5.25186 17.1915 5.21259 17.8328C5.18641 18.4349 5.16024 18.4873 4.87228 18.4873C4.58433 18.4873 4.57124 18.5003 4.76757 18.6443C4.88537 18.7359 4.99008 19.0239 5.01626 19.2726C5.04244 19.6522 5.13406 19.77 5.48745 19.9139C5.7885 20.0579 5.89321 20.1626 5.84085 20.3328C5.74923 20.6076 5.98483 20.7909 6.08954 20.516C6.1288 20.4113 6.2466 20.359 6.3644 20.3851C7.03193 20.5946 7.00575 20.5553 6.77015 20.9087C6.56073 21.2228 6.56073 21.2359 6.82251 21.2359C7.04502 21.2359 7.08428 21.1835 7.01884 20.9741C6.9534 20.7778 7.05811 20.6469 7.47695 20.3851C8.18374 19.9401 8.28845 19.9008 8.51096 20.0448C8.66802 20.1495 8.62876 20.2542 8.28845 20.6469C8.05285 20.8956 7.86961 21.1312 7.86961 21.1443C7.86961 21.1574 8.01359 21.1835 8.19683 21.1835C8.47169 21.2097 8.52405 21.1443 8.52405 20.8563C8.52405 20.5946 8.55022 20.5553 8.65493 20.7124C8.74656 20.8563 8.78582 20.7516 8.78582 20.3459C8.78582 20.0317 8.73347 19.8092 8.66802 19.8616C8.58949 19.9008 8.48478 19.8223 8.40625 19.7045C8.32772 19.5736 8.26227 19.5213 8.26227 19.5867C8.26227 19.6522 8.18374 19.626 8.07903 19.5475C7.92196 19.4166 7.90888 19.4427 7.96123 19.6522C8.01359 19.8747 7.93505 19.9663 7.54239 20.1364C6.91413 20.3982 6.37749 20.2804 6.46911 19.927C6.50838 19.77 6.46911 19.6652 6.37749 19.6652C6.28587 19.6652 6.14189 19.4427 6.06336 19.1548C5.86703 18.5003 5.85394 18.5134 6.20734 18.448C6.45602 18.3956 6.44293 18.3956 6.1288 18.3695C5.91938 18.3695 5.73614 18.4349 5.69687 18.5527C5.57908 18.8537 5.38274 18.6443 5.38274 18.2124C5.38274 17.6365 5.60525 17.3093 5.98483 17.3093C6.20734 17.3093 6.28587 17.3616 6.22043 17.4663C6.15498 17.5972 6.16807 17.5972 6.29896 17.4794C6.50838 17.2962 6.3644 17.0475 6.02409 17.0475C5.60525 17.0475 5.77541 16.7334 6.49529 16.1836C6.74398 15.9873 6.74398 15.9873 6.46911 16.1313C6.08954 16.3145 6.06336 16.0789 6.41676 15.7648C6.54764 15.6339 6.69162 15.346 6.74398 15.1104L6.82251 14.6915L6.46911 14.914C6.18116 15.1104 6.15498 15.1496 6.35131 15.1889C6.67853 15.2543 6.53456 15.5423 6.15498 15.5423C5.73614 15.5423 5.6707 15.1496 6.03718 14.757C6.23351 14.5475 6.28587 14.3905 6.20734 14.2465C6.10263 14.0633 6.07645 14.0633 5.95865 14.2596ZM5.95865 19.5998C5.86703 19.8354 5.25186 19.8616 5.25186 19.626C5.25186 19.5344 5.3173 19.3904 5.40892 19.2988C5.60525 19.1024 6.05027 19.338 5.95865 19.5998Z" fill="white"/>
<path d="M29.2042 15.1104C29.2042 15.5423 29.4006 15.8303 29.5053 15.5554C29.5576 15.4376 29.8325 15.3198 30.2513 15.2675C30.6047 15.2151 30.9058 15.1235 30.9058 15.058C30.9058 14.9795 30.6178 14.9664 30.1859 15.0188C29.6885 15.0842 29.466 15.0711 29.466 14.9664C29.466 14.8879 29.4136 14.8224 29.3351 14.8224C29.2697 14.8224 29.2042 14.9533 29.2042 15.1104Z" fill="white"/>
<path d="M2.07122 15.6993C1.88798 15.8695 1.99269 16.393 2.22829 16.5239C2.5686 16.6941 3.69423 16.7072 3.41937 16.5239C3.31466 16.4585 3.01362 16.393 2.75184 16.393C2.46389 16.393 2.24138 16.3145 2.20211 16.2098C2.08431 15.9218 2.22829 15.8695 3.01362 15.8695C3.53717 15.8695 3.69423 15.8302 3.55025 15.7386C3.32775 15.5946 2.20211 15.5554 2.07122 15.6993Z" fill="white"/>
<path d="M30.7357 15.9611C30.5655 16.1313 30.487 16.1443 30.3561 16.0265C29.9766 15.647 29.3352 15.9349 29.3352 16.4716C29.3352 16.8773 29.4399 16.9166 30.2907 16.825C31.0106 16.7464 31.3378 16.5239 30.7488 16.5239L30.4477 16.5108L30.7488 16.2621C30.9189 16.1182 31.0367 15.948 31.0106 15.8695C30.9844 15.7909 30.8666 15.8302 30.7357 15.9611ZM30.1991 16.5108C30.1467 16.5894 29.9896 16.6548 29.8457 16.6548C29.5708 16.6548 29.4923 16.1967 29.7671 16.092C29.9766 16.0135 30.3038 16.3276 30.1991 16.5108Z" fill="white"/>
<path d="M11.8355 16.9297C11.7177 17.0475 11.7701 17.1915 12.0188 17.5187C12.3591 17.9768 12.6732 18.1208 12.5423 17.7674C12.4899 17.6627 12.5161 17.5449 12.5947 17.4925C12.7386 17.4009 13.1313 17.6888 13.0397 17.8197C13.0135 17.8721 13.0659 17.9244 13.1706 17.9244C13.2884 17.9244 13.3407 17.7936 13.3276 17.571C13.3145 17.3747 13.2491 17.2176 13.1706 17.2176C12.791 17.2307 11.9402 16.9951 12.0057 16.9035C12.0973 16.7334 12.0057 16.7595 11.8355 16.9297Z" fill="white"/>
<path d="M14.2307 17.0344C14.1783 17.0998 14.1914 17.2831 14.2568 17.4271C14.3485 17.6888 14.3616 17.6757 14.5055 17.3093C14.6233 16.9951 14.6233 16.9166 14.4794 16.9166C14.3746 16.9166 14.2699 16.969 14.2307 17.0344Z" fill="white"/>
<path d="M18.7333 17.0344C18.7333 17.0998 18.8118 17.2176 18.9165 17.2962C19.0605 17.414 19.1259 17.414 19.1914 17.2962C19.2437 17.2176 19.2045 17.0998 19.1129 17.0344C18.8773 16.8904 18.7333 16.8904 18.7333 17.0344Z" fill="white"/>
<path d="M3.28857 17.1784C3.28857 17.2438 2.96135 17.3093 2.5556 17.3093C2.11058 17.3093 1.86189 17.3616 1.91425 17.4402C1.95351 17.5056 2.28073 17.5711 2.62104 17.5711C2.96135 17.5711 3.30166 17.6365 3.39328 17.7281C3.51108 17.8459 3.55034 17.7936 3.55034 17.4664C3.55034 17.2308 3.49799 17.0475 3.41946 17.0475C3.35401 17.0475 3.28857 17.0999 3.28857 17.1784Z" fill="white"/>
<path d="M29.8979 17.3093C29.3351 17.5318 29.178 18.1993 29.5969 18.6181C30.1335 19.1548 31.0759 18.7883 31.0759 18.016C31.0759 17.4532 30.4738 17.0867 29.8979 17.3093ZM30.7094 17.7019C31.0497 18.0815 30.801 18.6181 30.2775 18.6181C29.6361 18.6181 29.3744 18.0684 29.8063 17.6496C30.0812 17.3616 30.4215 17.3878 30.7094 17.7019Z" fill="white"/>
<path d="M14.1653 18.0422C14.1653 18.1862 14.2046 18.2255 14.2438 18.1208C14.2831 18.0292 14.27 17.9114 14.2307 17.8721C14.1915 17.8197 14.1522 17.8983 14.1653 18.0422Z" fill="white"/>
<path d="M3.35395 18.0946C3.30159 18.1731 3.20997 18.1862 3.13144 18.147C3.03982 18.0946 3.02673 18.1208 3.07908 18.1993C3.19688 18.3826 3.51101 18.4087 3.61572 18.2386C3.65499 18.1731 3.62881 18.0815 3.56337 18.0422C3.49792 17.9899 3.4063 18.0161 3.35395 18.0946Z" fill="white"/>
<path d="M19.139 18.304C19.139 18.448 19.1783 18.4873 19.2176 18.3826C19.2568 18.2909 19.2438 18.1731 19.2045 18.1339C19.1652 18.0815 19.126 18.16 19.139 18.304Z" fill="white"/>
<path d="M14.0344 18.5658C14.0344 18.7098 14.0737 18.749 14.113 18.6443C14.1522 18.5527 14.1391 18.4349 14.0999 18.3956C14.0606 18.3433 14.0213 18.4218 14.0344 18.5658Z" fill="white"/>
<path d="M2.13673 18.9061C1.91422 19.1286 1.9404 19.4951 2.18909 19.6391C2.52939 19.8354 2.8697 19.6783 3.01368 19.2595C3.18383 18.7752 3.48487 18.749 3.36707 19.2202C3.30163 19.4689 3.32781 19.5475 3.44561 19.5082C3.53723 19.4689 3.61576 19.2988 3.61576 19.1286C3.61576 18.893 3.53723 18.8014 3.27545 18.7752C2.9875 18.736 2.89588 18.8014 2.77808 19.1417C2.60793 19.6391 2.2938 19.5998 2.33306 19.0894C2.35924 18.6967 2.34615 18.6967 2.13673 18.9061Z" fill="white"/>
<path d="M29.3352 19.2857C29.3352 19.4166 29.6886 19.5344 30.0682 19.5344C30.5786 19.5344 30.4347 19.7307 29.7671 19.9401C28.9949 20.1757 28.9164 20.3982 29.5577 20.503C29.8326 20.5553 30.2121 20.6208 30.4216 20.66C30.6179 20.6993 30.775 20.6731 30.775 20.6077C30.775 20.5422 30.5132 20.4375 30.186 20.3852C29.4792 20.2804 29.5184 20.1496 30.3169 19.927C30.6441 19.8354 30.9059 19.6914 30.9059 19.6129C30.9059 19.5213 30.5655 19.3904 30.1205 19.325C29.6886 19.2464 29.3352 19.2333 29.3352 19.2857Z" fill="white"/>
<path d="M3.28846 21.3406C2.778 21.5369 2.69946 21.6154 2.69946 21.9558C2.69946 22.3222 2.72564 22.3484 3.22301 22.3353C3.78583 22.3222 4.55807 22.0605 4.42718 21.9427C4.38791 21.8903 4.07378 21.9558 3.73348 22.0736C3.34081 22.2044 3.06595 22.2437 2.98742 22.1652C2.76491 21.9427 2.98742 21.6809 3.53714 21.4976C3.83819 21.406 4.07378 21.2751 4.07378 21.2097C4.07378 21.0657 3.96907 21.0788 3.28846 21.3406Z" fill="white"/>
<path d="M7.42463 21.6024C7.1105 21.6286 6.69166 21.7987 6.35135 22.0474C5.9456 22.3354 5.72309 22.4139 5.51367 22.3484C5.33043 22.2961 5.2519 22.3092 5.30425 22.3877C5.34352 22.4532 5.59221 22.5579 5.84089 22.5971C6.23355 22.6757 6.35135 22.6364 6.56077 22.3877L6.80946 22.0867L6.82255 22.3746C6.82255 22.6102 6.90108 22.6757 7.14977 22.6757C7.33301 22.6757 7.47699 22.6233 7.47699 22.5579C7.47699 22.4924 7.38537 22.4532 7.26757 22.4662C6.90108 22.4924 6.91417 22.1783 7.28066 21.9427C7.55552 21.7594 7.67332 21.7464 7.96127 21.8772C8.28849 22.0212 8.28849 22.0212 8.13143 21.7987C8.02672 21.6678 7.94818 21.5631 7.93509 21.5631C7.93509 21.5631 7.6995 21.5762 7.42463 21.6024Z" fill="white"/>
<path d="M28.5499 21.982C28.5499 22.0605 28.6677 22.2176 28.8117 22.3485C29.1912 22.6888 29.1389 22.8066 28.6153 22.8066C28.3666 22.8066 28.1572 22.8458 28.1572 22.9113C28.1572 22.9636 28.419 22.9898 28.7331 22.9636C29.0473 22.9375 29.4268 22.9767 29.5708 23.0552C29.7541 23.1469 29.8719 23.16 29.9242 23.0683C29.9635 23.0029 29.9373 22.9375 29.8588 22.9375C29.7802 22.9375 29.453 22.6888 29.1389 22.4008C28.8117 22.0998 28.5499 21.9165 28.5499 21.982Z" fill="white"/>
<path d="M8.51093 22.4008C8.57637 22.5186 8.6549 22.7019 8.69417 22.8066C8.73343 22.9113 8.7727 22.8197 8.7727 22.5972C8.78579 22.3354 8.72035 22.1914 8.60255 22.1914C8.47166 22.1914 8.44548 22.2568 8.51093 22.4008Z" fill="white"/>
<path d="M3.87754 22.7673C3.11839 23.16 3.09222 23.1731 3.18384 23.2778C3.23619 23.317 3.44561 23.2516 3.68121 23.1338C4.24403 22.8458 4.29638 22.9636 3.89063 23.5003C3.53723 23.9715 3.4587 24.2463 3.68121 24.2463C3.94298 24.2463 5.18642 23.5526 5.02935 23.5003C4.95082 23.4741 4.68904 23.5395 4.46654 23.6573C4.23094 23.7751 4.02152 23.8537 3.99534 23.8144C3.96916 23.7882 4.12623 23.5134 4.34874 23.1992C4.57125 22.8982 4.70213 22.5972 4.63669 22.5448C4.58433 22.4794 4.24403 22.5841 3.87754 22.7673Z" fill="white"/>
<path d="M18.2097 23.2778C18.2097 23.4348 18.3013 23.5919 18.406 23.6443C18.5238 23.6835 18.6024 23.6443 18.6024 23.5265C18.6024 23.2385 18.838 23.2909 18.9034 23.5919C18.9558 23.8144 18.9558 23.8013 18.9427 23.5657C18.9296 23.3563 18.8511 23.2647 18.6678 23.2647C18.5238 23.2647 18.3668 23.1992 18.3144 23.1338C18.2621 23.0553 18.2097 23.1338 18.2097 23.2778Z" fill="white"/>
<path d="M21.5735 23.461C21.338 23.6966 21.338 23.6966 21.5735 23.6704C21.7044 23.6443 21.8222 23.5395 21.8484 23.4217C21.9008 23.1469 21.8746 23.1469 21.5735 23.461Z" fill="white"/>
<path d="M6.83558 23.5788C6.70469 23.6573 6.71778 23.7097 6.87485 23.762C6.97956 23.8013 7.11044 23.7882 7.14971 23.7228C7.25442 23.5526 7.03191 23.461 6.83558 23.5788Z" fill="white"/>
<path d="M22.0054 23.5788C22.0054 23.7358 22.3849 23.8798 22.542 23.7751C22.7776 23.6442 22.6598 23.461 22.3326 23.461C22.1493 23.461 22.0054 23.5133 22.0054 23.5788Z" fill="white"/>
<path d="M25.9975 23.5919C25.8928 23.762 26.1153 23.8537 26.3116 23.7359C26.4425 23.6573 26.4294 23.605 26.2724 23.5526C26.1677 23.5134 26.0368 23.5264 25.9975 23.5919Z" fill="white"/>
<path d="M27.7645 23.7228C27.6205 23.8667 27.5027 24.0762 27.5027 24.194C27.5027 24.4426 27.7514 24.9269 27.9477 25.0578C28.2095 25.2411 28.7723 25.1625 28.9817 24.9269C29.2566 24.6259 29.2697 23.9453 29.021 23.7359C28.877 23.6181 28.7854 23.6835 28.5629 24.05C28.3011 24.5081 28.3665 24.6782 28.6807 24.3118C28.9294 24.0238 29.1388 24.2725 28.9555 24.6259C28.7854 24.94 28.1833 25.0055 27.9215 24.7437C27.6598 24.4819 27.7514 24.0238 28.1309 23.7359C28.4058 23.5264 28.432 23.4741 28.2618 23.461C28.1309 23.461 27.9084 23.5788 27.7645 23.7228Z" fill="white"/>
<path d="M4.54506 24.3903C4.20476 24.6128 3.94298 24.8222 3.99534 24.8615C4.07387 24.94 5.1995 24.3117 5.3173 24.1154C5.46128 23.8929 5.1995 23.9845 4.54506 24.3903Z" fill="white"/>
<path d="M10.2125 24.4296C10.3041 24.5343 10.3303 24.8091 10.2779 25.1233C10.2255 25.5159 10.2517 25.6861 10.4481 25.8955C10.5789 26.0395 10.6313 26.0788 10.5528 25.974C10.4742 25.8432 10.5004 25.7384 10.6575 25.6206C10.9062 25.4374 10.9585 25.1625 10.7491 25.1625C10.6706 25.1625 10.6182 25.084 10.6444 24.9924C10.6836 24.7699 10.3826 24.2463 10.1994 24.2463C10.1077 24.2463 10.1077 24.2987 10.2125 24.4296Z" fill="white"/>
<path d="M22.6992 24.495C22.4898 24.6651 22.4374 24.8222 22.4898 25.0316C22.5421 25.241 22.529 25.3065 22.4243 25.241C22.1756 25.0971 22.2411 25.4374 22.4898 25.6206C22.6861 25.7646 22.6861 25.8169 22.529 26.0264C22.3589 26.262 22.3589 26.262 22.5945 26.0525C22.7646 25.8955 22.8693 25.5683 22.9217 25.0316C22.961 24.5997 23.0002 24.2463 22.9871 24.2463C22.9871 24.2594 22.8562 24.3641 22.6992 24.495Z" fill="white"/>
<path d="M5.06863 25.0971C4.80685 25.5028 4.61052 25.8693 4.64979 25.9086C4.76759 26.0264 6.44295 25.5421 6.36441 25.4243C6.32515 25.3588 6.02411 25.3981 5.69689 25.5159C5.36967 25.6206 5.06863 25.6861 5.02936 25.6468C4.99009 25.6075 5.12098 25.3588 5.31731 25.1101C5.51365 24.8615 5.64453 24.5866 5.61836 24.495C5.59218 24.4164 5.34349 24.6782 5.06863 25.0971Z" fill="white"/>
<path d="M26.7697 25.2672C26.0498 25.7384 26.4556 26.8641 27.3587 26.8641C27.7121 26.8641 28.1833 26.2358 28.0786 25.8955C27.9215 25.3327 27.1886 24.9793 26.7697 25.2672ZM27.699 25.6861C27.8954 25.9086 27.9084 26.0002 27.7906 26.2751C27.6074 26.6808 27.1231 26.707 26.7828 26.3405C26.5865 26.118 26.5734 26.0264 26.6912 25.7515C26.8744 25.3458 27.3587 25.3196 27.699 25.6861Z" fill="white"/>
<path d="M8.30148 25.6206C8.35384 25.7515 9.0999 25.817 9.41403 25.7122C9.76743 25.5944 9.53183 25.4897 8.91666 25.4897C8.53708 25.4897 8.27531 25.5421 8.30148 25.6206Z" fill="white"/>
<path d="M23.576 25.6206C23.7855 25.8693 24.7671 25.8431 24.8587 25.5814C24.898 25.4636 24.7017 25.4243 24.165 25.4243C23.4975 25.4243 23.4321 25.4505 23.576 25.6206Z" fill="white"/>
<path d="M5.90626 26.3405L5.31726 26.851L5.60521 27.1389C5.91934 27.4661 6.18112 27.3876 5.90626 27.0604C5.68375 26.7855 5.94552 26.4583 6.19421 26.707C6.44289 26.9557 6.58687 26.8902 6.41672 26.5892C6.2073 26.1704 6.46907 25.9609 6.82247 26.2751C6.96644 26.406 7.08424 26.4583 7.08424 26.3798C7.08424 26.2489 6.6654 25.817 6.5476 25.817C6.52143 25.817 6.23347 26.0526 5.90626 26.3405Z" fill="white"/>
<path d="M6.83557 27.2043C6.52143 27.5316 6.31201 27.8326 6.35128 27.885C6.40364 27.9242 6.50835 27.885 6.58688 27.8064C6.83557 27.5577 6.9141 27.6232 6.84865 28.042C6.80939 28.2776 6.84865 28.4347 6.94028 28.4347C7.01881 28.4347 7.08425 28.2907 7.08425 28.1206C7.08425 27.8719 7.16278 27.7933 7.45074 27.7541C7.89575 27.7017 8.01355 27.1651 7.63398 26.8248C7.39838 26.6023 7.35912 26.6154 6.83557 27.2043ZM7.64707 27.1782C7.75178 27.4269 7.45074 27.6625 7.21514 27.5185C7.07116 27.4269 7.07116 27.3745 7.20205 27.2043C7.42456 26.9426 7.55545 26.9426 7.64707 27.1782Z" fill="white"/>
<path d="M25.5002 26.6939C25.4479 26.7725 25.6835 27.0735 25.9976 27.3876C26.5604 27.9504 26.5866 27.9504 26.8353 27.7148C27.1363 27.4531 27.0709 27.152 26.7698 27.4007C26.6128 27.5316 26.4819 27.4662 26.0761 27.0735C25.8013 26.7986 25.5395 26.6285 25.5002 26.6939Z" fill="white"/>
<path d="M14.5317 27.5054C14.6888 27.6625 14.8066 27.8588 14.8066 27.9635C14.8066 28.1991 15.3039 28.5656 15.5919 28.5525C15.7228 28.5525 15.6835 28.5002 15.5003 28.4085C15.173 28.2515 15.1076 27.9635 15.3694 27.8719C15.6312 27.7803 15.1992 27.4269 14.6888 27.3222L14.2568 27.2306L14.5317 27.5054Z" fill="white"/>
<path d="M18.3406 27.3745C18.2359 27.4531 18.1181 27.4792 18.0658 27.44C18.0134 27.4138 17.9087 27.4792 17.8171 27.5839C17.6862 27.741 17.6862 27.8195 17.8171 27.9766C18.0134 28.2122 17.8825 28.4347 17.5291 28.4347C17.372 28.4347 17.2804 28.474 17.3328 28.5132C17.516 28.6965 18.0919 28.4085 18.2359 28.0682C18.3275 27.8719 18.4715 27.6101 18.5762 27.4792C18.7856 27.2436 18.6547 27.1782 18.3406 27.3745Z" fill="white"/>
<path d="M24.3614 27.6363C24.0211 28.2907 24.4007 28.9844 25.1075 28.9844C25.8273 28.9844 26.1546 28.0028 25.5787 27.5447C25.2383 27.296 24.5185 27.3483 24.3614 27.6363ZM25.4085 27.7541C25.9975 28.2253 25.4216 29.0499 24.7541 28.6965C24.4268 28.5132 24.4007 27.8457 24.7279 27.6625C25.0289 27.4792 25.0813 27.4792 25.4085 27.7541Z" fill="white"/>
<path d="M8.17063 27.7148C7.96121 27.8719 7.94812 27.9373 8.0921 28.3169C8.31461 28.9059 8.0921 29.1546 7.7387 28.6965C7.49002 28.3693 7.47693 28.3693 7.47693 28.6572C7.47693 28.8143 7.59473 29.0106 7.7387 29.0892C8.11828 29.2986 8.58947 28.8012 8.38005 28.4216C8.30152 28.2776 8.27534 28.0551 8.3277 27.9373C8.40623 27.741 8.43241 27.741 8.60256 27.9635C8.79889 28.2515 8.96905 28.186 8.83816 27.8719C8.73345 27.5709 8.45859 27.5054 8.17063 27.7148Z" fill="white"/>
<path d="M8.8644 28.8405C8.41938 29.508 8.35394 29.7436 8.64189 29.5473C8.85131 29.4295 9.47957 28.3038 9.40104 28.2253C9.36177 28.186 9.12618 28.4609 8.8644 28.8405Z" fill="white"/>
<path d="M23.4452 28.3562C23.4452 28.3955 23.563 28.6311 23.7201 28.8797C24.0473 29.4426 23.9426 29.4687 23.2751 29.0237C22.5944 28.5525 22.4374 28.7227 22.8693 29.4557C23.2881 30.1755 23.419 30.3457 23.5107 30.241C23.563 30.2017 23.4714 29.9661 23.3274 29.7305C22.9348 29.1023 22.9871 29.0368 23.5761 29.4164C24.453 29.9792 24.5839 29.8091 24.008 28.8797C23.6939 28.3824 23.4452 28.1599 23.4452 28.3562Z" fill="white"/>
<path d="M9.64962 28.5525C9.59726 28.6179 9.63653 28.6965 9.72815 28.7226C9.83286 28.7619 9.76742 28.9844 9.53182 29.4033C9.13916 30.1101 9.12607 30.1362 9.29622 30.1362C9.34858 30.1362 9.54491 29.8745 9.71506 29.5472C9.89831 29.2069 10.1339 28.9582 10.291 28.9321C10.5135 28.8928 10.4873 28.8535 10.1339 28.6572C9.91139 28.5394 9.68889 28.487 9.64962 28.5525Z" fill="white"/>
<path d="M10.6313 29.5211C10.6313 29.8745 10.5528 30.2802 10.4742 30.4242C10.2517 30.8299 10.5004 30.6598 11.1287 29.9661C11.7307 29.3116 11.7438 29.1677 11.1679 29.6258L10.8145 29.9006L10.736 29.3902L10.6575 28.8928L10.6313 29.5211Z" fill="white"/>
<path d="M22.0709 29.4687C22.1364 29.7697 22.0971 29.8483 21.8746 29.9137C21.7045 29.953 21.5605 29.9006 21.482 29.7305C21.4034 29.5996 21.2856 29.4818 21.2202 29.4818C21.1678 29.4818 21.2594 29.8352 21.4427 30.2671C21.6259 30.686 21.8353 31.0132 21.9008 30.9739C21.9531 30.9346 21.9401 30.7776 21.8615 30.6336C21.7437 30.398 21.7568 30.3195 21.9531 30.1755C22.2804 29.9268 22.3851 29.9661 22.4767 30.3326C22.516 30.5158 22.6076 30.6598 22.673 30.6598C22.8432 30.6598 22.8301 30.6205 22.4767 29.809C22.1233 29.0237 21.9401 28.8666 22.0709 29.4687Z" fill="white"/>
<path d="M19.7804 30.0054C19.2437 30.542 19.6495 31.4451 20.4217 31.4451C20.6311 31.4451 20.8667 31.3535 20.9584 31.2488C21.1678 31.0001 21.0238 30.8038 20.8013 31.0263C20.605 31.2226 20.1338 31.2226 19.9374 31.0263C19.8458 30.9347 19.7804 30.7514 19.7804 30.5944C19.7804 30.2148 20.0291 30.0054 20.4741 30.0054C20.6835 30.0054 20.8144 29.953 20.762 29.8745C20.6311 29.652 20.0552 29.7305 19.7804 30.0054Z" fill="white"/>
<path d="M13.105 30.3588C12.6338 30.9608 12.961 31.7069 13.7071 31.7069C14.4532 31.7069 14.8196 30.8038 14.283 30.2671C13.9165 29.9007 13.4453 29.9399 13.105 30.3588ZM14.1259 30.4242C14.5186 30.8169 14.1652 31.5106 13.6155 31.419C13.1966 31.3535 13.0265 31.0132 13.2097 30.6075C13.3799 30.241 13.8511 30.1493 14.1259 30.4242Z" fill="white"/>
<path d="M18.2621 30.3587C18.3013 30.4896 18.3668 30.8692 18.4191 31.2095C18.4584 31.5629 18.5631 31.8378 18.6547 31.8378C18.9688 31.8378 19.3877 31.6676 19.3222 31.576C19.283 31.5105 19.1521 31.4975 19.0081 31.5367C18.8641 31.576 18.7333 31.5105 18.6809 31.3797C18.6285 31.2226 18.6809 31.1441 18.8641 31.0917C19.0081 31.0524 19.1259 30.9608 19.1259 30.8954C19.1259 30.8168 19.0081 30.7907 18.8641 30.8299C18.4846 30.9216 18.5238 30.4765 18.9034 30.2933C19.1652 30.1624 19.1521 30.1493 18.694 30.1493C18.2751 30.1362 18.2097 30.1755 18.2621 30.3587Z" fill="white"/>
<path d="M14.9506 31.1441C14.9637 31.9294 14.9768 31.9818 15.0815 31.6022C15.1731 31.3012 15.2909 31.1834 15.5003 31.1703H15.7883L15.5003 31.0525C15.1338 30.8954 15.1077 30.5289 15.4611 30.5289C15.605 30.5289 15.7228 30.4635 15.7228 30.398C15.7228 30.3195 15.5527 30.2671 15.3302 30.2671H14.9375L14.9506 31.1441Z" fill="white"/>
<path d="M17.1626 30.398C17.1626 30.4635 17.2542 30.5289 17.3589 30.5289C17.5029 30.5289 17.5553 30.686 17.5553 31.1703C17.5553 31.5367 17.6207 31.864 17.6992 31.9163C17.817 31.9818 17.8301 31.8116 17.7909 31.3011C17.7385 30.7514 17.7647 30.5682 17.9348 30.4373C18.1181 30.2933 18.0657 30.2802 17.66 30.2671C17.3851 30.2671 17.1626 30.3195 17.1626 30.398Z" fill="white"/>
<path d="M1.3252 37.4005V39.9528H1.84875H2.3723V39.0628C2.3723 38.2775 2.41156 38.1335 2.69952 37.8586C2.88276 37.6885 3.03982 37.5707 3.066 37.6099C3.09218 37.6361 3.45866 38.1727 3.8775 38.801L4.63665 39.9528H5.278C5.76229 39.9528 5.89317 39.9136 5.82773 39.7827C5.76229 39.7041 5.29109 39.0235 4.76754 38.2775C4.24399 37.5445 3.81206 36.89 3.81206 36.8377C3.81206 36.7984 4.24399 36.3272 4.75445 35.8037L5.69684 34.8482H5.0424C4.37488 34.8482 4.36179 34.8482 3.36704 35.8953L2.3723 36.9424V35.8953V34.8482H1.84875H1.3252V37.4005Z" fill="white"/>
<path d="M6.56067 37.4005V39.9528H7.01878H7.47688V38.1597C7.47688 37.1256 7.52924 36.4189 7.59468 36.4974C7.66012 36.5628 7.86955 37.1126 8.06588 37.7277C8.70723 39.678 8.8512 39.9528 9.27004 39.9528C9.62344 39.9528 9.66271 39.8874 10.2255 38.2382C10.5527 37.2958 10.8538 36.4974 10.9192 36.4581C10.9716 36.4319 11.0108 37.2042 11.0108 38.1727V39.9528H11.469H11.9271V37.4005V34.8351L11.181 34.8744L10.448 34.9136L9.91139 36.5105C9.61035 37.3874 9.33549 38.1335 9.29622 38.1858C9.25695 38.2251 8.95591 37.5052 8.62869 36.589L8.05279 34.9136L7.30673 34.8744L6.56067 34.8351V37.4005Z" fill="white"/>
<path d="M13.1313 36.9293C13.1706 38.945 13.1837 39.0235 13.4978 39.3638C13.9297 39.835 14.3355 39.979 15.2124 39.979C16.037 39.979 16.6129 39.7434 17.0187 39.2199C17.2674 38.9057 17.2935 38.6963 17.2935 36.8639V34.8482H16.8354H16.3773L16.3642 36.445C16.3642 38.4738 16.2203 38.9319 15.5658 39.089C14.859 39.2591 14.3224 38.9973 14.1522 38.3953C14.0868 38.1335 14.0213 37.2304 14.0213 36.3796V34.8482H13.5501H13.092L13.1313 36.9293Z" fill="white"/>
<path d="M18.0789 35.2409C18.0789 35.6335 18.0919 35.6335 18.7987 35.6335H19.5186V37.7932V39.9528H20.0422H20.5657L20.5919 37.8194L20.6312 35.699L21.3903 35.6597C22.1233 35.6204 22.1364 35.6074 22.1364 35.2409V34.8482H20.1076H18.0789V35.2409Z" fill="white"/>
<path d="M22.9085 35.0707C22.8954 35.3194 22.8954 39.3376 22.9085 39.7172C22.9216 39.9005 23.0394 39.9528 23.3797 39.9528H23.8378V38.2251C23.8378 36.1963 23.7724 36.1833 25.1336 38.4083L26.076 39.9528H26.5995H27.11V37.4005V34.8482H26.6519H26.1938V36.4843C26.1938 37.4267 26.1414 38.1204 26.0629 38.1204C25.9974 38.1204 25.487 37.3874 24.9373 36.4843L23.9294 34.8482H23.432C23.0394 34.8482 22.9216 34.9006 22.9085 35.0707Z" fill="white"/>
<path d="M28.1572 37.4005V39.9528H29.4399C31.6781 39.9397 32.4111 39.5732 32.4111 38.4345C32.4111 37.9372 32.3456 37.7801 32.0053 37.479L31.5996 37.1126L31.9137 36.7592C32.3325 36.2618 32.3064 35.7121 31.8352 35.2278C31.4556 34.8482 31.4425 34.8482 29.8064 34.8482H28.1572V37.4005ZM30.919 35.7644C31.2331 35.9477 31.2462 36.445 30.919 36.733C30.7357 36.9031 30.487 36.9424 29.9766 36.9162L29.2698 36.877L29.2305 36.2487L29.1912 35.6335H29.9242C30.33 35.6335 30.775 35.699 30.919 35.7644ZM31.1676 37.8586C31.4818 38.1727 31.4949 38.4738 31.2069 38.801C31.0368 38.9843 30.8012 39.0366 30.0944 39.0366H29.2043V38.3167V37.5968H30.0551C30.7357 37.5968 30.9582 37.6492 31.1676 37.8586Z" fill="white"/>
</svg>
