<?xml version="1.0" standalone="no"?>
<!DOCTYPE svg PUBLIC "-//W3C//DTD SVG 20010904//EN"
 "http://www.w3.org/TR/2001/REC-SVG-20010904/DTD/svg10.dtd">
<svg version="1.0" xmlns="http://www.w3.org/2000/svg"
 width="254.000000pt" height="300.000000pt" viewBox="0 0 254.000000 300.000000"
 preserveAspectRatio="xMidYMid meet">

<g transform="translate(0.000000,300.000000) scale(0.100000,-0.100000)"
fill="#000000" stroke="none">
<path d="M1170 2990 c-368 -38 -720 -239 -924 -529 -267 -378 -311 -854 -120
-1270 80 -173 225 -354 378 -469 137 -104 365 -202 536 -233 96 -17 333 -17
430 0 600 105 1060 650 1060 1255 0 201 -39 375 -125 553 -220 460 -727 744
-1235 693z m255 -41 c279 -34 505 -142 707 -337 187 -182 298 -391 343 -649
17 -98 20 -318 5 -410 -49 -304 -236 -611 -485 -796 -105 -79 -313 -179 -440
-213 -123 -32 -345 -44 -476 -24 -243 35 -477 151 -657 325 -345 332 -463 791
-322 1250 28 91 98 229 163 324 258 375 716 584 1162 530z"/>
<path d="M1115 2919 c-161 -21 -367 -103 -523 -206 -236 -157 -445 -476 -503
-768 -18 -88 -18 -358 -1 -440 100 -469 422 -813 872 -932 117 -31 343 -42
471 -23 423 61 783 345 944 742 175 435 100 893 -205 1247 -152 177 -399 318
-644 367 -91 18 -321 26 -411 13z m470 -43 c337 -88 632 -341 769 -660 111
-260 126 -571 40 -831 -78 -235 -243 -459 -453 -614 -147 -109 -315 -175 -521
-206 -295 -45 -593 28 -843 206 -240 171 -408 429 -467 719 -29 141 -24 401
10 524 107 390 406 708 789 836 145 49 226 60 411 56 138 -3 181 -8 265 -30z"/>
<path d="M1247 2802 l-27 -28 28 -27 28 -27 27 28 27 28 -28 27 -28 27 -27
-28z"/>
<path d="M1015 2788 l7 -31 -27 21 c-39 31 -56 27 -21 -4 27 -23 28 -28 18
-60 -13 -43 2 -45 18 -1 l12 32 10 -27 c19 -53 25 -28 10 37 -16 64 -40 95
-27 33z"/>
<path d="M1600 2781 c0 -5 4 -21 9 -34 8 -21 5 -28 -21 -47 -35 -26 -30 -40 6
-16 34 22 37 20 30 -11 -11 -45 11 -14 30 41 19 58 19 56 6 56 -5 0 -10 -6
-10 -14 0 -29 -20 -27 -26 3 -6 28 -24 44 -24 22z"/>
<path d="M900 2777 c0 -2 7 -26 16 -53 18 -52 34 -78 34 -53 0 22 -33 109 -42
109 -4 0 -8 -1 -8 -3z"/>
<path d="M847 2764 c-3 -4 0 -22 9 -42 8 -19 12 -37 10 -40 -3 -2 -20 8 -39
22 -30 23 -57 33 -57 22 0 -2 12 -29 26 -60 29 -64 45 -69 20 -6 -9 22 -13 40
-10 40 3 0 24 -14 46 -31 22 -18 43 -28 47 -23 10 11 -42 128 -52 118z"/>
<path d="M1715 2728 c-28 -16 -35 -28 -35 -65 0 -57 63 -79 105 -37 18 19 20
78 3 92 -23 17 -52 22 -73 10z m60 -32 c32 -48 -31 -101 -66 -57 -19 24 -16
48 9 69 23 18 40 15 57 -12z"/>
<path d="M665 2665 c-26 -25 -30 -41 -16 -63 6 -11 14 -10 40 6 33 20 32 39
-1 21 -29 -15 -35 -2 -11 22 24 25 57 19 74 -12 15 -29 -13 -69 -49 -69 -23
-1 -25 -2 -9 -11 12 -7 25 -6 45 3 21 10 28 21 30 49 3 30 -2 41 -24 58 -34
27 -49 27 -79 -4z"/>
<path d="M1861 2638 c-1 -32 -5 -38 -35 -49 -19 -7 -33 -16 -30 -20 3 -5 16
-3 29 3 30 13 43 5 25 -17 -7 -9 -10 -18 -6 -22 7 -7 4 -11 45 50 33 49 36 82
3 36 l-17 -24 -6 40 -6 40 -2 -37z"/>
<path d="M1935 2576 c-19 -14 -19 -15 5 -35 31 -25 49 -27 27 -3 -21 23 -21
32 -3 32 21 0 46 -28 46 -50 0 -24 -42 -53 -64 -44 -9 3 -23 18 -31 33 -13 24
-14 25 -15 4 0 -29 26 -53 58 -53 33 0 45 8 61 37 16 31 14 41 -14 68 -28 29
-43 31 -70 11z"/>
<path d="M1292 2507 c-1 -29 -6 -46 -12 -42 -5 3 -10 1 -10 -5 0 -6 -4 -9 -9
-6 -5 3 -17 -7 -28 -23 -10 -16 -21 -30 -25 -30 -8 -1 -11 -9 -5 -13 1 -1 13
6 27 15 29 18 74 24 108 13 17 -6 22 -3 22 9 0 9 -4 14 -9 10 -5 -3 -12 -1
-16 5 -4 6 -10 8 -15 5 -10 -6 -17 18 -23 75 -3 28 -4 25 -5 -13z"/>
<path d="M520 2505 c38 -39 36 -42 -15 -18 -19 9 -37 14 -41 11 -3 -3 4 -24
16 -47 24 -48 17 -52 -22 -14 -15 14 -30 24 -33 22 -9 -9 83 -91 94 -85 7 5 2
24 -14 57 -14 27 -23 49 -20 49 3 0 24 -9 46 -21 23 -11 48 -18 57 -14 12 4 6
15 -28 50 -24 25 -51 45 -59 45 -10 0 -3 -13 19 -35z"/>
<path d="M2030 2451 c-25 -21 -42 -42 -39 -45 4 -4 20 5 37 19 16 14 32 25 35
25 4 0 0 -19 -8 -41 -17 -47 -19 -72 -6 -67 5 2 28 20 51 41 48 44 47 63 -1
23 -17 -15 -33 -25 -35 -23 -3 2 3 20 11 40 16 39 19 67 8 67 -5 0 -28 -18
-53 -39z"/>
<path d="M1067 2407 c-5 -36 -2 -46 20 -69 25 -26 26 -58 2 -58 -6 0 -8 7 -5
16 4 10 -1 22 -11 30 -26 19 -28 18 -29 -23 -2 -61 -8 -103 -16 -103 -5 0 -8
5 -8 10 0 6 -4 10 -9 10 -5 0 -5 -20 0 -47 7 -33 5 -50 -4 -61 -11 -13 -9 -14
10 -2 17 11 27 11 45 3 27 -14 61 -12 81 5 7 7 17 8 22 4 4 -4 6 0 3 8 -3 9
-14 14 -26 12 -12 -2 -22 2 -22 7 0 6 3 11 8 11 4 0 15 14 24 30 9 17 13 30 8
30 -6 0 -10 -4 -10 -10 0 -5 -12 -10 -27 -10 l-28 1 28 15 c33 18 36 53 7 109
-12 22 -19 47 -17 56 2 9 -4 21 -15 28 -10 6 -16 16 -13 21 3 5 1 11 -4 14 -4
3 -11 -13 -14 -37z m33 -21 c0 -3 -4 -8 -10 -11 -5 -3 -10 -1 -10 4 0 6 5 11
10 11 6 0 10 -2 10 -4z m30 -111 c-7 -8 -10 -21 -7 -30 4 -8 2 -17 -4 -20 -18
-12 -21 26 -4 45 21 23 33 27 15 5z m-60 -84 c0 -26 -32 -59 -39 -40 -2 7 1
15 8 17 6 2 11 12 11 23 0 10 5 19 10 19 6 0 10 -9 10 -19z m29 -36 c-9 -37
-12 -45 -20 -45 -16 0 -22 30 -9 45 14 17 33 16 29 0z"/>
<path d="M1500 2425 c-5 -14 -7 -33 -4 -42 5 -15 3 -15 -11 2 -11 12 -15 14
-13 5 6 -16 -18 -71 -35 -82 -6 -4 -11 -23 -10 -42 1 -20 -3 -38 -8 -41 -4 -3
1 -21 11 -41 24 -43 24 -43 1 -37 -11 3 -21 -2 -25 -12 -3 -10 -2 -14 5 -10 5
4 15 2 22 -3 7 -5 24 -12 39 -16 23 -5 27 -4 21 11 -3 10 -10 23 -15 30 -5 7
-5 14 2 18 13 8 41 -24 36 -40 -2 -5 6 -10 18 -10 16 0 21 7 23 30 1 17 5 41
7 55 3 14 3 19 0 13 -3 -7 -9 -13 -14 -13 -13 0 -18 48 -7 59 8 8 7 11 -2 11
-15 0 -5 61 13 72 8 6 8 8 0 8 -6 0 -17 -7 -24 -15 -7 -8 -19 -15 -27 -15 -10
0 -12 -6 -8 -20 7 -21 -9 -28 -21 -9 -3 6 8 26 26 44 21 22 29 38 24 46 -4 8
-7 26 -6 41 3 35 -5 36 -18 3z m-24 -190 c-3 -9 -10 -14 -15 -10 -6 3 -8 12
-4 20 3 9 -1 23 -8 33 -7 9 -2 7 10 -5 15 -13 21 -27 17 -38z m34 15 c0 -5 -5
-10 -11 -10 -5 0 -7 5 -4 10 3 6 8 10 11 10 2 0 4 -4 4 -10z m-45 -40 c3 -5
-3 -10 -14 -10 -12 0 -21 5 -21 10 0 6 6 10 14 10 8 0 18 -4 21 -10z m65 -20
c0 -11 5 -20 10 -20 6 0 10 -7 10 -15 0 -18 -12 -19 -28 -3 -15 15 -16 58 -2
58 6 0 10 -9 10 -20z"/>
<path d="M1375 2409 c-4 -6 -5 -12 -2 -15 2 -3 7 2 10 11 7 17 1 20 -8 4z"/>
<path d="M366 2379 c-31 -25 -33 -47 -5 -83 38 -48 109 -24 109 37 0 26 -40
67 -65 67 -7 0 -24 -9 -39 -21z m79 -23 c24 -36 5 -68 -38 -64 -24 2 -34 10
-41 30 -19 54 48 82 79 34z"/>
<path d="M920 2353 c-7 -27 -16 -52 -21 -57 -10 -12 -1 -33 28 -62 25 -25 27
-44 5 -52 -8 -2 -10 2 -6 13 6 15 -19 44 -38 45 -17 0 -7 -58 12 -75 16 -14
19 -27 15 -54 l-5 -36 15 38 c8 21 23 49 34 63 16 20 18 31 10 57 -5 17 -6 40
-3 49 3 12 0 18 -9 18 -12 0 -15 11 -13 50 4 63 -8 64 -24 3z"/>
<path d="M1646 2379 c3 -15 1 -30 -6 -34 -6 -4 -8 -15 -5 -26 4 -13 2 -19 -9
-19 -9 0 -13 -6 -10 -14 3 -8 1 -30 -4 -50 -9 -29 -7 -40 9 -60 25 -32 40 -72
33 -91 -8 -20 -20 -19 -57 7 l-32 22 19 -22 19 -22 -47 0 c-32 0 -56 -6 -72
-19 -22 -18 -23 -19 -4 -24 10 -3 21 0 23 7 3 8 8 8 17 -1 15 -14 40 -6 40 13
0 17 24 18 51 4 24 -14 24 -19 -5 -52 -23 -28 -59 -37 -71 -18 -3 6 -12 10
-18 10 -7 0 -3 -7 7 -15 17 -13 18 -18 7 -53 -7 -21 -12 -44 -11 -52 4 -27 0
-41 -10 -35 -6 3 -7 -1 -4 -9 8 -21 -10 -20 -27 0 -10 12 -10 20 -1 35 10 16
9 19 -5 20 -11 0 -13 3 -5 6 15 6 16 43 1 43 -7 0 -10 12 -7 30 6 40 -5 38
-31 -6 -20 -34 -21 -41 -9 -92 6 -30 14 -50 16 -44 3 9 12 7 33 -5 27 -16 29
-22 29 -78 0 -75 21 -119 78 -162 25 -19 38 -35 31 -39 -6 -3 -9 -15 -6 -25 4
-13 -4 -26 -24 -40 -16 -11 -27 -24 -25 -28 3 -4 -4 -7 -15 -7 -24 0 -24 7 3
52 l22 37 -34 28 c-20 17 -35 40 -38 56 -5 37 -12 43 -12 10 0 -33 -10 -34
-39 -3 -19 20 -21 28 -11 46 10 18 8 24 -7 36 -10 7 -21 14 -25 14 -5 0 -8 8
-8 18 0 13 -2 14 -9 3 -5 -7 -14 -10 -20 -7 -16 11 -13 26 5 26 14 0 14 3 4
15 -7 9 -21 13 -31 10 -13 -5 -19 -1 -19 10 0 11 5 15 15 11 18 -6 19 -1 5 25
-6 11 -7 25 -3 32 4 6 6 21 4 32 -3 17 -1 18 16 5 17 -14 17 -14 2 5 -25 31
-43 93 -30 108 11 14 4 60 -8 53 -13 -9 1 69 15 80 13 10 12 12 -1 18 -8 3
-15 17 -15 33 0 24 -4 28 -29 28 -24 0 -30 -5 -33 -27 -3 -16 -1 -28 4 -28 4
0 8 -5 8 -11 0 -6 -9 -8 -22 -4 -22 7 -22 6 -4 -7 15 -12 18 -22 13 -46 -5
-22 -3 -32 6 -32 8 0 7 -3 -2 -9 -18 -12 -23 -100 -7 -120 9 -12 8 -14 -4 -9
-9 3 -23 -5 -35 -21 -17 -23 -17 -24 -1 -11 16 13 18 12 15 -5 -2 -11 0 -26 5
-33 5 -8 4 -18 -3 -25 -14 -14 -15 -30 -1 -22 11 7 26 -22 16 -32 -3 -4 -11
-2 -18 5 -13 13 -33 -4 -48 -42 -5 -15 -21 -31 -35 -38 -26 -12 -31 -23 -15
-33 18 -11 10 -42 -15 -59 -30 -20 -32 -20 -38 2 -3 11 -5 9 -6 -8 -1 -17 -11
-31 -33 -43 -26 -15 -29 -20 -17 -28 12 -7 12 -10 1 -18 -12 -7 -11 -14 2 -39
20 -39 20 -41 -3 -39 -11 0 -18 4 -15 8 2 4 -9 17 -26 29 -19 13 -30 30 -30
45 0 14 -7 25 -20 28 -11 3 -20 12 -20 21 0 9 -5 16 -11 16 -5 0 -7 -5 -4 -10
12 -19 -16 -40 -52 -40 -30 0 -34 -2 -23 -15 6 -8 9 -19 5 -26 -8 -12 11 -29
33 -29 9 0 8 7 -4 25 -9 14 -15 27 -13 29 2 2 25 7 50 11 l46 7 7 -41 c4 -28
10 -39 20 -35 7 3 16 -2 19 -10 4 -10 1 -16 -8 -16 -7 0 -16 -13 -20 -30 -9
-39 -37 -47 -79 -21 -43 27 -97 27 -121 1 -17 -19 -17 -19 14 -7 22 8 36 9 48
1 23 -15 31 -39 9 -31 -9 4 -16 2 -16 -3 0 -16 21 -22 35 -10 9 8 20 8 31 2
21 -11 71 14 80 41 7 22 24 12 24 -14 0 -13 7 -19 23 -20 20 0 20 -1 3 -8 -14
-5 -16 -10 -7 -15 6 -4 18 -3 26 4 9 7 15 8 20 0 8 -12 -3 -32 -15 -25 -4 3
-10 -2 -14 -10 -6 -17 9 -21 19 -5 4 6 15 8 25 5 10 -3 20 0 23 9 3 8 18 16
34 18 19 2 29 9 30 23 5 55 19 79 53 88 65 17 113 -21 54 -43 -19 -7 -25 -16
-22 -33 2 -18 10 -23 43 -25 45 -4 58 -17 44 -44 -8 -14 -22 -18 -64 -18 -61
0 -100 -25 -111 -72 -9 -41 35 -82 79 -74 97 18 107 18 131 2 31 -19 42 -21
24 -3 -20 21 -54 37 -76 37 -24 0 -46 25 -37 41 6 8 10 8 15 -1 11 -18 41 -4
34 15 -5 11 -16 15 -38 13 -24 -2 -32 -8 -34 -26 -2 -13 2 -29 8 -37 9 -10 7
-15 -8 -19 -44 -14 -80 26 -61 68 13 28 55 46 108 46 42 0 61 14 61 47 0 23
-12 29 -69 35 -34 4 -38 26 -6 38 20 8 25 15 20 30 -6 18 -2 20 44 20 50 0 50
0 61 -40 6 -22 8 -46 5 -53 -4 -6 3 -1 15 13 12 14 24 24 26 23 10 -7 25 -2
19 6 -3 5 -1 12 5 16 5 3 10 1 10 -4 0 -6 8 -11 18 -11 13 0 14 -2 3 -9 -11
-7 -11 -9 0 -13 19 -7 10 -15 -26 -23 -29 -6 -29 -6 -11 9 22 18 14 21 -15 6
-22 -12 -25 -30 -5 -30 7 0 19 -6 26 -14 6 -8 17 -13 23 -11 7 3 19 0 27 -5
13 -9 13 -11 0 -20 -8 -5 -21 -8 -27 -5 -7 2 -13 0 -13 -5 0 -6 7 -10 15 -10
8 0 15 -7 15 -16 0 -11 -6 -15 -20 -11 -11 3 -22 2 -25 -3 -3 -4 5 -10 16 -13
12 -3 18 -10 14 -17 -4 -6 -15 -8 -26 -5 -10 4 -19 2 -19 -3 0 -5 9 -12 21
-15 12 -3 18 -10 14 -17 -4 -6 -16 -8 -27 -4 -19 6 -20 3 -15 -27 3 -19 9 -45
13 -59 6 -21 5 -23 -7 -12 -8 7 -17 41 -20 75 l-6 62 -1 -53 c-1 -31 4 -65 13
-82 18 -34 4 -40 -29 -15 -29 22 -71 18 -103 -9 l-28 -24 -28 24 c-33 28 -82
31 -115 8 -31 -21 -37 -13 -18 25 20 38 20 103 1 167 -9 31 -11 52 -5 58 7 7
10 4 10 -7 0 -23 17 -22 30 2 15 28 14 49 -2 33 -7 -7 -20 -12 -29 -12 -25 0
-29 -23 -13 -76 17 -58 18 -135 2 -156 -12 -15 -15 -14 -33 4 l-20 21 22 -5
c16 -4 23 0 27 16 10 38 7 48 -13 41 -11 -3 -22 -1 -26 5 -4 7 2 14 14 17 12
3 21 12 21 20 0 12 -3 13 -13 5 -8 -7 -18 -7 -27 -1 -12 7 -11 10 8 15 12 4
22 11 22 16 0 5 -9 7 -19 3 -11 -3 -22 -1 -26 5 -4 7 2 14 14 17 28 7 27 21
-2 19 -21 -1 -24 -6 -23 -36 1 -19 7 -40 15 -46 10 -8 11 -13 3 -18 -6 -4 -8
-14 -5 -24 6 -16 5 -16 -13 0 -16 14 -23 15 -32 6 -9 -9 -12 -9 -12 0 0 7 5
12 11 12 17 0 7 13 -39 55 -42 37 -44 38 -40 15 2 -19 -1 -25 -14 -24 -19 2
-25 -30 -8 -41 6 -3 10 -26 10 -51 0 -25 5 -54 10 -65 26 -48 116 -62 208 -33
49 16 81 14 112 -6 12 -8 13 -13 3 -30 -18 -27 -16 -35 3 -16 20 21 38 20 55
-1 13 -15 11 -16 -13 -10 -22 6 -30 2 -49 -25 -16 -22 -17 -28 -6 -19 10 8 17
9 17 3 0 -16 -34 -32 -69 -32 -23 0 -36 9 -58 37 -47 63 -57 66 -103 26 -26
-21 -36 -25 -57 -17 -29 10 -38 23 -50 77 -5 26 -17 44 -35 55 -26 15 -28 15
-49 -12 -26 -32 -58 -32 -75 2 -19 38 -28 44 -55 32 -19 -8 -20 -9 -4 -8 27 3
45 -9 45 -32 0 -30 31 -42 64 -24 57 29 96 13 96 -41 0 -39 25 -75 53 -75 12
0 36 9 52 20 46 30 71 25 119 -25 25 -25 47 -45 50 -45 20 0 76 31 84 47 10
17 13 16 41 -14 44 -48 70 -43 140 27 35 36 51 37 102 8 57 -32 90 -18 104 42
5 25 14 51 18 58 11 16 45 15 76 -2 33 -18 58 -9 70 25 7 22 16 29 35 29 38 0
38 15 0 17 -30 1 -36 -2 -49 -33 -9 -21 -21 -34 -32 -34 -24 0 -65 29 -58 41
4 5 0 9 -8 9 -29 0 -58 -36 -71 -85 -17 -68 -48 -80 -105 -41 -45 31 -63 27
-95 -22 -30 -45 -51 -55 -92 -42 -19 6 -34 16 -34 21 0 6 5 7 12 3 7 -4 8 -3
4 5 -4 6 -13 8 -19 4 -7 -4 -5 4 5 18 11 17 13 31 7 40 -16 25 -10 37 26 49
28 9 43 9 78 -4 71 -25 112 -28 156 -10 48 19 71 55 71 111 0 54 -13 71 -32
44 l-15 -22 -7 23 c-8 33 -8 35 10 42 8 3 12 2 9 -4 -4 -6 7 -10 27 -9 18 1
25 3 16 6 -12 3 -18 14 -18 31 0 25 -4 22 -64 -37 -59 -59 -63 -61 -63 -37 0
15 4 29 8 32 5 3 7 10 4 15 -4 5 -3 15 2 22 4 6 8 17 8 22 2 26 44 110 72 145
7 9 10 26 6 39 -4 16 -8 19 -14 10 -11 -18 -21 -6 -13 15 3 9 13 16 20 16 8 0
17 14 21 30 7 38 16 44 59 36 38 -8 42 -20 17 -48 -15 -17 -15 -18 3 -18 28 0
45 14 39 32 -7 18 55 54 79 45 23 -9 20 -31 -10 -66 -16 -20 -24 -39 -21 -51
4 -17 0 -20 -30 -20 -19 0 -53 -10 -75 -22 -33 -19 -42 -20 -60 -9 -16 10 -19
10 -16 0 2 -7 13 -17 24 -23 10 -6 22 -15 25 -20 4 -4 15 -3 25 2 13 7 25 7
38 0 12 -7 21 -7 29 1 8 8 6 11 -6 11 -20 0 -22 11 -5 28 31 31 108 -10 108
-58 0 -21 -14 -27 -25 -10 -3 6 -21 10 -39 10 -32 0 -33 -1 -27 -32 5 -22 13
-34 26 -36 16 -2 17 -1 6 6 -19 13 -7 42 17 42 11 0 26 -7 33 -16 11 -14 10
-18 -6 -30 -10 -8 -13 -14 -7 -14 19 0 14 -32 -10 -59 -13 -14 -15 -19 -5 -12
11 9 33 12 60 9 33 -4 44 -2 44 8 0 14 -5 16 -42 18 -11 1 -20 8 -20 16 0 10
8 14 28 12 27 -3 38 12 15 21 -21 7 5 42 34 45 29 3 47 -25 26 -40 -10 -7 -9
-9 2 -5 9 2 15 15 15 33 0 23 -5 30 -24 32 -13 2 -28 -1 -34 -7 -32 -32 -36 9
-6 59 l21 35 -21 -19 -21 -19 0 61 c0 62 16 95 22 45 2 -21 8 -27 22 -25 15 3
17 -1 12 -22 -5 -20 -3 -24 9 -20 20 8 65 -22 65 -42 0 -10 -6 -14 -15 -10 -8
3 -15 2 -15 -3 0 -16 38 -19 44 -4 5 12 8 12 27 0 29 -21 98 4 99 36 0 5 -7 1
-16 -7 -21 -22 -28 -20 -76 14 -26 19 -53 30 -75 30 -28 0 -33 4 -33 23 0 13
-11 34 -25 47 -26 24 -32 45 -16 55 5 3 31 -8 58 -23 33 -20 47 -34 45 -47 -2
-10 2 -22 10 -26 24 -16 29 -9 14 20 -9 16 -12 31 -9 35 11 11 52 6 59 -6 6
-9 10 -5 14 11 3 14 19 32 35 41 23 12 31 25 33 51 2 19 8 40 14 46 8 10 6 13
-4 13 -11 0 -17 14 -21 48 -3 26 -4 48 -2 50 2 2 12 -1 23 -7 19 -10 20 -8 13
17 -6 23 -13 27 -49 29 -31 1 -39 -2 -35 -13 3 -9 -2 -14 -15 -14 -26 0 -38
-18 -23 -33 8 -8 11 -8 11 1 0 17 26 15 44 -4 14 -14 23 -84 11 -84 -3 0 -14
5 -25 12 -10 7 -23 9 -27 5 -4 -5 -2 -11 4 -15 16 -10 -7 -82 -26 -82 -7 0
-11 -6 -8 -14 10 -26 -18 -38 -62 -26 -49 13 -55 21 -40 54 9 19 21 26 48 28
29 2 37 8 39 26 2 12 8 22 14 22 7 0 7 4 0 13 -6 7 -12 30 -14 52 -2 33 -7 41
-25 43 -19 3 -23 10 -23 40 0 60 10 64 63 31 41 -26 47 -27 47 -11 0 10 11 29
25 42 15 14 24 33 23 45 -2 15 2 20 17 18 20 -1 20 -1 1 13 -11 8 -25 14 -32
14 -7 0 -19 9 -27 21 -9 13 -17 16 -22 10 -3 -6 -10 -11 -16 -11 -14 0 -11 26
5 40 19 15 11 34 -20 48 -25 12 -33 47 -11 55 7 4 6 6 -4 6 -25 1 -30 -45 -8
-70 14 -16 16 -26 8 -40 -8 -15 -4 -24 17 -44 15 -14 31 -25 35 -25 14 0 29
-37 23 -54 -3 -9 -15 -16 -25 -16 -21 0 -24 11 -8 27 8 8 4 15 -13 27 -22 16
-23 16 -26 -10 -2 -17 5 -35 19 -50 33 -36 15 -41 -32 -9 -34 22 -43 24 -51
13 -8 -10 -9 -9 -4 5 3 9 1 17 -4 17 -6 0 -10 14 -10 30 0 17 -4 30 -10 30 -5
0 -10 18 -10 40 0 45 0 46 41 24 17 -8 33 -14 35 -11 2 2 -19 14 -46 27 -53
25 -68 49 -57 92 4 12 1 29 -6 37 -7 8 -12 35 -12 60 0 42 -2 45 -25 45 -16 0
-24 -5 -22 -14 6 -26 -8 -60 -26 -60 -13 0 -14 -2 -4 -9 15 -9 6 -61 -12 -73
-8 -5 -7 -8 2 -8 17 0 15 -39 -3 -46 -8 -4 -15 -13 -15 -21 0 -8 -5 -11 -12
-7 -10 6 -10 4 0 -7 30 -33 2 -90 -36 -70 -25 13 -51 99 -33 111 7 4 13 11 14
16 1 5 10 9 19 8 9 0 15 3 12 8 -10 15 -35 8 -60 -17 -14 -14 -26 -25 -28 -25
-1 0 -3 22 -3 50 0 36 4 53 18 66 11 9 19 30 19 46 0 25 -3 28 -21 23 -20 -7
-20 -6 -4 18 12 19 14 31 6 45 -5 10 -12 31 -15 45 -2 14 -9 34 -15 44 -10 15
-10 14 -5 -8z m8 -198 c-9 -10 -26 18 -18 30 5 9 9 8 14 -7 4 -10 6 -21 4 -23z
m236 19 c0 -5 -9 -10 -20 -10 -11 0 -20 5 -20 10 0 6 9 10 20 10 11 0 20 -4
20 -10z m-595 -100 c3 -5 1 -10 -4 -10 -6 0 -11 5 -11 10 0 6 2 10 4 10 3 0 8
-4 11 -10z m568 -15 c7 -16 -8 -29 -23 -20 -10 6 -2 35 10 35 4 0 10 -7 13
-15z m37 -11 c0 -8 -4 -14 -10 -14 -5 0 -10 9 -10 21 0 11 5 17 10 14 6 -3 10
-13 10 -21z m-230 -69 c10 -12 10 -15 -4 -15 -14 0 -14 -3 -4 -22 7 -13 19
-27 26 -31 14 -9 16 -56 2 -77 -7 -11 -10 -5 -10 25 l0 40 -15 -29 c-9 -16
-14 -35 -11 -42 3 -7 -2 -18 -11 -25 -12 -11 -18 -9 -34 11 -24 32 -24 42 1
71 17 21 21 22 30 9 8 -13 10 -13 10 1 0 18 -26 33 -40 24 -20 -12 -19 17 1
45 25 33 40 37 59 15z m190 -25 c0 -11 -4 -20 -10 -20 -5 0 -10 9 -10 20 0 11
5 20 10 20 6 0 10 -9 10 -20z m26 -17 c-11 -11 -19 6 -11 24 8 17 8 17 12 0 3
-10 2 -21 -1 -24z m39 8 c-9 -16 -25 -3 -18 15 4 10 9 12 15 6 6 -6 7 -15 3
-21z m-605 -11 c0 -3 -11 -7 -25 -8 -23 -2 -34 16 -19 31 6 6 44 -14 44 -23z
m510 16 c0 -3 -4 -8 -10 -11 -5 -3 -10 -1 -10 4 0 6 5 11 10 11 6 0 10 -2 10
-4z m-530 -46 c0 -5 -7 -10 -15 -10 -8 0 -15 5 -15 10 0 6 7 10 15 10 8 0 15
-4 15 -10z m458 -2 c18 -18 15 -68 -3 -68 -8 0 -15 -7 -15 -16 0 -8 -4 -12
-10 -9 -13 8 -13 -1 2 -24 15 -24 4 -51 -22 -51 -11 0 -20 -7 -20 -15 0 -8 -4
-15 -8 -15 -16 0 -21 13 -12 30 7 14 6 17 -8 16 -9 0 -21 -6 -27 -13 -12 -14
-75 -20 -94 -9 -10 7 -12 5 -7 -3 5 -7 5 -33 1 -58 -5 -33 -9 -42 -16 -32 -14
22 -11 99 6 115 8 8 12 21 9 29 -4 9 0 15 9 15 8 0 17 -7 21 -15 8 -22 69 -19
100 6 32 25 56 69 56 104 0 27 18 33 38 13z m-188 -31 c0 -24 -19 -42 -31 -30
-8 8 -8 16 1 32 11 22 30 20 30 -2z m320 -13 c0 -8 -7 -14 -15 -14 -15 0 -21
21 -9 33 10 9 24 -2 24 -19z m40 0 c0 -8 -7 -14 -15 -14 -15 0 -21 21 -9 33
10 9 24 -2 24 -19z m-670 6 c0 -5 -5 -10 -11 -10 -5 0 -7 5 -4 10 3 6 8 10 11
10 2 0 4 -4 4 -10z m35 -11 c-4 -5 -1 -9 4 -9 6 0 11 7 11 16 0 8 5 12 10 9
18 -11 -9 -35 -39 -35 -20 0 -23 2 -11 10 8 5 11 10 7 10 -5 0 -5 5 -2 10 4 6
11 8 16 4 5 -3 7 -10 4 -15z m505 5 c0 -8 -4 -12 -10 -9 -5 3 -10 10 -10 16 0
5 5 9 10 9 6 0 10 -7 10 -16z m50 1 c0 -8 -9 -15 -20 -15 -11 0 -20 7 -20 15
0 8 9 15 20 15 11 0 20 -7 20 -15z m-250 -45 c11 -21 6 -40 -12 -40 -5 0 -7 7
-4 15 3 9 -1 18 -9 21 -8 4 -12 10 -9 15 9 15 23 10 34 -11z m-344 -27 c-10
-10 -19 5 -10 18 6 11 8 11 12 0 2 -7 1 -15 -2 -18z m72 8 c4 -12 -3 -13 -35
-5 -13 4 -23 10 -23 14 0 13 53 5 58 -9z m-30 -33 c-6 -18 -28 -21 -28 -4 0 9
7 16 16 16 9 0 14 -5 12 -12z m502 -3 c0 -8 -4 -15 -10 -15 -5 0 -10 7 -10 15
0 8 5 15 10 15 6 0 10 -7 10 -15z m40 1 c0 -8 -4 -18 -10 -21 -5 -3 -10 3 -10
14 0 12 5 21 10 21 6 0 10 -6 10 -14z m40 -1 c0 -8 -4 -15 -10 -15 -5 0 -10 7
-10 15 0 8 5 15 10 15 6 0 10 -7 10 -15z m40 -6 c0 -5 -4 -9 -10 -9 -5 0 -10
7 -10 16 0 8 5 12 10 9 6 -3 10 -10 10 -16z m40 0 c0 -5 -7 -9 -15 -9 -15 0
-20 12 -9 23 8 8 24 -1 24 -14z m-750 -39 c0 -5 -4 -10 -10 -10 -5 0 -10 5
-10 10 0 6 5 10 10 10 6 0 10 -4 10 -10z m40 2 c0 -13 -12 -22 -22 -16 -10 6
-1 24 13 24 5 0 9 -4 9 -8z m48 -3 c-2 -6 -8 -10 -13 -10 -5 0 -11 4 -13 10
-2 6 4 11 13 11 9 0 15 -5 13 -11z m42 -4 c0 -8 -4 -15 -10 -15 -5 0 -10 7
-10 15 0 8 5 15 10 15 6 0 10 -7 10 -15z m331 -11 c8 -9 16 -40 19 -68 5 -49
6 -51 37 -54 43 -4 65 -39 37 -59 -24 -17 -65 -17 -90 2 -16 13 -17 16 -4 25
13 8 13 10 -1 10 -9 0 -19 -10 -22 -22 -8 -28 -17 -19 -38 38 -15 38 -15 45
-3 40 8 -3 14 -1 14 5 0 6 -8 13 -19 16 -10 2 -24 16 -30 29 -15 33 -14 34 9
34 11 0 20 -7 20 -15 0 -13 4 -14 20 -5 11 6 20 17 20 25 0 20 14 19 31 -1z
m74 -24 c4 -6 10 -8 15 -5 16 10 59 -6 63 -23 4 -14 6 -12 12 6 9 26 2 24 93
27 63 1 72 -1 72 -17 0 -10 7 -18 15 -18 9 0 15 -9 15 -25 l0 -25 -160 0 -160
0 -6 24 c-10 39 23 84 41 56z m-575 -18 c0 -5 -7 -9 -15 -9 -8 0 -15 4 -15 9
0 4 7 8 15 8 8 0 15 -4 15 -8z m255 -1 c3 -6 -4 -9 -15 -8 -11 1 -20 5 -20 9
0 11 28 10 35 -1z m140 -1 c8 -12 -5 -60 -16 -60 -5 0 -9 16 -9 35 0 33 12 46
25 25z m-267 -11 c-2 -6 -8 -10 -13 -10 -5 0 -11 4 -13 10 -2 6 4 11 13 11 9
0 15 -5 13 -11z m302 -88 c-1 -13 -4 -12 -15 3 -8 11 -15 27 -15 35 1 13 4 12
15 -3 8 -11 15 -27 15 -35z m-433 14 c7 -16 8 -27 1 -31 -5 -3 -10 -4 -11 -3
-1 2 -7 14 -14 25 -11 20 -8 34 6 34 3 0 11 -11 18 -25z m33 11 c0 -8 7 -17
16 -20 8 -3 12 -10 9 -16 -9 -15 -25 -12 -25 4 0 8 -7 17 -16 20 -8 3 -12 10
-9 16 9 15 25 12 25 -4z m50 6 c0 -13 -12 -22 -22 -16 -10 6 -1 24 13 24 5 0
9 -4 9 -8z m40 -2 c0 -5 -4 -10 -10 -10 -5 0 -10 5 -10 10 0 6 5 10 10 10 6 0
10 -4 10 -10z m48 -1 c-2 -6 -8 -10 -13 -10 -5 0 -11 4 -13 10 -2 6 4 11 13
11 9 0 15 -5 13 -11z m50 -7 c2 -7 -3 -12 -12 -12 -9 0 -16 7 -16 16 0 17 22
14 28 -4z m42 2 c0 -17 -22 -14 -28 4 -2 7 3 12 12 12 9 0 16 -7 16 -16z m388
-16 c-7 -19 -38 -22 -38 -4 0 10 9 16 21 16 12 0 19 -5 17 -12z m130 0 c-3 -7
-11 -13 -18 -13 -7 0 -15 6 -17 13 -3 7 4 12 17 12 13 0 20 -5 18 -12z m-828
-6 c0 -13 -12 -22 -22 -16 -10 6 -1 24 13 24 5 0 9 -4 9 -8z m193 -7 c1 -6
-11 -10 -28 -11 -35 -1 -47 4 -40 17 8 12 65 7 68 -6z m52 6 c7 -12 -12 -24
-25 -16 -11 7 -4 25 10 25 5 0 11 -4 15 -9z m45 -6 c0 -8 -4 -15 -9 -15 -13 0
-22 16 -14 24 11 11 23 6 23 -9z m51 2 c-1 -12 -15 -9 -19 4 -3 6 1 10 8 8 6
-3 11 -8 11 -12z m389 -12 c0 -15 -6 -25 -14 -25 -22 0 -30 19 -16 35 18 22
30 18 30 -10z m22 -172 c-2 -81 -7 -143 -13 -143 -5 0 -9 20 -9 45 0 36 -5 51
-25 68 -13 12 -27 35 -31 50 -6 26 -5 28 22 24 20 -2 31 -11 35 -28 4 -13 8
23 9 81 1 61 5 92 9 75 3 -16 5 -94 3 -172z m33 174 c0 -26 -20 -25 -23 2 -3
16 1 22 10 19 7 -3 13 -12 13 -21z m233 0 c2 -12 -3 -17 -17 -17 -15 0 -21 6
-21 21 0 25 33 22 38 -4z m-674 -46 c-5 -3 -12 -10 -15 -14 -4 -4 -9 -1 -13 8
-3 9 -2 13 4 10 6 -3 10 -1 10 5 0 6 5 8 11 4 6 -3 7 -9 3 -13z m86 -1 c0 -5
-4 -10 -10 -10 -5 0 -10 5 -10 10 0 6 5 10 10 10 6 0 10 -4 10 -10z m-290 -10
c0 -5 -2 -10 -4 -10 -3 0 -8 5 -11 10 -3 6 -1 10 4 10 6 0 11 -4 11 -10z m55
0 c3 -5 1 -10 -4 -10 -6 0 -11 5 -11 10 0 6 2 10 4 10 3 0 8 -4 11 -10z m-132
-37 c-7 -2 -21 -2 -30 0 -10 3 -4 5 12 5 17 0 24 -2 18 -5z m214 1 c-3 -3 -12
-4 -19 -1 -8 3 -5 6 6 6 11 1 17 -2 13 -5z m-152 -24 c3 -5 1 -10 -4 -10 -6 0
-11 5 -11 10 0 6 2 10 4 10 3 0 8 -4 11 -10z m102 -6 c-3 -3 -12 -4 -19 -1 -8
3 -5 6 6 6 11 1 17 -2 13 -5z m-331 -46 c4 -6 2 -14 -4 -16 -7 -2 -10 -8 -6
-13 3 -5 1 -9 -3 -9 -12 0 -33 37 -26 44 10 10 31 7 39 -6z m36 -3 c0 -5 -5
-11 -11 -13 -6 -2 -11 4 -11 13 0 9 5 15 11 13 6 -2 11 -8 11 -13z m475 -11
c-9 -9 -28 6 -21 18 4 6 10 6 17 -1 6 -6 8 -13 4 -17z m53 14 c0 -16 -17 -44
-23 -38 -3 3 -8 15 -11 28 -6 18 -3 22 13 22 12 0 21 -6 21 -12z m-433 -20
c-3 -8 -6 -5 -6 6 -1 11 2 17 5 13 3 -3 4 -12 1 -19z m-52 -9 c0 -8 6 -14 14
-14 8 0 16 -6 19 -13 3 -9 -3 -10 -24 -2 -24 9 -25 9 -14 -5 10 -12 10 -15 -1
-15 -8 0 -21 5 -29 10 -12 8 -13 11 -1 19 11 7 11 9 0 14 -10 4 -8 6 4 6 11 1
15 6 11 12 -4 7 -1 10 7 7 8 -3 14 -11 14 -19z m449 -54 c-17 -26 -26 -30 -37
-18 -9 9 13 34 24 27 5 -3 9 0 9 5 0 6 5 11 10 11 6 0 3 -11 -6 -25z m-579
-125 c3 -6 3 -20 0 -31 -6 -18 -9 -19 -21 -7 -8 8 -12 22 -8 31 7 19 20 22 29
7z m-45 -20 c0 -5 -4 -10 -10 -10 -5 0 -10 5 -10 10 0 6 5 10 10 10 6 0 10 -4
10 -10z m645 -30 c3 -5 2 -10 -4 -10 -5 0 -13 5 -16 10 -3 6 -2 10 4 10 5 0
13 -4 16 -10z m-621 -19 c3 -5 -1 -11 -9 -15 -9 -3 -15 0 -15 9 0 16 16 20 24
6z m686 0 c0 -5 -7 -11 -15 -15 -15 -5 -20 5 -8 17 9 10 23 9 23 -2z m-600
-15 c0 -8 -4 -18 -10 -21 -5 -3 -10 3 -10 14 0 12 5 21 10 21 6 0 10 -6 10
-14z m70 4 c0 -5 -7 -10 -15 -10 -8 0 -15 5 -15 10 0 6 7 10 15 10 8 0 15 -4
15 -10z m380 0 c0 -5 -7 -10 -15 -10 -8 0 -15 5 -15 10 0 6 7 10 15 10 8 0 15
-4 15 -10z m-422 -30 c-1 -24 -5 -30 -24 -30 -23 0 -23 0 -6 30 22 38 31 38
30 0z m452 15 c0 -8 -4 -15 -10 -15 -5 0 -10 7 -10 15 0 8 5 15 10 15 6 0 10
-7 10 -15z m30 6 c0 -6 -4 -13 -10 -16 -5 -3 -10 1 -10 9 0 9 5 16 10 16 6 0
10 -4 10 -9z m-560 -30 c0 -17 5 -33 10 -36 6 -3 10 -11 10 -17 0 -6 -9 -3
-20 7 -21 19 -28 75 -10 75 6 0 10 -13 10 -29z m610 -5 c0 -13 -9 -31 -20 -41
-11 -10 -20 -13 -20 -7 0 6 5 14 10 17 6 3 10 20 10 36 0 18 4 28 10 24 6 -3
10 -16 10 -29z m-110 4 c0 -5 -4 -10 -10 -10 -5 0 -10 5 -10 10 0 6 5 10 10
10 6 0 10 -4 10 -10z m55 -10 c3 -5 0 -10 -7 -10 -9 0 -9 -3 2 -10 12 -7 12
-12 2 -22 -10 -10 -14 -8 -18 10 -4 12 -11 22 -16 22 -5 0 -6 5 -3 10 3 6 12
10 20 10 8 0 17 -4 20 -10z m-497 -31 c-2 -6 -8 -10 -13 -10 -5 0 -11 4 -13
10 -2 6 4 11 13 11 9 0 15 -5 13 -11z m40 -12 c2 -11 -1 -15 -11 -12 -16 7
-19 37 -3 32 6 -2 12 -11 14 -20z m399 -9 c-3 -8 -6 -5 -6 6 -1 11 2 17 5 13
3 -3 4 -12 1 -19z"/>
<path d="M1721 1658 c0 -28 2 -30 9 -13 12 28 12 45 0 45 -5 0 -10 -15 -9 -32z"/>
<path d="M1770 1661 c0 -25 6 -27 13 -6 4 8 2 17 -3 20 -6 4 -10 -3 -10 -14z"/>
<path d="M1872 1660 c0 -14 2 -19 5 -12 2 6 2 18 0 25 -3 6 -5 1 -5 -13z"/>
<path d="M1950 1670 c0 -5 5 -10 10 -10 6 0 10 5 10 10 0 6 -4 10 -10 10 -5 0
-10 -4 -10 -10z"/>
<path d="M1910 1659 c0 -5 5 -7 10 -4 6 3 10 8 10 11 0 2 -4 4 -10 4 -5 0 -10
-5 -10 -11z"/>
<path d="M2126 2334 c-21 -31 -36 -58 -33 -61 7 -6 119 18 132 29 5 4 -2 8
-18 8 -32 0 -55 34 -37 55 6 7 7 16 3 18 -5 3 -26 -19 -47 -49z m34 -24 c0 -5
-2 -10 -4 -10 -2 0 -12 -3 -20 -6 -12 -5 -15 -2 -10 10 7 17 34 22 34 6z"/>
<path d="M710 2336 c0 -8 -3 -21 -6 -30 -3 -9 -2 -16 4 -16 13 0 22 49 11 56
-5 3 -9 -1 -9 -10z"/>
<path d="M1392 2320 c0 -14 2 -19 5 -12 2 6 2 18 0 25 -3 6 -5 1 -5 -13z"/>
<path d="M648 2323 c6 -2 18 -2 25 0 6 3 1 5 -13 5 -14 0 -19 -2 -12 -5z"/>
<path d="M1280 2310 c0 -11 2 -20 5 -20 2 0 9 9 15 20 9 16 8 20 -5 20 -8 0
-15 -9 -15 -20z"/>
<path d="M1867 2316 c-4 -10 -5 -21 -2 -24 9 -9 17 6 13 25 -3 17 -4 17 -11
-1z"/>
<path d="M1180 2309 c0 -5 5 -7 10 -4 6 3 10 8 10 11 0 2 -4 4 -10 4 -5 0 -10
-5 -10 -11z"/>
<path d="M290 2272 c0 -5 18 -17 41 -27 34 -16 38 -20 23 -26 -11 -4 -36 -8
-56 -8 -21 -1 -38 -5 -38 -11 0 -8 90 -60 105 -60 17 0 0 19 -32 35 l-38 20
54 5 c30 3 56 10 58 15 2 6 -22 23 -52 38 -61 30 -65 31 -65 19z"/>
<path d="M1219 2259 c12 -12 25 -18 28 -15 4 3 -2 13 -13 21 -29 22 -41 18
-15 -6z"/>
<path d="M1346 2265 c-11 -8 -17 -18 -13 -21 3 -3 16 3 28 15 26 24 14 28 -15
6z"/>
<path d="M689 2266 c-1 -1 -3 -23 -5 -51 -3 -27 -9 -54 -14 -59 -6 -6 -10 -30
-10 -54 0 -27 -6 -49 -14 -56 -10 -7 -13 -21 -9 -39 5 -25 7 -26 18 -11 16 22
45 11 45 -16 0 -11 -4 -20 -10 -20 -5 0 -10 5 -10 11 0 8 -4 9 -13 0 -8 -6
-17 -8 -20 -5 -12 13 -36 -25 -39 -61 -2 -40 -15 -55 -29 -34 -10 16 -11 11
-9 -58 1 -47 -1 -52 -22 -55 -21 -3 -23 -8 -26 -75 l-3 -73 35 0 c19 0 37 -4
40 -9 3 -4 17 -6 31 -3 17 3 25 0 25 -9 0 -11 2 -11 10 1 8 12 11 11 17 -10
l7 -25 7 25 c4 14 7 -55 8 -152 1 -113 -3 -178 -9 -178 -5 0 -10 11 -10 25 0
14 -3 24 -7 23 -5 0 -16 2 -25 6 -27 12 -61 3 -64 -18 -4 -27 6 -46 25 -46 13
0 13 2 2 9 -24 15 -5 43 26 39 20 -2 29 -9 31 -25 2 -13 -2 -23 -9 -23 -8 0
-8 -4 1 -15 9 -11 16 -12 25 -5 9 8 15 8 20 0 9 -15 -2 -25 -28 -25 -11 0 -22
-5 -24 -11 -2 -7 13 -12 42 -12 25 -1 45 3 45 8 0 6 -4 10 -10 10 -5 0 -10 9
-10 20 0 11 5 20 12 20 9 0 9 3 0 12 -7 7 -12 18 -12 24 0 19 39 27 56 13 14
-12 14 -14 -1 -25 -14 -11 -10 -12 26 -8 99 10 109 13 84 34 -10 8 -15 9 -15
1 0 -6 -16 -11 -36 -11 -31 0 -35 3 -29 20 6 17 2 20 -29 20 -19 0 -38 -4 -41
-10 -15 -24 -22 -5 -23 66 -2 64 0 75 12 71 9 -4 18 -1 22 5 4 7 9 6 15 -3 7
-11 9 -11 9 2 0 8 -11 26 -26 40 -18 17 -23 19 -18 6 3 -10 1 -17 -6 -17 -6 0
-10 11 -8 28 2 21 10 29 35 36 33 10 56 47 23 39 -9 -3 -20 2 -23 10 -4 12 8
16 59 22 l64 7 0 74 c0 67 -2 74 -20 74 -22 0 -24 6 -21 61 3 40 -11 49 -76
49 -22 0 -33 5 -33 14 0 21 21 31 31 15 7 -11 9 -9 9 6 0 15 3 16 12 7 19 -19
28 -14 28 13 0 14 -4 25 -10 25 -5 0 -10 22 -10 49 0 36 -4 51 -16 55 -10 4
-14 14 -11 26 3 10 -2 49 -9 86 -8 37 -13 74 -12 82 2 9 -6 16 -19 17 -13 1
-23 1 -24 1z m31 -66 c0 -5 -7 -10 -15 -10 -8 0 -15 5 -15 10 0 6 7 10 15 10
8 0 15 -4 15 -10z m20 -121 c0 -10 -7 -19 -15 -19 -15 0 -21 31 -9 43 11 10
24 -3 24 -24z m-40 -5 c0 -8 -7 -14 -15 -14 -15 0 -21 21 -9 33 10 9 24 -2 24
-19z m30 -94 c0 -11 -4 -20 -10 -20 -5 0 -10 9 -10 20 0 11 5 20 10 20 6 0 10
-9 10 -20z m-70 -81 c0 -8 4 -8 15 1 17 14 37 4 33 -17 -2 -10 -17 -17 -40
-19 -38 -3 -43 1 -32 30 7 18 24 22 24 5z m46 -125 c-4 -12 -10 -14 -17 -7 -5
5 -7 17 -3 27 4 12 10 14 17 7 5 -5 7 -17 3 -27z m-72 10 c6 -16 -10 -29 -19
-15 -3 6 -12 8 -20 4 -9 -3 -15 1 -15 8 0 18 47 21 54 3z m36 -4 c0 -11 -4
-20 -10 -20 -5 0 -10 9 -10 20 0 11 5 20 10 20 6 0 10 -9 10 -20z m80 -6 c0
-16 -16 -19 -25 -4 -8 13 4 32 16 25 5 -4 9 -13 9 -21z m40 5 c0 -24 -23 -21
-28 4 -2 10 3 17 12 17 10 0 16 -9 16 -21z m-33 -82 c6 -4 14 -4 16 0 6 10 59
9 75 -1 15 -9 16 -56 2 -56 -9 0 -15 21 -11 43 0 4 -4 7 -9 7 -13 0 -1 -52 14
-62 20 -14 -258 -9 -287 5 -28 13 -40 54 -12 43 10 -3 15 1 15 13 0 17 9 18
93 17 50 -1 97 -5 104 -9z m-17 -122 c9 -11 10 -19 2 -27 -14 -14 -32 -1 -32
23 0 23 13 25 30 4z"/>
<path d="M730 1674 c0 -8 5 -12 10 -9 6 3 10 10 10 16 0 5 -4 9 -10 9 -5 0
-10 -7 -10 -16z"/>
<path d="M780 1668 c0 -19 2 -20 10 -8 13 19 13 30 0 30 -5 0 -10 -10 -10 -22z"/>
<path d="M680 1664 c0 -8 5 -12 10 -9 6 4 8 11 5 16 -9 14 -15 11 -15 -7z"/>
<path d="M1301 2254 c0 -11 3 -14 6 -6 3 7 2 16 -1 19 -3 4 -6 -2 -5 -13z"/>
<path d="M2203 2242 c-10 -11 -26 -22 -35 -25 -18 -6 -23 -32 -12 -61 5 -13
15 -11 65 15 56 28 59 31 48 52 -22 40 -40 46 -66 19z m44 -18 c7 -18 -17 -38
-31 -24 -11 11 -1 40 14 40 6 0 13 -7 17 -16z m-49 -36 c-6 -18 -28 -21 -28
-4 0 9 7 16 16 16 9 0 14 -5 12 -12z"/>
<path d="M588 2233 c7 -3 16 -2 19 1 4 3 -2 6 -13 5 -11 0 -14 -3 -6 -6z"/>
<path d="M2038 2223 c7 -3 16 -2 19 1 4 3 -2 6 -13 5 -11 0 -14 -3 -6 -6z"/>
<path d="M230 2120 c-32 -32 -22 -100 15 -100 7 0 16 16 22 35 6 19 7 35 3 35
-5 0 -12 -9 -15 -20 -9 -27 -25 -25 -25 3 0 29 18 47 45 47 43 0 60 -47 28
-82 -22 -24 -13 -32 15 -12 22 15 29 57 14 80 -10 15 -47 34 -66 34 -9 0 -25
-9 -36 -20z"/>
<path d="M540 2121 c-20 -6 -22 -8 -8 -13 9 -4 22 -1 28 8 7 8 11 14 9 13 -2
-1 -15 -4 -29 -8z"/>
<path d="M955 2082 c-16 -10 -34 -23 -39 -31 -6 -10 -14 -7 -32 15 l-24 29 6
-28 c8 -33 -14 -117 -30 -117 -8 0 -8 -2 0 -8 6 -4 14 -25 17 -47 12 -77 107
-133 151 -89 21 20 34 11 28 -21 -3 -18 -1 -25 9 -23 20 4 17 -71 -6 -118
l-18 -38 -14 27 c-14 28 -37 35 -49 15 -5 -7 -3 -8 6 -3 14 8 14 9 -8 -62
l-11 -33 29 15 c62 32 108 122 97 191 -4 26 -1 35 23 53 16 11 33 21 38 21 5
0 15 20 21 44 9 38 8 49 -7 75 -22 40 -40 47 -34 14 3 -15 -1 -29 -9 -34 -11
-7 -12 -12 -1 -29 16 -25 15 -31 -2 -24 -8 3 -17 1 -21 -5 -3 -6 1 -11 9 -11
20 0 20 -11 2 -36 -15 -19 -15 -19 -30 1 -9 11 -14 29 -11 41 2 11 0 36 -5 54
-7 23 -6 38 1 47 14 16 5 17 -21 1 -18 -11 -23 -9 -45 17 -39 48 -30 75 27 75
13 0 18 -5 15 -14 -3 -8 2 -16 13 -19 11 -3 21 0 23 6 3 9 11 9 30 0 15 -7 27
-8 27 -3 0 19 -46 40 -88 40 -35 0 -43 3 -38 15 3 8 4 15 3 14 -1 0 -15 -8
-32 -17z m-3 -87 c6 -14 15 -25 20 -25 4 0 8 -7 8 -15 0 -10 -10 -15 -30 -15
-22 0 -30 -5 -30 -17 0 -15 2 -15 9 -4 12 19 31 4 60 -44 16 -28 17 -34 5 -39
-9 -3 -13 -10 -9 -15 11 -19 -12 -19 -43 -1 -20 13 -30 25 -26 34 3 8 -1 25
-10 38 l-16 22 0 -27 c0 -31 -15 -29 -23 4 -4 14 2 28 17 43 27 25 40 56 24
56 -7 0 -6 5 2 15 18 21 29 19 42 -10z m79 -96 c8 -16 8 -24 0 -32 -14 -14
-31 6 -31 36 0 23 17 22 31 -4z m-55 -317 c-20 -20 -22 -1 -4 31 11 20 12 21
16 3 2 -10 -3 -26 -12 -34z"/>
<path d="M960 1840 c-6 -11 -8 -20 -6 -20 3 0 10 9 16 20 6 11 8 20 6 20 -3 0
-10 -9 -16 -20z"/>
<path d="M536 2069 c-11 -11 -25 -19 -33 -19 -16 0 -18 -36 -2 -46 6 -3 8 -15
6 -26 -5 -16 -3 -17 10 -7 9 8 13 23 9 40 -4 20 0 31 16 41 11 8 19 19 17 25
-2 6 -12 2 -23 -8z"/>
<path d="M1140 2045 c-7 -8 -8 -15 -2 -15 5 0 15 7 22 15 7 8 8 15 2 15 -5 0
-15 -7 -22 -15z"/>
<path d="M1420 2045 c7 -8 17 -15 22 -15 6 0 5 7 -2 15 -7 8 -17 15 -22 15 -6
0 -5 -7 2 -15z"/>
<path d="M2268 2043 c-32 -8 -58 -20 -58 -25 0 -6 11 -7 27 -4 17 5 29 3 34
-6 15 -23 10 -36 -16 -42 -14 -4 -25 -10 -25 -15 0 -5 26 -2 58 6 68 18 94 36
42 31 -30 -3 -35 0 -38 19 -3 17 3 24 22 29 14 3 26 10 26 15 0 11 -1 11 -72
-8z"/>
<path d="M205 1975 l30 -14 -32 -13 c-18 -7 -33 -16 -33 -20 0 -10 1 -10 39 3
29 10 35 9 62 -17 16 -15 29 -23 29 -17 0 5 -9 18 -20 28 -27 25 -25 38 5 31
14 -4 25 -2 25 3 0 5 -23 14 -50 20 -69 15 -93 13 -55 -4z"/>
<path d="M464 1973 c-6 -9 -26 -22 -45 -29 -25 -9 -28 -13 -12 -13 16 -1 20
-6 16 -22 -4 -13 3 -30 22 -49 25 -26 27 -33 17 -55 -11 -23 -16 -25 -46 -20
-20 4 -36 2 -40 -4 -4 -7 -1 -9 8 -5 21 8 20 -4 -2 -24 -9 -10 -13 -14 -8 -9
26 19 36 6 33 -43 -2 -46 -4 -50 -26 -50 -22 0 -23 -1 -8 -12 9 -7 17 -29 19
-48 2 -29 9 -38 36 -49 23 -11 31 -19 27 -32 -7 -21 11 -35 19 -14 3 8 12 12
21 10 51 -16 49 -13 31 -40 -16 -24 -16 -25 4 -25 17 0 20 4 15 20 -5 15 3 25
35 45 54 34 62 37 79 26 12 -8 9 -16 -17 -46 -18 -19 -32 -37 -32 -38 0 -1 11
-3 25 -3 21 -2 25 3 25 25 0 20 2 23 10 11 7 -11 10 -3 10 28 0 24 -4 41 -9
37 -6 -3 -14 3 -20 12 -6 10 -11 14 -11 9 0 -5 -6 -3 -14 3 -12 10 -13 8 -9
-8 4 -17 -2 -24 -32 -37 -48 -20 -89 -11 -82 16 3 12 0 20 -7 20 -7 0 -18 17
-24 39 -15 50 -16 49 11 54 19 4 18 4 -6 6 -16 0 -30 -5 -33 -14 -9 -23 -24
-7 -24 26 0 44 17 69 46 69 17 0 23 -4 18 -12 -5 -10 -4 -10 6 -1 16 14 5 33
-21 33 -32 0 -19 24 36 66 19 15 19 15 -2 4 -29 -14 -31 4 -4 28 10 10 21 32
25 50 l6 32 -27 -17 c-22 -15 -24 -18 -9 -21 25 -5 14 -27 -15 -27 -32 0 -37
30 -9 60 15 16 19 28 13 39 -8 14 -10 14 -19 -1z m0 -408 c-7 -18 -54 -20 -54
-2 0 7 5 18 12 25 15 15 49 -3 42 -23z"/>
<path d="M2240 1908 c0 -33 15 -55 23 -34 4 9 25 18 57 22 27 4 50 11 50 16 0
6 -22 7 -55 3 -38 -5 -55 -4 -55 4 0 6 -4 11 -10 11 -5 0 -10 -10 -10 -22z"/>
<path d="M167 1863 c-14 -13 -6 -53 12 -63 26 -13 112 -14 91 0 -8 5 -31 10
-51 10 -22 0 -39 6 -42 14 -9 22 2 26 62 26 40 0 52 3 41 10 -17 11 -103 14
-113 3z"/>
<path d="M2357 1843 c-13 -13 -19 -14 -29 -5 -29 29 -78 7 -78 -34 0 -31 8
-34 73 -27 55 6 80 23 35 23 l-23 1 23 19 c13 11 22 24 20 30 -2 6 -11 3 -21
-7z m-41 -42 c-4 -6 -16 -11 -27 -11 -21 0 -27 35 -6 43 16 6 41 -18 33 -32z"/>
<path d="M913 1769 c-9 -9 -5 -20 14 -45 26 -35 50 -46 40 -19 -4 8 -2 17 4
21 11 7 41 -15 34 -25 -2 -4 2 -8 10 -8 9 0 13 10 12 27 -1 15 -6 27 -12 27
-29 -1 -94 17 -89 24 7 13 0 11 -13 -2z"/>
<path d="M1096 1761 c-4 -5 -3 -19 2 -30 7 -20 8 -19 19 9 9 24 9 30 -2 30 -8
0 -16 -4 -19 -9z"/>
<path d="M1440 1761 c0 -5 6 -14 14 -20 11 -9 16 -9 21 0 4 6 1 15 -6 20 -18
11 -29 11 -29 0z"/>
<path d="M260 1750 c0 -5 -25 -10 -56 -10 -34 0 -53 -4 -49 -10 3 -5 28 -10
54 -10 26 0 52 -5 59 -12 9 -9 12 -5 12 20 0 18 -4 32 -10 32 -5 0 -10 -4 -10
-10z"/>
<path d="M2293 1740 c-43 -17 -55 -68 -23 -100 41 -41 113 -13 113 46 0 43
-46 71 -90 54z m62 -30 c26 -29 7 -70 -33 -70 -49 0 -69 42 -36 74 21 22 47
20 69 -4z"/>
<path d="M1091 1684 c0 -11 3 -14 6 -6 3 7 2 16 -1 19 -3 4 -6 -2 -5 -13z"/>
<path d="M265 1680 c-4 -6 -11 -7 -17 -4 -7 4 -8 2 -4 -4 9 -14 33 -16 41 -3
3 5 1 12 -4 15 -5 4 -12 2 -16 -4z"/>
<path d="M1471 1664 c0 -11 3 -14 6 -6 3 7 2 16 -1 19 -3 4 -6 -2 -5 -13z"/>
<path d="M1081 1644 c0 -11 3 -14 6 -6 3 7 2 16 -1 19 -3 4 -6 -2 -5 -13z"/>
<path d="M172 1618 c-17 -17 -15 -45 4 -56 26 -15 52 -3 63 29 13 37 36 39 27
3 -5 -19 -3 -25 6 -22 7 3 13 16 13 29 0 18 -6 25 -26 27 -22 3 -29 -2 -38
-28 -13 -38 -37 -35 -34 4 2 30 1 30 -15 14z"/>
<path d="M2250 1589 c0 -10 27 -19 56 -19 39 0 28 -15 -23 -31 -59 -18 -65
-35 -16 -43 21 -4 50 -9 66 -12 15 -3 27 -1 27 4 0 5 -20 13 -45 17 -54 8 -51
18 10 35 25 7 45 18 45 24 0 7 -26 17 -60 22 -33 6 -60 7 -60 3z"/>
<path d="M260 1432 c-39 -15 -45 -21 -45 -47 0 -28 2 -30 40 -29 43 1 102 21
92 30 -3 4 -27 -1 -53 -10 -30 -10 -51 -13 -57 -7 -17 17 0 37 42 51 23 7 41
17 41 22 0 11 -8 10 -60 -10z"/>
<path d="M576 1412 c-24 -2 -56 -15 -82 -34 -31 -22 -48 -28 -64 -23 -14 4
-20 3 -16 -3 3 -5 22 -13 41 -16 30 -6 39 -3 55 16 l19 23 1 -22 c0 -18 6 -23
25 -23 14 0 25 4 25 9 0 5 -7 8 -16 7 -28 -2 -27 22 1 40 21 14 30 15 52 5 25
-11 25 -11 13 6 -8 10 -14 18 -15 18 0 0 -18 -1 -39 -3z"/>
<path d="M2190 1383 c0 -6 9 -18 20 -28 29 -26 25 -35 -15 -35 -19 0 -35 -3
-35 -8 0 -4 20 -6 44 -4 24 2 53 -1 64 -7 14 -7 23 -8 27 -1 3 5 1 10 -5 10
-6 0 -31 19 -55 41 -25 23 -45 37 -45 32z"/>
<path d="M659 1351 c5 -9 11 -23 14 -31 3 -8 6 -1 6 16 1 20 -4 31 -13 31 -10
0 -12 -5 -7 -16z"/>
<path d="M305 1323 c-58 -30 -60 -31 -53 -39 4 -3 20 2 38 11 43 22 47 13 16
-28 -27 -36 -33 -57 -16 -57 20 0 115 53 103 57 -6 2 -26 -3 -43 -12 -18 -9
-34 -15 -36 -12 -2 2 10 23 27 47 17 23 27 46 22 50 -4 5 -30 -3 -58 -17z"/>
<path d="M1400 1284 c0 -12 7 -24 15 -28 9 -3 15 0 15 9 0 22 18 18 23 -5 4
-17 4 -16 3 2 -1 16 -7 23 -21 23 -11 0 -23 5 -27 10 -4 6 -8 0 -8 -11z"/>
<path d="M1657 1270 c-18 -18 -18 -18 0 -16 10 2 19 10 21 19 4 21 2 21 -21
-3z"/>
<path d="M531 1261 c-10 -6 -9 -10 3 -14 8 -3 18 -2 21 3 8 13 -9 20 -24 11z"/>
<path d="M1690 1261 c0 -12 29 -23 41 -15 18 10 9 24 -16 24 -14 0 -25 -4 -25
-9z"/>
<path d="M1995 1260 c-8 -13 9 -20 24 -11 10 6 9 10 -3 14 -8 3 -18 2 -21 -3z"/>
<path d="M2130 1250 c-11 -11 -20 -27 -20 -36 0 -19 19 -56 34 -66 20 -14 63
-8 79 10 21 23 22 75 3 91 -11 9 -18 4 -35 -24 -20 -35 -15 -48 9 -20 19 22
35 3 21 -24 -13 -24 -59 -29 -79 -9 -20 20 -13 55 16 77 21 16 23 20 10 21
-10 0 -27 -9 -38 -20z"/>
<path d="M356 1199 c-26 -17 -46 -33 -42 -36 6 -6 92 42 101 57 11 17 -9 10
-59 -21z"/>
<path d="M789 1196 c7 -8 9 -29 5 -53 -4 -30 -2 -43 13 -59 10 -11 14 -14 8
-6 -6 10 -4 18 8 27 19 14 23 35 7 35 -6 0 -10 6 -8 13 3 17 -20 57 -34 57 -7
0 -7 -4 1 -14z"/>
<path d="M1743 1191 c-16 -13 -20 -25 -16 -41 4 -16 3 -21 -5 -16 -19 11 -14
-15 5 -29 15 -11 15 -15 3 -31 -13 -18 -13 -18 5 -2 13 12 21 37 25 78 3 33 6
60 5 60 0 -1 -10 -9 -22 -19z"/>
<path d="M396 1145 c-20 -31 -35 -59 -32 -62 9 -9 137 28 131 37 -3 5 -26 2
-51 -7 -25 -8 -48 -13 -51 -10 -3 3 7 22 22 41 15 19 25 40 23 47 -2 6 -21
-14 -42 -46z"/>
<path d="M2054 1132 c-55 -36 -24 -122 45 -122 27 0 63 48 55 74 -12 43 -68
70 -100 48z m71 -32 c15 -17 16 -24 7 -45 -14 -31 -51 -33 -77 -5 -15 17 -16
24 -7 45 14 31 51 33 77 5z"/>
<path d="M643 1105 c4 -10 61 -15 85 -7 27 9 9 17 -38 17 -29 0 -49 -4 -47
-10z"/>
<path d="M1810 1105 c16 -19 91 -17 98 3 3 9 -12 12 -53 12 -51 0 -56 -2 -45
-15z"/>
<path d="M460 1050 l-45 -39 22 -22 c24 -25 44 -19 23 6 -17 21 3 46 22 27 19
-19 30 -14 17 9 -16 32 4 48 31 24 11 -10 20 -14 20 -8 0 10 -32 43 -41 43 -2
0 -24 -18 -49 -40z"/>
<path d="M531 984 c-24 -25 -40 -48 -37 -52 4 -3 12 0 18 6 19 19 25 14 20
-18 -3 -18 0 -30 7 -30 6 0 11 11 11 24 0 19 6 25 28 28 34 4 43 45 14 71 -18
17 -21 16 -61 -29z m62 2 c8 -19 -15 -37 -33 -26 -11 7 -11 11 -1 24 17 20 27
20 34 2z"/>
<path d="M1957 1023 c-4 -6 14 -29 38 -53 43 -43 45 -43 64 -25 23 20 18 43
-5 24 -12 -10 -22 -5 -53 25 -21 21 -41 34 -44 29z"/>
<path d="M1119 961 c12 -12 21 -27 21 -35 0 -18 38 -46 60 -45 10 0 7 4 -7 11
-25 12 -30 34 -10 41 20 7 -13 34 -52 42 l-33 7 21 -21z"/>
<path d="M1410 971 c-8 -6 -17 -8 -21 -5 -4 2 -12 -3 -19 -11 -10 -12 -10 -18
0 -30 15 -18 5 -35 -22 -35 -12 0 -19 -3 -15 -6 14 -14 58 8 69 34 7 15 18 35
26 45 16 18 6 23 -18 8z"/>
<path d="M1870 951 c-26 -50 3 -103 57 -103 55 0 80 75 36 110 -26 19 -81 15
-93 -7z m80 -9 c45 -36 1 -99 -50 -72 -25 14 -27 65 -2 79 23 14 27 14 52 -7z"/>
<path d="M633 945 c-16 -12 -17 -17 -6 -46 17 -45 0 -64 -27 -29 -19 25 -20
25 -20 3 0 -12 9 -27 20 -33 29 -16 65 22 49 51 -6 11 -8 28 -4 37 6 15 8 15
21 -2 15 -22 28 -17 18 7 -8 23 -29 28 -51 12z"/>
<path d="M686 859 c-34 -51 -39 -69 -17 -54 16 9 64 95 58 101 -3 3 -21 -18
-41 -47z"/>
<path d="M1800 896 c0 -3 9 -21 21 -40 25 -43 17 -45 -34 -11 -52 36 -64 23
-31 -33 32 -55 42 -68 49 -60 4 3 -3 21 -14 39 -30 48 -26 53 19 24 67 -43 77
-30 33 41 -24 38 -43 55 -43 40z"/>
<path d="M746 881 c-4 -5 -1 -11 6 -13 8 -3 3 -20 -15 -52 -30 -54 -31 -56
-18 -56 4 0 19 20 32 45 14 26 32 45 44 47 17 3 15 6 -12 21 -17 9 -34 13 -37
8z"/>
<path d="M821 807 c0 -27 -6 -58 -12 -69 -17 -31 2 -18 50 35 46 50 47 61 3
26 l-27 -21 -6 39 -6 38 -2 -48z"/>
<path d="M1695 811 c5 -23 2 -29 -15 -34 -13 -3 -24 1 -30 14 -6 10 -15 19
-20 19 -4 0 3 -27 17 -60 14 -32 30 -57 35 -54 4 3 3 15 -3 26 -9 18 -8 24 7
35 25 19 33 16 40 -12 3 -14 10 -25 15 -25 13 0 12 3 -15 65 -27 60 -41 72
-31 26z"/>
<path d="M1520 770 c-41 -41 -10 -110 49 -110 16 0 34 7 41 15 16 19 5 34 -12
17 -15 -15 -51 -15 -66 0 -7 7 -12 21 -12 33 0 29 19 45 53 45 16 0 26 4 22
10 -10 17 -54 11 -75 -10z"/>
<path d="M1010 743 c-36 -46 -11 -103 46 -103 57 0 85 69 44 110 -28 28 -64
25 -90 -7z m78 -5 c30 -30 3 -83 -39 -76 -32 5 -45 31 -31 62 13 28 49 35 70
14z"/>
<path d="M1404 743 c3 -10 8 -39 12 -65 3 -27 11 -48 18 -48 24 0 56 13 51 20
-3 5 -13 6 -24 3 -11 -3 -21 2 -25 12 -4 12 0 18 14 22 11 3 20 10 20 15 0 6
-9 8 -20 5 -29 -7 -26 27 3 41 20 10 19 11 -16 11 -32 1 -37 -2 -33 -16z"/>
<path d="M1151 683 c1 -60 2 -64 10 -35 7 23 16 32 32 33 l22 0 -22 9 c-28 12
-30 40 -3 40 11 0 20 5 20 10 0 6 -13 10 -30 10 l-30 0 1 -67z"/>
<path d="M1320 740 c0 -5 7 -10 15 -10 11 0 15 -12 15 -49 0 -28 5 -53 11 -57
9 -5 10 8 7 47 -4 42 -2 56 11 66 14 11 10 12 -21 13 -21 0 -38 -4 -38 -10z"/>
<path d="M110 205 l0 -195 40 0 40 0 0 68 c0 60 3 71 25 92 14 13 26 22 28 19
2 -2 30 -43 62 -91 l58 -88 49 0 c37 0 47 3 42 13 -5 6 -41 58 -81 115 -40 56
-73 106 -73 110 0 3 33 39 72 79 l72 73 -50 0 c-51 0 -52 0 -128 -80 l-76 -80
0 80 0 80 -40 0 -40 0 0 -195z"/>
<path d="M510 205 l0 -195 35 0 35 0 0 137 c0 79 4 133 9 127 5 -5 21 -47 36
-94 49 -149 60 -170 92 -170 27 0 30 5 73 131 25 72 48 133 53 136 4 2 7 -57
7 -131 l0 -136 35 0 35 0 0 195 0 196 -57 -3 -56 -3 -41 -122 c-23 -67 -44
-124 -47 -128 -3 -3 -26 52 -51 122 l-44 128 -57 3 -57 3 0 -196z"/>
<path d="M1012 241 c3 -154 4 -160 28 -186 33 -36 64 -47 131 -47 63 0 107 18
138 58 19 24 21 40 21 180 l0 154 -35 0 -35 0 -1 -122 c0 -155 -11 -190 -61
-202 -54 -13 -95 7 -108 53 -5 20 -10 89 -10 154 l0 117 -36 0 -35 0 3 -159z"/>
<path d="M1390 370 c0 -30 1 -30 55 -30 l55 0 0 -165 0 -165 40 0 40 0 2 163
3 162 58 3 c56 3 57 4 57 32 l0 30 -155 0 -155 0 0 -30z"/>
<path d="M1759 383 c-1 -19 -1 -326 0 -355 1 -14 10 -18 36 -18 l35 0 0 132
c0 155 -5 156 99 -14 l72 -118 40 0 39 0 0 195 0 195 -35 0 -35 0 0 -125 c0
-72 -4 -125 -10 -125 -5 0 -44 56 -86 125 l-77 125 -38 0 c-30 0 -39 -4 -40
-17z"/>
<path d="M2160 205 l0 -195 98 0 c171 1 227 29 227 116 0 38 -5 50 -31 73
l-31 28 24 27 c32 38 30 80 -6 117 -29 29 -30 29 -155 29 l-126 0 0 -195z
m211 125 c24 -14 25 -52 0 -74 -14 -13 -33 -16 -72 -14 l-54 3 -3 48 -3 47 56
0 c31 0 65 -5 76 -10z m19 -160 c24 -24 25 -47 3 -72 -13 -14 -31 -18 -85 -18
l-68 0 0 55 0 55 65 0 c52 0 69 -4 85 -20z"/>
</g>
</svg>
